<svg width="16" height="16" fill="none" xmlns="http://www.w3.org/2000/svg"><path fill-rule="evenodd" clip-rule="evenodd" d="M.223 9.964a.625.625 0 01.884 0l4.152 4.152h9.116a.625.625 0 110 1.25H5a.625.625 0 01-.442-.183L.223 10.848a.625.625 0 010-.884zm7.46-7.54a.625.625 0 01.884 0L12.942 6.8a.625.625 0 11-.884.884L7.683 3.308a.625.625 0 010-.884z" fill="#868F98"/><path fill-rule="evenodd" clip-rule="evenodd" d="M9.741.366a1.25 1.25 0 011.768 0l-.418.418.418-.418L15 3.857a1.25 1.25 0 010 1.768l-9.558 9.558a.625.625 0 01-.442.183H1.25A1.25 1.25 0 010 14.116v-3.491a1.25 1.25 0 01.366-.884L9.741.366zm4.375 4.375L10.625 1.25 1.25 10.625l-.442-.442.442.442v3.491h3.491l9.375-9.375z" fill="#868F98"/></svg>