<svg width="16" height="16" viewBox="0 0 16 16" fill="none" xmlns="http://www.w3.org/2000/svg">
<g clip-path="url(#clip0_754_42062)">
<path d="M15.844 8.18417C15.844 7.64035 15.8 7.09359 15.7059 6.55859H8.16003V9.63925H12.4812C12.3019 10.6328 11.7257 11.5117 10.8821 12.0703V14.0692H13.4601C14.9739 12.6758 15.844 10.6181 15.844 8.18417Z" fill="#4285F4"/>
<path d="M8.16005 16.0022C10.3177 16.0022 12.1373 15.2937 13.463 14.0709L10.885 12.072C10.1678 12.56 9.2418 12.8363 8.16299 12.8363C6.0759 12.8363 4.30629 11.4282 3.67135 9.53516H1.01105V11.5958C2.36912 14.2972 5.13524 16.0022 8.16005 16.0022Z" fill="#34A853"/>
<path d="M3.66839 9.5338C3.33328 8.54023 3.33328 7.46435 3.66839 6.47078V4.41016H1.01104C-0.123633 6.67067 -0.123633 9.33391 1.01104 11.5944L3.66839 9.5338Z" fill="#FBBC04"/>
<path d="M8.16005 3.16644C9.30059 3.1488 10.4029 3.57798 11.2289 4.36578L13.513 2.08174C12.0667 0.72367 10.1472 -0.0229773 8.16005 0.000539111C5.13524 0.000539111 2.36912 1.70548 1.01105 4.40987L3.66841 6.4705C4.30041 4.57449 6.07296 3.16644 8.16005 3.16644Z" fill="#EA4335"/>
</g>
<defs>
<clipPath id="clip0_754_42062">
<rect width="16" height="16" fill="white"/>
</clipPath>
</defs>
</svg>
