<svg width="17" height="15" fill="none" xmlns="http://www.w3.org/2000/svg"><path fill-rule="evenodd" clip-rule="evenodd" d="M6.563 6.875c0-.345.28-.625.625-.625h1.875a.625.625 0 110 1.25H7.187a.625.625 0 01-.625-.625z" fill="#1C6FBC"/><path fill-rule="evenodd" clip-rule="evenodd" d="M16.166 7.055a.625.625 0 01-.228.854A15.556 15.556 0 018.125 10 15.556 15.556 0 01.312 7.91a.625.625 0 11.626-1.082A14.306 14.306 0 008.124 8.75h.002a14.31 14.31 0 007.186-1.923.625.625 0 01.854.228zM4.924.55C5.276.197 5.753 0 6.25 0H10a1.875 1.875 0 011.875 1.875v1.25a.625.625 0 11-1.25 0v-1.25A.625.625 0 0010 1.25H6.25a.625.625 0 00-.625.625v1.25a.625.625 0 11-1.25 0v-1.25c0-.497.198-.974.55-1.326z" fill="#1C6FBC"/><path fill-rule="evenodd" clip-rule="evenodd" d="M.001 3.75c0-.69.56-1.25 1.25-1.25h13.75c.69 0 1.25.56 1.25 1.25v10c0 .69-.56 1.25-1.25 1.25H1.251c-.69 0-1.25-.56-1.25-1.25v-10zm15 0H1.251v10h13.75v-10z" fill="#1C6FBC"/></svg>