<svg width="17" height="17" fill="none" xmlns="http://www.w3.org/2000/svg"><path fill-rule="evenodd" clip-rule="evenodd" d="M7.5.625C7.5.28 7.78 0 8.125 0a8.125 8.125 0 11-7.007 12.242.625.625 0 011.078-.634A6.874 6.874 0 108.125 1.25.625.625 0 017.5.625z" fill="#1C6FBC"/><path fill-rule="evenodd" clip-rule="evenodd" d="M5.985.541a.625.625 0 01.265.51v5.63c0 .224-.12.43-.313.542l-4.874 2.814a.625.625 0 01-.928-.427A8.137 8.137 0 015.415.463a.625.625 0 01.57.078zM5 2.001a6.887 6.887 0 00-3.741 6.48l3.74-2.16V2zm10.162 2.061a.625.625 0 01-.23.854l-12.99 7.5a.625.625 0 11-.625-1.082l12.99-7.5a.625.625 0 01.855.228z" fill="#1C6FBC"/><path fill-rule="evenodd" clip-rule="evenodd" d="M8.125 0c.345 0 .625.28.625.625v7.5a.625.625 0 11-1.25 0v-7.5C7.5.28 7.78 0 8.125 0z" fill="#1C6FBC"/></svg>