<svg width="16" height="15" fill="none" xmlns="http://www.w3.org/2000/svg"><path fill-rule="evenodd" clip-rule="evenodd" d="M11.067 6.12a.625.625 0 010 .884l-7.5 7.5a.625.625 0 01-.884 0l-2.5-2.5a.625.625 0 11.884-.883l2.058 2.058 7.058-7.058a.625.625 0 01.884 0z" fill="#1C6FBC"/><path fill-rule="evenodd" clip-rule="evenodd" d="M1.304.366A1.25 1.25 0 012.187 0h11.876a1.25 1.25 0 011.25 1.25v11.875a1.25 1.25 0 01-1.25 1.25H8.721a.625.625 0 110-1.25h5.34V1.25H2.188v7.13a.625.625 0 11-1.25 0V1.25c0-.332.131-.65.366-.884z" fill="#1C6FBC"/></svg>