<svg width="14" height="17" fill="none" xmlns="http://www.w3.org/2000/svg"><path fill-rule="evenodd" clip-rule="evenodd" d="M3.125 12.5c0-.345.28-.625.625-.625H7.5a.625.625 0 110 1.25H3.75a.625.625 0 01-.625-.625zm0-2.5c0-.345.28-.625.625-.625H7.5a.625.625 0 110 1.25H3.75A.625.625 0 013.125 10z" fill="#1C6FBC"/><path fill-rule="evenodd" clip-rule="evenodd" d="M2.866.366A1.25 1.25 0 013.75 0H10c.166 0 .325.066.442.183l3.125 3.125a.625.625 0 01.183.442v8.75a1.25 1.25 0 01-1.25 1.25h-1.875a.625.625 0 110-1.25H12.5V4.009L9.741 1.25H3.75v1.875a.625.625 0 11-1.25 0V1.25c0-.332.132-.65.366-.884z" fill="#1C6FBC"/><path fill-rule="evenodd" clip-rule="evenodd" d="M.366 2.866A1.25 1.25 0 011.25 2.5H7.5c.166 0 .325.066.442.183l3.125 3.125a.625.625 0 01.183.442V15A1.25 1.25 0 0110 16.25H1.25A1.25 1.25 0 010 15V3.75c0-.332.132-.65.366-.884zm6.875.884H1.25V15H10V6.509L7.241 3.75z" fill="#1C6FBC"/></svg>