<svg width="146" height="56" viewBox="0 0 146 56" fill="none" xmlns="http://www.w3.org/2000/svg">
<path d="M15.5291 29.334C10.1049 30.934 3.58296 30.6673 1 30.334V56H73H145V12.5012C130.794 -5.89836 115.619 1.83477 109.807 8.00127L99.7982 18.1677C95.3857 23.0564 81.7821 31.2007 62.6682 24.6675C43.5543 18.1343 32.9641 20.7232 30.0583 22.8342C27.4753 24.3342 20.9534 27.7341 15.5291 29.334Z" fill="url(#paint0_linear_747_282868)"/>
<path d="M1 30.7425C3.56464 31.0819 10.0404 31.3535 15.4261 29.7243C20.8118 28.0951 27.2876 24.633 29.8522 23.1056C32.7374 20.956 43.2525 18.3198 62.2308 24.9724C81.2091 31.625 94.7162 23.3319 99.0975 18.3538L109.035 8.00149C114.806 1.72225 130.894 -5.91752 145 12.8184" stroke="#38C470" stroke-linecap="round"/>
<defs>
<linearGradient id="paint0_linear_747_282868" x1="76.5" y1="1" x2="76.5" y2="56" gradientUnits="userSpaceOnUse">
<stop stop-color="#20CA11"/>
<stop offset="0.962855" stop-color="white" stop-opacity="0"/>
</linearGradient>
</defs>
</svg>
