<svg width="15" height="15" fill="none" xmlns="http://www.w3.org/2000/svg"><path fill-rule="evenodd" clip-rule="evenodd" d="M.366.366A1.25 1.25 0 011.25 0h4.375a.625.625 0 110 1.25H1.25v12.5h4.375a.625.625 0 110 1.25H1.25A1.25 1.25 0 010 13.75V1.25C0 .918.132.6.366.366z" fill="#868F98"/><path fill-rule="evenodd" clip-rule="evenodd" d="M5 7.5c0-.345.28-.625.625-.625h8.748a.625.625 0 110 1.25H5.625A.625.625 0 015 7.5z" fill="#868F98"/><path fill-rule="evenodd" clip-rule="evenodd" d="M10.653 3.777a.625.625 0 01.883 0l3.28 3.281a.625.625 0 010 .884l-3.28 3.281a.625.625 0 01-.883-.884L13.49 7.5l-2.838-2.84a.625.625 0 010-.883z" fill="#868F98"/></svg>