<svg width="17" height="17" fill="none" xmlns="http://www.w3.org/2000/svg"><path fill-rule="evenodd" clip-rule="evenodd" d="M6.49 3.21c-.525 1.226-.865 2.963-.865 4.915 0 1.951.34 3.689.865 4.915.263.614.56 1.07.858 1.365.295.292.557.394.777.394.22 0 .482-.102.777-.394.298-.294.595-.751.858-1.365.525-1.226.865-2.963.865-4.915s-.34-3.69-.865-4.915c-.263-.614-.56-1.071-.858-1.366-.295-.291-.557-.393-.777-.393-.22 0-.482.102-.777.393-.298.295-.595.752-.858 1.366zM6.47.955C6.921.508 7.481.201 8.124.201S9.327.508 9.78.955c.45.444.826 1.056 1.128 1.763.606 1.415.966 3.328.966 5.407 0 2.08-.36 3.991-.966 5.407-.302.707-.679 1.318-1.128 1.763-.453.447-1.013.754-1.656.754s-1.203-.307-1.656-.754c-.45-.445-.826-1.056-1.128-1.763-.606-1.416-.966-3.328-.966-5.407 0-2.08.36-3.992.966-5.407.302-.707.679-1.319 1.128-1.763z" fill="#868F98"/><path fill-rule="evenodd" clip-rule="evenodd" d="M.427 10.625c0-.345.28-.625.625-.625h14.146a.625.625 0 110 1.25H1.052a.625.625 0 01-.625-.625zm0-5c0-.345.28-.625.625-.625h14.146a.625.625 0 110 1.25H1.052a.625.625 0 01-.625-.625z" fill="#868F98"/><path fill-rule="evenodd" clip-rule="evenodd" d="M8.125 1.25a6.875 6.875 0 100 13.75 6.875 6.875 0 000-13.75zM0 8.125a8.125 8.125 0 1116.25 0 8.125 8.125 0 01-16.25 0z" fill="#868F98"/></svg>