<svg width="32" height="32" fill="none" xmlns="http://www.w3.org/2000/svg"><path opacity=".36" d="M16.281 27.996a12 12 0 0010.49-6.7l-6.786-4.173a1 1 0 00-.39-.14l-2.853-.384a1 1 0 00-1.047.584l-1.712 3.842a1 1 0 00.18 1.086l2.35 2.542a1 1 0 01.247.869l-.479 2.474z" fill="url(#paint0_linear_931_1702)"/><path opacity=".36" d="M8.119 6.95L7 9.596a1 1 0 00-.016.74l1.437 3.833a1 1 0 00.726.627l.678.146 1.04-2.471a1 1 0 01.923-.612h2.668a1 1 0 00.483-.125l1.53-.845a1.03 1.03 0 00.188-.133l3.363-3.042a1 1 0 00.203-1.23l-1.167-2.09A12.024 12.024 0 008.12 6.951z" fill="url(#paint1_linear_931_1702)"/><path fill-rule="evenodd" clip-rule="evenodd" d="M16 5C9.925 5 5 9.925 5 16s4.925 11 11 11 11-4.925 11-11S22.075 5 16 5zM3 16C3 8.82 8.82 3 16 3s13 5.82 13 13-5.82 13-13 13S3 23.18 3 16z" fill="#112E49"/><path fill-rule="evenodd" clip-rule="evenodd" d="M15.634 15.843a2 2 0 011.241-.235l-.085.635.085-.635 2.853.384-.133.989.133-.989c.277.038.543.132.78.279l6.786 4.173a1 1 0 11-1.047 1.704l-6.786-4.174m0 0l.133-.99-.133.99-2.853-.384-1.712 3.842-.789-.351.789.351 2.35 2.542a1.999 1.999 0 01.495 1.738l-.479 2.474a1 1 0 01-1.963-.38l.478-2.474-2.35-2.542.727-.672-.726.672a1.998 1.998 0 01-.359-2.172l.914.407-.914-.407 1.712-3.842a2 2 0 01.853-.933m4.35 1.28l.001-.002v.002z" fill="#112E49"/><path fill-rule="evenodd" clip-rule="evenodd" d="M8.508 6.028A1 1 0 019.04 7.34L7.922 9.983l1.436 3.833 2.679.576a2 2 0 011.38 1.084l-.9.436.9-.436.476.983h1.679a1 1 0 110 2h-1.68a2 2 0 01-1.8-1.129l.9-.436-.9.436-.475-.983-2.679-.575a2 2 0 01-1.453-1.254L6.05 10.684a2 2 0 01.03-1.48L7.199 6.56a1 1 0 011.31-.532z" fill="#112E49"/><path fill-rule="evenodd" clip-rule="evenodd" d="M18.57 3.522a1 1 0 011.36.385l1.167 2.09a2 2 0 01-.405 2.458l-3.364 3.043a2 2 0 01-.374.267l-1.53.845a2 2 0 01-.967.25h-2.669l-1.04 2.47a1 1 0 01-1.844-.776l1.041-2.471a1.999 1.999 0 011.843-1.224h2.669l1.53-.845 3.364-3.042-1.167-2.09a1 1 0 01.386-1.36z" fill="#112E49"/><defs><linearGradient id="paint0_linear_931_1702" x1="20.334" y1="16.59" x2="20.334" y2="27.996" gradientUnits="userSpaceOnUse"><stop stop-color="#4396D2"/><stop offset="1" stop-color="#1E6CB4"/></linearGradient><linearGradient id="paint1_linear_931_1702" x1="13.636" y1="4" x2="13.636" y2="14.941" gradientUnits="userSpaceOnUse"><stop stop-color="#4396D2"/><stop offset="1" stop-color="#1E6CB4"/></linearGradient></defs></svg>