<svg width="121" height="40" fill="none" xmlns="http://www.w3.org/2000/svg"><path d="M.5 10.5c0-3.262 0-4.892.533-6.179A7 7 0 014.82.533C6.108 0 7.738 0 11 0h99c3.262 0 4.892 0 6.179.533a6.998 6.998 0 013.788 3.788c.533 1.287.533 2.917.533 6.179v19c0 3.262 0 4.892-.533 6.179a6.999 6.999 0 01-3.788 3.788C114.892 40 113.262 40 110 40H11c-3.262 0-4.892 0-6.179-.533a7 7 0 01-3.788-3.788C.5 34.392.5 32.762.5 29.5v-19z" fill="#0C0D10"/><path d="M82.026 19.2v2.291H80.59v1.503h1.436v5.105c0 1.743.788 2.44 2.772 2.44.349 0 .68-.041.971-.091v-1.486c-.249.025-.406.042-.68.042-.888 0-1.279-.415-1.279-1.362v-4.648h1.96V21.49h-1.96V19.2h-1.784zm8.797 11.464c2.64 0 4.259-1.768 4.259-4.699 0-2.913-1.627-4.69-4.259-4.69-2.64 0-4.266 1.777-4.266 4.69 0 2.93 1.618 4.699 4.266 4.699zm0-1.586c-1.552 0-2.424-1.137-2.424-3.113 0-1.959.872-3.104 2.424-3.104 1.544 0 2.424 1.145 2.424 3.104 0 1.968-.88 3.113-2.424 3.113zm5.643 1.412h1.785v-5.338c0-1.27.955-2.125 2.308-2.125.315 0 .846.058.996.108v-1.76c-.191-.05-.531-.075-.797-.075-1.179 0-2.183.648-2.44 1.536h-.133V21.45h-1.719v9.04zm9.52-7.695c1.32 0 2.183.921 2.225 2.34h-4.566c.1-1.41 1.021-2.34 2.341-2.34zm2.216 5.254c-.332.706-1.07 1.096-2.15 1.096-1.427 0-2.349-1.005-2.407-2.59v-.1h6.384v-.622c0-2.84-1.52-4.557-4.035-4.557-2.548 0-4.167 1.834-4.167 4.723 0 2.888 1.586 4.665 4.176 4.665 2.067 0 3.511-.996 3.918-2.615h-1.719zm-37.88-.898c.138 2.22 1.987 3.64 4.74 3.64 2.943 0 4.784-1.489 4.784-3.863 0-1.867-1.05-2.9-3.596-3.493l-1.368-.336c-1.618-.378-2.271-.886-2.271-1.772 0-1.119 1.015-1.85 2.538-1.85 1.445 0 2.443.714 2.624 1.858h1.875c-.111-2.09-1.953-3.562-4.474-3.562-2.71 0-4.516 1.472-4.516 3.683 0 1.824 1.023 2.908 3.269 3.433l1.6.387c1.644.387 2.366.955 2.366 1.901 0 1.101-1.136 1.901-2.684 1.901-1.66 0-2.814-.748-2.977-1.927h-1.91zM51.835 21.3c-1.229 0-2.291.615-2.84 1.644h-.132V21.45h-1.718v12.044h1.784V29.12h.142c.473.954 1.494 1.519 2.78 1.519 2.283 0 3.736-1.801 3.736-4.674 0-2.872-1.453-4.665-3.752-4.665zm-.507 7.737c-1.494 0-2.432-1.179-2.432-3.063 0-1.893.938-3.072 2.44-3.072 1.511 0 2.416 1.154 2.416 3.063 0 1.918-.905 3.072-2.424 3.072zM61.832 21.3c-1.229 0-2.291.615-2.84 1.644h-.132V21.45h-1.718v12.044h1.784V29.12h.141c.474.954 1.495 1.519 2.781 1.519 2.283 0 3.736-1.801 3.736-4.674 0-2.872-1.453-4.665-3.752-4.665zm-.507 7.737c-1.494 0-2.432-1.179-2.432-3.063 0-1.893.938-3.072 2.44-3.072 1.511 0 2.416 1.154 2.416 3.063 0 1.918-.905 3.072-2.424 3.072zM43.943 30.49h2.047l-4.482-12.415h-2.073l-4.483 12.414h1.979l1.144-3.295h4.732l1.136 3.295zm-3.57-10.161h.146l1.798 5.248h-3.751l1.806-5.248zM36.151 8.71v5.99h2.163c1.784 0 2.818-1.1 2.818-3.013 0-1.885-1.042-2.976-2.818-2.976H36.15zm.93.847h1.129c1.24 0 1.975.789 1.975 2.142 0 1.374-.722 2.154-1.975 2.154h-1.129V9.557zm7.216 5.23c1.32 0 2.13-.884 2.13-2.35 0-1.456-.814-2.344-2.13-2.344-1.32 0-2.133.888-2.133 2.345 0 1.465.809 2.349 2.133 2.349zm0-.793c-.776 0-1.212-.569-1.212-1.556 0-.98.436-1.553 1.212-1.553.772 0 1.212.573 1.212 1.553 0 .983-.44 1.556-1.212 1.556zm9.021-3.814h-.892l-.805 3.449h-.07l-.93-3.45h-.855l-.93 3.45h-.067l-.809-3.45h-.905L48.3 14.7h.918l.93-3.328h.07l.934 3.329h.925l1.241-4.52zm1.028 4.52h.892v-2.644c0-.706.42-1.146 1.08-1.146.66 0 .975.361.975 1.088V14.7h.892v-2.926c0-1.075-.556-1.681-1.565-1.681-.68 0-1.129.303-1.349.805h-.066v-.718h-.86v4.52zm5.244 0h.893V8.416h-.893V14.7zm4.249.087c1.32 0 2.129-.884 2.129-2.35 0-1.456-.814-2.344-2.13-2.344-1.32 0-2.133.888-2.133 2.345 0 1.465.81 2.349 2.134 2.349zm0-.793c-.776 0-1.212-.569-1.212-1.556 0-.98.435-1.553 1.212-1.553.772 0 1.212.573 1.212 1.553 0 .983-.44 1.556-1.212 1.556zm4.787.029c-.485 0-.838-.236-.838-.643 0-.399.282-.61.905-.652l1.104-.07v.377c0 .56-.498.988-1.17.988zm-.228.751c.594 0 1.088-.257 1.357-.71h.071v.636h.86v-3.088c0-.955-.64-1.52-1.773-1.52-1.025 0-1.756.499-1.847 1.275h.863c.1-.32.444-.502.942-.502.61 0 .926.27.926.747v.39l-1.224.07c-1.075.067-1.681.536-1.681 1.35 0 .825.635 1.352 1.506 1.352zm5.315 0c.623 0 1.15-.294 1.42-.788h.07v.714h.855V8.416h-.892v2.482H75.1c-.245-.498-.768-.793-1.387-.793-1.141 0-1.876.905-1.876 2.333 0 1.432.727 2.336 1.876 2.336zm.253-3.868c.748 0 1.217.594 1.217 1.536 0 .946-.465 1.531-1.217 1.531-.755 0-1.207-.577-1.207-1.535 0-.95.456-1.532 1.207-1.532zm7.879 3.881c1.32 0 2.129-.884 2.129-2.35 0-1.456-.814-2.344-2.13-2.344-1.32 0-2.133.888-2.133 2.345 0 1.465.81 2.349 2.134 2.349zm0-.793c-.776 0-1.212-.569-1.212-1.556 0-.98.436-1.553 1.212-1.553.772 0 1.212.573 1.212 1.553 0 .983-.44 1.556-1.212 1.556zm3.31.706h.892v-2.644c0-.706.42-1.146 1.08-1.146.66 0 .975.361.975 1.088V14.7h.892v-2.926c0-1.075-.556-1.681-1.565-1.681-.68 0-1.129.303-1.348.805h-.067v-.718h-.859v4.52zm7.949-5.645v1.146h-.718v.75h.718v2.553c0 .872.394 1.22 1.386 1.22.174 0 .34-.02.486-.045v-.743c-.125.012-.204.02-.34.02-.445 0-.64-.207-.64-.68v-2.324h.98V10.2h-.98V9.055h-.892zm3.07 5.645h.892v-2.64c0-.685.407-1.145 1.137-1.145.63 0 .967.365.967 1.087V14.7h.892v-2.918c0-1.075-.593-1.685-1.556-1.685-.68 0-1.158.303-1.378.81h-.07V8.415h-.885V14.7zm7.107-3.848c.66 0 1.092.461 1.113 1.17h-2.283c.05-.705.511-1.17 1.17-1.17zm1.109 2.627c-.166.353-.536.548-1.075.548-.714 0-1.175-.502-1.204-1.295v-.05h3.192v-.31c0-1.42-.76-2.28-2.017-2.28-1.275 0-2.084.918-2.084 2.362 0 1.445.793 2.333 2.088 2.333 1.033 0 1.755-.498 1.959-1.308h-.859zm-79.121 6.822a4.989 4.989 0 012.357-4.152 5.128 5.128 0 00-3.992-2.158c-1.679-.176-3.307 1.005-4.163 1.005-.872 0-2.19-.987-3.608-.958a5.359 5.359 0 00-4.473 2.728c-1.934 3.348-.491 8.27 1.361 10.976.927 1.325 2.01 2.806 3.428 2.753 1.387-.057 1.905-.884 3.58-.884 1.658 0 2.144.884 3.59.85 1.489-.023 2.426-1.33 3.32-2.668a10.957 10.957 0 001.52-3.093 4.824 4.824 0 01-2.92-4.399zm-2.732-8.09a4.872 4.872 0 001.115-3.49 4.957 4.957 0 00-3.208 1.66 4.678 4.678 0 00-1.143 3.36 4.147 4.147 0 003.236-1.53z" fill="#fff"/><path d="M4.821 39.467l-.382.924.382-.924zm115.146-3.788l.924.383-.924-.383zm-3.788 3.788l.382.924-.382-.924zm0-38.934l.382-.924-.382.924zm3.788 3.788l.924-.382-.924.382zM11 1h99v-2H11v2zm108.5 9.5v19h2v-19h-2zM110 39H11v2h99v-2zM1.5 29.5v-19h-2v19h2zM11 39c-1.644 0-2.828 0-3.762-.064-.925-.063-1.533-.185-2.034-.393l-.765 1.848c.785.325 1.636.47 2.663.54C8.12 41.001 9.382 41 11 41v-2zM-.5 29.5c0 1.617 0 2.88.069 3.898.07 1.027.215 1.878.54 2.663l1.848-.765c-.208-.5-.33-1.109-.393-2.034-.063-.934-.064-2.117-.064-3.762h-2zm5.704 9.043a6 6 0 01-3.247-3.247l-1.848.766a8 8 0 004.33 4.329l.765-1.848zM119.5 29.5c0 1.645-.001 2.828-.064 3.762-.063.925-.185 1.533-.393 2.034l1.848.766c.325-.786.47-1.637.54-2.664.07-1.018.069-2.28.069-3.898h-2zM110 41c1.617 0 2.88 0 3.898-.069 1.027-.07 1.878-.215 2.663-.54l-.765-1.848c-.501.208-1.109.33-2.034.393-.934.063-2.118.064-3.762.064v2zm9.043-5.704a6 6 0 01-3.247 3.247l.765 1.848a7.998 7.998 0 004.33-4.33l-1.848-.765zM110 1c1.644 0 2.828 0 3.762.064.925.063 1.533.185 2.034.393l.765-1.848c-.785-.325-1.636-.47-2.663-.54C112.88-1.001 111.617-1 110-1v2zm11.5 9.5c0-1.617.001-2.88-.069-3.898-.07-1.027-.215-1.878-.54-2.663l-1.848.765c.208.5.33 1.109.393 2.034.063.934.064 2.118.064 3.762h2zm-5.704-9.043a6 6 0 013.247 3.247l1.848-.765a7.998 7.998 0 00-4.33-4.33l-.765 1.848zM11-1c-1.617 0-2.88 0-3.898.069-1.027.07-1.878.215-2.663.54l.765 1.848c.5-.208 1.109-.33 2.034-.393C8.172 1.001 9.356 1 11 1v-2zM1.5 10.5c0-1.644 0-2.828.064-3.762.063-.925.185-1.533.393-2.034L.109 3.939c-.325.785-.47 1.636-.54 2.663C-.501 7.62-.5 8.882-.5 10.5h2zM4.439-.391a8 8 0 00-4.33 4.33l1.848.765a6 6 0 013.247-3.247L4.439-.391z" fill="#A6A6A6"/></svg>