<svg width="136" height="40" fill="none" xmlns="http://www.w3.org/2000/svg"><path d="M.5 5a5 5 0 015-5h125a5 5 0 015 5v30a5 5 0 01-5 5H5.5a5 5 0 01-5-5V5z" fill="#000"/><path d="M68.636 21.75c-2.352 0-4.269 1.79-4.269 4.254 0 2.449 1.917 4.253 4.269 4.253 2.353 0 4.27-1.804 4.27-4.253-.001-2.464-1.918-4.253-4.27-4.253zm0 6.833c-1.289 0-2.4-1.063-2.4-2.578 0-1.531 1.112-2.578 2.4-2.578 1.289 0 2.4 1.047 2.4 2.578 0 1.514-1.111 2.578-2.4 2.578zm-9.314-6.832c-2.352 0-4.269 1.789-4.269 4.253 0 2.449 1.917 4.253 4.269 4.253 2.353 0 4.27-1.804 4.27-4.253 0-2.464-1.917-4.253-4.27-4.253zm0 6.832c-1.289 0-2.4-1.063-2.4-2.578 0-1.531 1.112-2.578 2.4-2.578 1.289 0 2.4 1.047 2.4 2.578.001 1.514-1.111 2.578-2.4 2.578zm-11.078-5.526v1.804h4.318c-.129 1.015-.467 1.756-.983 2.27-.628.629-1.611 1.322-3.335 1.322-2.658 0-4.736-2.143-4.736-4.801 0-2.658 2.078-4.801 4.736-4.801 1.434 0 2.481.564 3.254 1.289l1.273-1.273c-1.08-1.031-2.513-1.82-4.527-1.82-3.641 0-6.702 2.964-6.702 6.605 0 3.64 3.061 6.605 6.702 6.605 1.965 0 3.448-.645 4.607-1.853 1.192-1.192 1.563-2.868 1.563-4.221 0-.418-.032-.805-.097-1.127h-6.073zm45.308 1.4c-.354-.95-1.434-2.706-3.641-2.706-2.191 0-4.012 1.724-4.012 4.253 0 2.384 1.805 4.253 4.221 4.253 1.949 0 3.077-1.192 3.545-1.885l-1.45-.967c-.483.709-1.144 1.176-2.095 1.176-.95 0-1.627-.435-2.062-1.29l5.687-2.351-.193-.482zm-5.8 1.419c-.048-1.644 1.273-2.481 2.224-2.481.741 0 1.369.37 1.579.902l-3.803 1.579zM83.129 30h1.868V17.499h-1.868v12.5zm-3.062-7.298h-.064c-.419-.5-1.225-.951-2.239-.951-2.127 0-4.076 1.869-4.076 4.27 0 2.384 1.949 4.237 4.076 4.237 1.015 0 1.82-.451 2.239-.966h.064v.612c0 1.627-.87 2.497-2.271 2.497-1.144 0-1.853-.821-2.143-1.514l-1.627.677c.467 1.127 1.707 2.513 3.77 2.513 2.191 0 4.044-1.29 4.044-4.431V22.01h-1.772v.692h-.001zm-2.142 5.88c-1.289 0-2.368-1.08-2.368-2.561 0-1.5 1.079-2.594 2.368-2.594 1.272 0 2.271 1.095 2.271 2.594 0 1.482-.999 2.562-2.271 2.562zM102.306 17.5h-4.471V30H99.7v-4.735h2.605c2.068 0 4.102-1.497 4.102-3.882s-2.033-3.883-4.101-3.883zm.048 6.025H99.7V19.24h2.654c1.395 0 2.187 1.155 2.187 2.143 0 .968-.792 2.142-2.187 2.142zm11.532-1.795c-1.351 0-2.75.595-3.329 1.914l1.656.69c.354-.69 1.014-.916 1.705-.916.965 0 1.946.579 1.962 1.608v.129c-.338-.193-1.062-.482-1.946-.482-1.785 0-3.603.98-3.603 2.814 0 1.673 1.464 2.75 3.104 2.75 1.254 0 1.946-.563 2.38-1.223h.064v.965h1.802v-4.793c.001-2.218-1.657-3.456-3.795-3.456zm-.226 6.85c-.61 0-1.463-.305-1.463-1.061 0-.965 1.062-1.335 1.979-1.335.819 0 1.206.177 1.704.418a2.262 2.262 0 01-2.22 1.979zm10.583-6.577l-2.139 5.42h-.064l-2.22-5.42h-2.01l3.329 7.575-1.898 4.214h1.946L126.318 22h-2.075zM107.437 30h1.865V17.499h-1.865v12.5zM47.918 10.243c0 .838-.248 1.505-.745 2.003-.564.592-1.3.888-2.204.888-.866 0-1.603-.3-2.208-.9-.606-.6-.909-1.345-.909-2.233 0-.889.303-1.633.91-2.233.604-.6 1.341-.9 2.207-.9.43 0 .841.083 1.231.25.391.168.704.391.938.67l-.527.528c-.397-.475-.944-.712-1.643-.712-.632 0-1.178.222-1.639.666-.461.444-.69 1.021-.69 1.73 0 .71.229 1.286.69 1.73a2.282 2.282 0 001.639.666c.67 0 1.23-.223 1.676-.67.29-.29.458-.696.503-1.215h-2.179v-.72h2.907c.03.156.043.307.043.452zm4.61-2.506h-2.732V9.64h2.464v.721h-2.464v1.902h2.732V13h-3.503V7h3.503v.737zM55.779 13h-.771V7.737h-1.676V7h4.123v.737h-1.676V13zm4.659 0V7h.771v6h-.771zm4.19 0h-.77V7.737H62.18V7h4.123v.737h-1.676V13zm9.481-.775c-.59.606-1.323.91-2.2.91-.877 0-1.61-.304-2.2-.91-.59-.606-.883-1.348-.883-2.225s.294-1.619.884-2.225c.589-.606 1.322-.91 2.199-.91.872 0 1.604.305 2.196.914.592.61.888 1.35.888 2.221 0 .877-.295 1.62-.884 2.225zm-3.83-.503a2.2 2.2 0 001.63.674c.643 0 1.187-.225 1.63-.674.444-.45.667-1.024.667-1.722s-.223-1.272-.667-1.722a2.199 2.199 0 00-1.63-.674c-.643 0-1.186.225-1.63.674-.443.45-.666 1.024-.666 1.722s.223 1.272.666 1.722zM76.075 13V7h.938l2.916 4.667h.033l-.033-1.156v-3.51h.77v6h-.804l-3.051-4.895h-.033l.033 1.156V13h-.77z" fill="#fff"/><path d="M47.918 10.243c0 .838-.248 1.505-.745 2.003-.564.592-1.3.888-2.204.888-.866 0-1.603-.3-2.208-.9-.606-.6-.909-1.345-.909-2.233 0-.889.303-1.633.91-2.233.604-.6 1.341-.9 2.207-.9.43 0 .841.083 1.231.25.391.168.704.391.938.67l-.527.528c-.397-.475-.944-.712-1.643-.712-.632 0-1.178.222-1.639.666-.461.444-.69 1.021-.69 1.73 0 .71.229 1.286.69 1.73a2.282 2.282 0 001.639.666c.67 0 1.23-.223 1.676-.67.29-.29.458-.696.503-1.215h-2.179v-.72h2.907c.03.156.043.307.043.452zm4.61-2.506h-2.732V9.64h2.464v.721h-2.464v1.902h2.732V13h-3.503V7h3.503v.737zM55.779 13h-.771V7.737h-1.676V7h4.123v.737h-1.676V13zm4.659 0V7h.771v6h-.771zm4.19 0h-.77V7.737H62.18V7h4.123v.737h-1.676V13zm9.481-.775c-.59.606-1.323.91-2.2.91-.877 0-1.61-.304-2.2-.91-.59-.606-.883-1.348-.883-2.225s.294-1.619.884-2.225c.589-.606 1.322-.91 2.199-.91.872 0 1.604.305 2.196.914.592.61.888 1.35.888 2.221 0 .877-.295 1.62-.884 2.225zm-3.83-.503a2.2 2.2 0 001.63.674c.643 0 1.187-.225 1.63-.674.444-.45.667-1.024.667-1.722s-.223-1.272-.667-1.722a2.199 2.199 0 00-1.63-.674c-.643 0-1.186.225-1.63.674-.443.45-.666 1.024-.666 1.722s.223 1.272.666 1.722zM76.075 13V7h.938l2.916 4.667h.033l-.033-1.156v-3.51h.77v6h-.804l-3.051-4.895h-.033l.033 1.156V13h-.77z" stroke="#fff" stroke-width=".2" stroke-miterlimit="10"/><g filter="url(#filter0_ii_747_293245)"><path d="M10.936 7.538c-.29.308-.463.786-.463 1.405v22.116c0 .62.172 1.097.463 1.405l.074.072 12.39-12.39v-.291L11.01 7.465l-.074.073z" fill="url(#paint0_linear_747_293245)"/><path d="M27.528 24.278l-4.13-4.131v-.292l4.13-4.13.094.053 4.893 2.78c1.397.794 1.397 2.093 0 2.888l-4.893 2.78-.094.052z" fill="url(#paint1_linear_747_293245)"/><g filter="url(#filter1_i_747_293245)"><path d="M27.622 24.224L23.398 20 10.936 32.463c.46.488 1.221.548 2.078.062l14.608-8.301z" fill="url(#paint2_linear_747_293245)"/></g><path d="M27.622 15.777l-14.608-8.3c-.857-.487-1.618-.426-2.078.062l12.463 12.463 4.223-4.225z" fill="url(#paint3_linear_747_293245)"/></g><path d="M5.5 1h125v-2H5.5v2zm129 4v30h2V5h-2zm-4 34H5.5v2h125v-2zm-129-4V5h-2v30h2zm4 4a4 4 0 01-4-4h-2a6 6 0 006 6v-2zm129-4a4 4 0 01-4 4v2a6 6 0 006-6h-2zm-4-34a4 4 0 014 4h2a6 6 0 00-6-6v2zM5.5-1a6 6 0 00-6 6h2a4 4 0 014-4v-2z" fill="#A6A6A6"/><defs><linearGradient id="paint0_linear_747_293245" x1="22.301" y1="8.709" x2="5.519" y2="25.491" gradientUnits="userSpaceOnUse"><stop stop-color="#00A0FF"/><stop offset=".007" stop-color="#00A1FF"/><stop offset=".26" stop-color="#00BEFF"/><stop offset=".512" stop-color="#00D2FF"/><stop offset=".76" stop-color="#00DFFF"/><stop offset="1" stop-color="#00E3FF"/></linearGradient><linearGradient id="paint1_linear_747_293245" x1="34.333" y1="20.001" x2="10.137" y2="20.001" gradientUnits="userSpaceOnUse"><stop stop-color="#FFE000"/><stop offset=".409" stop-color="#FFBD00"/><stop offset=".775" stop-color="orange"/><stop offset="1" stop-color="#FF9C00"/></linearGradient><linearGradient id="paint2_linear_747_293245" x1="25.328" y1="22.294" x2="2.57" y2="45.052" gradientUnits="userSpaceOnUse"><stop stop-color="#FF3A44"/><stop offset="1" stop-color="#C31162"/></linearGradient><linearGradient id="paint3_linear_747_293245" x1="7.797" y1=".177" x2="17.96" y2="10.339" gradientUnits="userSpaceOnUse"><stop stop-color="#32A071"/><stop offset=".069" stop-color="#2DA771"/><stop offset=".476" stop-color="#15CF74"/><stop offset=".801" stop-color="#06E775"/><stop offset="1" stop-color="#00F076"/></linearGradient><filter id="filter0_ii_747_293245" x="10.473" y="7.141" width="23.089" height="25.721" filterUnits="userSpaceOnUse" color-interpolation-filters="sRGB"><feFlood flood-opacity="0" result="BackgroundImageFix"/><feBlend in="SourceGraphic" in2="BackgroundImageFix" result="shape"/><feColorMatrix in="SourceAlpha" values="0 0 0 0 0 0 0 0 0 0 0 0 0 0 0 0 0 0 127 0" result="hardAlpha"/><feOffset dy="-.15"/><feComposite in2="hardAlpha" operator="arithmetic" k2="-1" k3="1"/><feColorMatrix values="0 0 0 0 0 0 0 0 0 0 0 0 0 0 0 0 0 0 0.12 0"/><feBlend in2="shape" result="effect1_innerShadow_747_293245"/><feColorMatrix in="SourceAlpha" values="0 0 0 0 0 0 0 0 0 0 0 0 0 0 0 0 0 0 127 0" result="hardAlpha"/><feOffset dy=".15"/><feComposite in2="hardAlpha" operator="arithmetic" k2="-1" k3="1"/><feColorMatrix values="0 0 0 0 1 0 0 0 0 1 0 0 0 0 1 0 0 0 0.25 0"/><feBlend in2="effect1_innerShadow_747_293245" result="effect2_innerShadow_747_293245"/></filter><filter id="filter1_i_747_293245" x="10.936" y="20" width="16.686" height="12.861" filterUnits="userSpaceOnUse" color-interpolation-filters="sRGB"><feFlood flood-opacity="0" result="BackgroundImageFix"/><feBlend in="SourceGraphic" in2="BackgroundImageFix" result="shape"/><feColorMatrix in="SourceAlpha" values="0 0 0 0 0 0 0 0 0 0 0 0 0 0 0 0 0 0 127 0" result="hardAlpha"/><feOffset dy="-.15"/><feComposite in2="hardAlpha" operator="arithmetic" k2="-1" k3="1"/><feColorMatrix values="0 0 0 0 0 0 0 0 0 0 0 0 0 0 0 0 0 0 0.08 0"/><feBlend in2="shape" result="effect1_innerShadow_747_293245"/></filter></defs></svg>