<svg width="48" height="42" fill="none" xmlns="http://www.w3.org/2000/svg"><path d="M30.769 38.998H17.23l.938-5.418H29.83l.938 5.418z" fill="#AAC2CC"/><path d="M30.77 38.998h-2.75l-.937-5.418h2.749l.937 5.418z" fill="#86A0A8"/><path d="M32.644 38.998H15.356a1.406 1.406 0 000 2.813h17.288a1.406 1.406 0 100-2.813z" fill="#C2E8EF"/><path d="M34.05 40.404c0 .776-.63 1.406-1.406 1.406H29.83a1.407 1.407 0 000-2.812h2.813c.776 0 1.406.63 1.406 1.406z" fill="#9DCFD6"/><path d="M47.297 2.41v28.947a2.224 2.224 0 01-2.223 2.223H2.926a2.223 2.223 0 01-2.223-2.223V2.41C.703 1.183 1.7.187 2.926.187h42.148c1.227 0 2.223.996 2.223 2.223z" fill="#1DBCDE"/><path d="M47.297 2.41v28.947a2.224 2.224 0 01-2.223 2.223H2.926a2.222 2.222 0 01-2.208-1.968h42.011a2.224 2.224 0 002.224-2.224V2.41A2.223 2.223 0 0042.73.187h2.344c1.227 0 2.223.996 2.223 2.223z" fill="#000" fill-opacity=".2"/><path d="M47.297 29.83v1.526a2.224 2.224 0 01-2.223 2.224H2.926a2.223 2.223 0 01-2.223-2.224V29.83h46.594z" fill="#4A555B"/><path d="M47.297 29.83v1.526a2.224 2.224 0 01-2.223 2.224H2.926a2.222 2.222 0 01-2.208-1.969h42.011a2.225 2.225 0 002.18-1.78h2.388z" fill="#2D383D"/><path d="M29.745 14.488h-3.649V7.086h3.65v7.402z" fill="#FFD85C"/><path d="M36.458 14.488h-3.649v-5.39h3.649v5.39z" fill="#FF6248"/><path d="M43.122 14.488h-3.649V5.231h3.65v9.257z" fill="#2CDDDD"/><path d="M38.036 17.273a.703.703 0 00-.627.385l-3.318 6.521-2.8-5.503a.703.703 0 00-1.254 0l-1.518 2.983h-2.423a.703.703 0 000 1.406h2.854a.703.703 0 00.627-.384l1.087-2.136 2.8 5.504a.703.703 0 001.253 0l3.319-6.522 1.604 3.154c.12.236.362.384.627.384h2.855a.703.703 0 100-1.406h-2.424l-2.036-4.001a.703.703 0 00-.626-.385zm-11.939-2.082h3.648a.703.703 0 00.703-.703V7.086a.703.703 0 00-.703-.703h-3.648a.703.703 0 00-.703.703v7.402c0 .388.314.703.703.703zm.703-7.402h2.242v5.996H26.8V7.789zm9.658.606H32.81a.703.703 0 00-.704.703v5.39c0 .389.315.703.704.703h3.648a.703.703 0 00.703-.703v-5.39a.703.703 0 00-.703-.703zm-.703 5.39h-2.242V9.801h2.242v3.984zm7.367 1.406a.703.703 0 00.703-.703V5.23a.703.703 0 00-.703-.703h-3.648a.703.703 0 00-.703.703v9.258c0 .389.314.703.703.703h3.648zm-2.945-9.257h2.242v7.851h-2.242V5.934zM20.803 12.48H4.865a.703.703 0 000 1.407h15.938a.703.703 0 100-1.407zM4.865 17.623h2.852a.703.703 0 000-1.406H4.865a.703.703 0 000 1.406zm15.937-1.406h-9.864a.703.703 0 000 1.406h9.864a.703.703 0 000-1.406zm.001-11.69H4.865a.703.703 0 000 1.407h15.938a.703.703 0 000-1.407zM4.865 9.668h9.883a.703.703 0 100-1.406H4.866a.703.703 0 000 1.406zm15.937-1.406H17.97a.703.703 0 000 1.406h2.832a.703.703 0 000-1.406zm.704 12.348a.703.703 0 00-.703-.704H4.865a.703.703 0 000 1.407h15.938a.703.703 0 00.703-.704zM4.865 23.621a.703.703 0 000 1.406h7.5a.703.703 0 100-1.406h-7.5z" fill="#112E49"/></svg>