<svg width="98" height="36" fill="none" xmlns="http://www.w3.org/2000/svg"><g clip-path="url(#clip0_904_7239)" fill-rule="evenodd" clip-rule="evenodd"><path d="M77.934 12.394c.003.32.076.585.213.797.13.207.315.374.533.48a1.6 1.6 0 001.387 0c.219-.106.404-.273.534-.48.136-.212.21-.478.213-.797a1.493 1.493 0 00-.213-.8 1.329 1.329 0 00-.534-.478 1.572 1.572 0 00-1.387 0 1.326 1.326 0 00-.533.478c-.137.215-.21.48-.213.8zm14.505.262v2.563h-1.84v2.119h1.84v4.298c.003.827.153 1.516.443 2.061.29.548.7.954 1.227 1.218.53.262 1.154.38 1.87.353a6.42 6.42 0 00.697-.058c.221-.03.44-.074.654-.134.227-.065.45-.143.67-.232l-.68-2.099a3.03 3.03 0 01-.583.219 2.344 2.344 0 01-.597.084c-.257 0-.48-.05-.67-.155a1.086 1.086 0 01-.447-.47c-.107-.209-.164-.471-.164-.787v-4.298h2.74v-2.119h-2.72v-2.825l-2.44.262zm-2.432 3.572a5.128 5.128 0 00-1.16-.787 4.765 4.765 0 00-1.254-.41 7.942 7.942 0 00-1.427-.115 6.502 6.502 0 00-1.123.101c-.384.07-.76.18-1.12.33a3.731 3.731 0 00-.97.588 2.681 2.681 0 00-.687.882c-.17.346-.257.746-.26 1.207.003.45.086.84.246 1.173.155.327.378.616.654.848.283.235.6.427.94.568.355.149.724.262 1.1.34.377.077.757.13 1.14.158.467.027.844.077 1.13.155.29.077.5.191.634.336.134.145.2.33.197.558a.926.926 0 01-.257.636c-.167.181-.383.32-.653.417-.28.1-.575.147-.87.138a4.673 4.673 0 01-.897-.115 6.334 6.334 0 01-.954-.292 5.781 5.781 0 01-.877-.437 3.139 3.139 0 01-.673-.549l-1.2 1.756c.36.377.726.682 1.1.915.355.227.737.409 1.137.541a6.03 6.03 0 001.157.256c.387.045.777.066 1.166.064.707-.004 1.324-.091 1.854-.266.53-.172.971-.408 1.324-.71a2.97 2.97 0 00.797-1.042c.177-.393.268-.82.266-1.251-.003-.525-.09-.972-.26-1.335-.17-.364-.4-.663-.69-.895a3.407 3.407 0 00-.98-.545 6.133 6.133 0 00-1.137-.289c-.393-.06-.777-.104-1.154-.124-.626-.04-1.093-.152-1.393-.333-.3-.182-.45-.434-.447-.757.003-.316.157-.558.464-.73.31-.171.753-.259 1.337-.259a3.94 3.94 0 011.31.195c.403.135.78.363 1.13.693l1.36-1.614zm-9.413-1.07v9.989h-2.44v-9.989h2.44zm-6.412-4.116v14.105h2.42V11.042h-2.42zm-3.893 5.529a2.761 2.761 0 00-.77-.858 3.702 3.702 0 00-1.093-.558 4.14 4.14 0 00-1.277-.198 5.953 5.953 0 00-2.017.322 4.577 4.577 0 00-1.634.986 4.502 4.502 0 00-1.093 1.634c-.26.65-.394 1.406-.397 2.264.003.874.131 1.64.383 2.3.254.662.608 1.215 1.064 1.658.453.447.989.781 1.607 1.002a5.85 5.85 0 002.027.326 4.29 4.29 0 00.887-.117c.316-.077.623-.188.916-.33a3.64 3.64 0 00.817-.541c.241-.216.438-.476.58-.767l.12 1.453h2.3v-9.948h-2.34l-.08 1.372zm-2.92.585c.48.003.9.09 1.26.26.346.157.654.39.9.682.24.285.423.614.54.968.24.718.24 1.495 0 2.213a2.972 2.972 0 01-.54.969 2.59 2.59 0 01-.9.682c-.36.169-.78.256-1.26.26a3.178 3.178 0 01-1.14-.206 2.747 2.747 0 01-.927-.595 2.705 2.705 0 01-.624-.952c-.15-.377-.226-.8-.23-1.274a3.47 3.47 0 01.23-1.272c.139-.356.352-.678.624-.945a2.73 2.73 0 01.927-.588 3.18 3.18 0 011.14-.202zm-11.214-4.5v2.563h-1.84v2.119h1.84v4.298c.004.827.154 1.516.444 2.061.29.548.699.954 1.227 1.218.53.262 1.153.38 1.87.353.233-.007.466-.026.697-.058.22-.03.439-.075.653-.134.228-.065.451-.143.67-.232l-.68-2.099a3.03 3.03 0 01-.583.219 2.343 2.343 0 01-.597.084c-.257 0-.48-.05-.67-.155a1.087 1.087 0 01-.447-.47c-.107-.209-.163-.471-.163-.787v-4.298h2.74v-2.119h-2.72v-2.825l-2.44.262zm-2.611 2.502v9.989h-2.441v-9.989h2.44zM41.63 29.303v-5.327c.175.267.4.498.66.68.263.183.55.33.854.433.296.106.602.184.913.233.282.044.568.066.853.067.79-.004 1.498-.138 2.11-.404a4.452 4.452 0 001.568-1.11c.429-.48.759-1.043.97-1.654.22-.63.333-1.308.333-2.038a5.795 5.795 0 00-.363-2.048 4.917 4.917 0 00-1.027-1.652 4.68 4.68 0 00-1.597-1.106c-.62-.262-1.311-.396-2.074-.4a4.178 4.178 0 00-1.16.168 3.942 3.942 0 00-1.12.518c-.362.24-.674.548-.92.908l-.16-1.372h-2.28v14.104h2.44zm3.02-6.295a2.944 2.944 0 01-1.136-.222 2.701 2.701 0 01-.887-.609 2.806 2.806 0 01-.574-.898 2.98 2.98 0 01-.203-1.096 3.118 3.118 0 01.19-1.097c.123-.333.31-.638.55-.898.24-.258.533-.46.88-.608a3.09 3.09 0 011.18-.222c.44.003.834.077 1.18.222.347.148.64.35.88.608.241.26.428.565.55.898.13.351.194.723.191 1.097.002.375-.067.747-.203 1.096a2.75 2.75 0 01-.574.898 2.664 2.664 0 01-.887.609c-.34.144-.72.218-1.136.222zm-9.353-6.437a2.76 2.76 0 00-.77-.858 3.702 3.702 0 00-1.093-.558 4.14 4.14 0 00-1.277-.198 5.953 5.953 0 00-2.017.322 4.579 4.579 0 00-1.634.986 4.502 4.502 0 00-1.093 1.634c-.26.65-.394 1.406-.397 2.264.003.874.131 1.64.383 2.3.254.662.608 1.215 1.064 1.658.453.447.989.781 1.607 1.002a5.85 5.85 0 002.027.326 4.29 4.29 0 00.887-.117c.316-.077.623-.188.916-.33.296-.143.57-.325.817-.541a2.5 2.5 0 00.58-.767l.12 1.453h2.3v-9.948h-2.34l-.08 1.372zm-2.92.585c.48.003.9.09 1.26.26.346.157.654.39.9.682.24.285.423.614.54.968.24.718.24 1.495 0 2.213a2.972 2.972 0 01-.54.969 2.591 2.591 0 01-.9.682c-.36.169-.78.256-1.26.26a3.177 3.177 0 01-1.14-.206 2.747 2.747 0 01-.927-.595 2.706 2.706 0 01-.624-.952c-.15-.377-.226-.8-.23-1.274a3.45 3.45 0 01.23-1.272 2.68 2.68 0 01.624-.945 2.73 2.73 0 01.927-.588 3.18 3.18 0 011.14-.202zM19.43 19.508l3.674-4.42h3.232v.156l-4.449 5.023 4.713 5.232h-3.41l-3.76-4.383v4.383h-2.7V3.064c-7.679.575-13.734 7.043-13.734 14.935 0 4.366 1.854 8.296 4.81 11.034v3.85A18.026 18.026 0 010 17.998C0 7.442 9.116-.869 19.46.073l-.029 19.435zm31.452-7.114c.003.32.077.585.213.797.13.207.315.374.534.48a1.601 1.601 0 001.387 0 1.31 1.31 0 00.533-.48c.137-.212.21-.478.214-.797-.004-.32-.077-.585-.214-.8a1.326 1.326 0 00-.533-.478 1.571 1.571 0 00-1.387 0 1.329 1.329 0 00-.534.478c-.136.215-.21.48-.213.8z" fill="#112E49"/><path d="M32.127 13.895c-1.378-4.888-5.158-8.759-9.97-10.23V.529c6.591 1.65 11.736 6.998 13.147 13.733-.801-.38-2.043-.588-3.136-.367h-.04zM13.19 15.09v17.136c1.502.5 3.073.753 4.655.752 5.2 0 9.774-2.698 12.427-6.78.933.494 2.11.593 3.22.46C30.459 32.225 24.589 36 17.846 36a17.649 17.649 0 01-7.342-1.59c.162-6.428-.01-12.888-.01-19.32h2.697zm-2.94-3.054c.004.353.085.646.236.88.144.23.348.414.59.532a1.768 1.768 0 001.532 0c.242-.119.445-.303.59-.531.15-.235.231-.528.235-.881-.004-.353-.085-.647-.236-.885a1.47 1.47 0 00-.589-.527 1.735 1.735 0 00-1.532 0c-.24.118-.445.3-.59.527-.15.238-.232.532-.236.885z" fill="#4D5A65"/></g><defs><clipPath id="clip0_904_7239"><path fill="#fff" d="M0 0h98v36H0z"/></clipPath></defs></svg>