<svg width="133" height="170" viewBox="0 0 133 170" fill="none" xmlns="http://www.w3.org/2000/svg">
<path d="M118.779 161.5C118.962 161.862 119.248 162.073 119.635 162.134C120.024 162.199 120.452 162.114 120.918 161.878C121.336 161.666 121.631 161.385 121.803 161.034C121.974 160.691 121.975 160.353 121.807 160.022L123.767 159.029C124.028 159.542 124.118 160.077 124.039 160.632C123.957 161.193 123.709 161.724 123.295 162.224C122.877 162.726 122.352 163.138 121.72 163.458C120.623 164.014 119.643 164.215 118.782 164.061C117.92 163.907 117.27 163.398 116.832 162.536C116.618 162.114 116.547 161.657 116.621 161.166C116.69 160.676 116.904 160.204 117.264 159.747C116.648 159.83 116.106 159.754 115.637 159.521C115.171 159.292 114.797 158.902 114.516 158.349C114.082 157.495 114.073 156.646 114.487 155.801C114.899 154.963 115.658 154.263 116.764 153.702C117.456 153.351 118.139 153.153 118.811 153.108C119.486 153.067 120.071 153.178 120.567 153.441C121.06 153.711 121.445 154.118 121.721 154.663L119.748 155.663C119.576 155.323 119.283 155.113 118.869 155.033C118.458 154.957 118.022 155.035 117.56 155.269C117.038 155.534 116.686 155.861 116.505 156.248C116.319 156.638 116.318 157.013 116.502 157.375C116.754 157.871 117.069 158.157 117.448 158.234C117.828 158.314 118.278 158.223 118.796 157.961L119.965 157.368L120.745 158.902L119.536 159.515C118.607 160.003 118.354 160.665 118.779 161.5Z" fill="#002554"/>
<path d="M120.155 150.497L111.904 154.68L111.573 154.027L119.823 149.844L120.155 150.497Z" fill="#002554"/>
<path d="M102.367 159.393C102.514 159.548 102.648 159.756 102.77 160.016C103.102 159.325 103.663 158.866 104.451 158.638C105.197 158.423 105.879 158.459 106.497 158.748C107.111 159.039 107.513 159.512 107.704 160.168C107.939 160.975 107.822 161.68 107.352 162.283C106.877 162.888 106.075 163.356 104.946 163.687L104.01 163.957L104.137 164.393C104.24 164.745 104.413 165 104.657 165.158C104.897 165.317 105.212 165.341 105.601 165.228C105.944 165.129 106.189 164.969 106.339 164.748C106.483 164.529 106.514 164.276 106.43 163.99L108.464 163.403C108.592 163.843 108.575 164.29 108.412 164.744C108.25 165.198 107.95 165.602 107.515 165.956C107.08 166.316 106.553 166.585 105.934 166.764C104.996 167.035 104.183 167.013 103.497 166.698C102.806 166.389 102.337 165.808 102.088 164.955L101.127 161.657C100.912 160.936 100.652 160.419 100.347 160.106L100.312 159.986L102.367 159.393ZM104.461 160.32C104.16 160.407 103.903 160.553 103.688 160.757C103.474 160.966 103.339 161.201 103.283 161.461L103.664 162.769L104.424 162.549C105.442 162.255 105.881 161.747 105.742 161.025L105.714 160.904C105.64 160.65 105.49 160.468 105.264 160.355C105.038 160.242 104.77 160.231 104.461 160.32Z" fill="#002554"/>
<path d="M107.15 156.486L99.4238 158.718L99.2188 158.015L106.945 155.783L107.15 156.486Z" fill="#002554"/>
<path d="M86.6388 165.804C86.5207 164.589 86.7031 163.589 87.186 162.803C87.6645 162.023 88.3729 161.588 89.3111 161.501C90.1084 161.426 90.7795 161.643 91.3244 162.151L90.963 158.433L93.0705 158.236L94.132 169.156L92.1776 169.339L92.0296 168.573C91.5786 169.233 90.9424 169.602 90.1207 169.679C89.1484 169.77 88.3575 169.481 87.748 168.812C87.1384 168.143 86.7722 167.177 86.6494 165.913L86.6388 165.804ZM88.7612 165.76C88.8325 166.494 89.0188 167.048 89.32 167.422C89.6164 167.796 90.0126 167.96 90.5085 167.914C91.1696 167.852 91.5996 167.556 91.7984 167.028L91.4845 163.798C91.1763 163.302 90.6916 163.085 90.0305 163.147C89.0241 163.242 88.601 164.112 88.7612 165.76Z" fill="#002554"/>
<path d="M94.0331 159.735L85.625 160.522L85.5542 159.793L93.9623 159.006L94.0331 159.735Z" fill="#002554"/>
<path d="M76.3183 161.438C77.4763 161.534 78.3921 161.969 79.0656 162.74C79.7343 163.512 80.0217 164.489 79.9279 165.671L79.9117 165.876C79.8487 166.669 79.6393 167.365 79.2833 167.962C78.927 168.564 78.4557 169.01 77.8695 169.299C77.278 169.593 76.6222 169.709 75.9021 169.649C74.8219 169.559 73.9998 169.147 73.4359 168.414C72.8671 167.68 72.6323 166.688 72.7316 165.437L72.7999 164.576L77.8287 164.996C77.8015 164.474 77.63 164.044 77.3141 163.704C76.9933 163.363 76.5702 163.171 76.0447 163.127C75.2321 163.059 74.5737 163.301 74.0696 163.851L73.1253 162.604C73.4771 162.182 73.9331 161.868 74.4932 161.66C75.053 161.457 75.6614 161.383 76.3183 161.438ZM76.0449 167.94C76.4634 167.975 76.8152 167.863 77.1003 167.603C77.3806 167.342 77.5781 166.952 77.6928 166.433L74.7587 166.187L74.7453 166.355C74.718 166.823 74.816 167.194 75.0392 167.468C75.262 167.746 75.5972 167.903 76.0449 167.94Z" fill="#002554"/>
<path d="M80.8673 160.494L72.7876 159.818L72.8455 159.088L80.9252 159.764L80.8673 160.494Z" fill="#002554"/>
<path d="M60.688 165.002L63.8753 165.782L65.3244 159.742L67.3805 160.245L65.5314 167.951L60.2881 166.668L60.688 165.002Z" fill="#002554"/>
<path d="M68.5123 159.015L62.4082 157.521L62.5791 156.809L68.6832 158.303L68.5123 159.015Z" fill="#002554"/>
<path d="M48.9224 162.446L46.979 161.608L50.0883 154.318L52.0318 155.157L50.1122 159.657L54.4662 156.207L56.4165 157.049L53.3071 164.338L51.3569 163.497L53.2736 159.003L48.9224 162.446Z" fill="#002554"/>
<path d="M57.7373 156.024L49.9229 152.653L50.2103 151.979L58.0246 155.351L57.7373 156.024Z" fill="#002554"/>
<path d="M40.5713 150.557C40.2454 150.342 39.9217 150.257 39.6002 150.302C39.2786 150.347 39.016 150.516 38.8123 150.808L37.1564 149.714C37.4551 149.267 37.8479 148.936 38.3347 148.719C38.8187 148.506 39.3389 148.435 39.8951 148.504C40.4445 148.574 40.9718 148.776 41.4769 149.11C42.4219 149.735 42.9705 150.528 43.1226 151.488C43.2721 152.453 42.9986 153.467 42.3021 154.528L42.2258 154.644C41.5561 155.665 40.7509 156.3 39.81 156.551C38.8691 156.801 37.9261 156.614 36.9811 155.989C36.1541 155.443 35.6475 154.768 35.4613 153.966C35.2683 153.166 35.4248 152.371 35.931 151.582L37.5869 152.676C37.37 153.024 37.2938 153.372 37.3582 153.719C37.4199 154.07 37.6178 154.356 37.9518 154.576C38.3632 154.848 38.774 154.903 39.184 154.741C39.5873 154.58 40.0099 154.163 40.4519 153.49L40.5724 153.306C41.0197 152.624 41.2373 152.066 41.2251 151.63C41.2129 151.195 40.9949 150.837 40.5713 150.557Z" fill="#002554"/>
<path d="M45.6586 150.293L39.1328 145.98L39.5346 145.367L46.0604 149.68L45.6586 150.293Z" fill="#002554"/>
<path d="M24.9476 143.751L26.8092 145.481L31.0374 140.912L32.5932 142.358L28.365 146.927L30.1944 148.627L29.0403 149.875L23.7935 144.998L24.9476 143.751Z" fill="#002554"/>
<path d="M35.5838 143.138L29.9883 137.938L30.4857 137.4L36.0812 142.601L35.5838 143.138Z" fill="#002554"/>
<path d="M17.5983 131.074C18.5748 130.342 19.5248 129.977 20.4483 129.98C21.365 129.982 22.1058 130.36 22.6707 131.115C23.1508 131.756 23.316 132.441 23.1664 133.169L26.1545 130.928L27.4234 132.622L18.6465 139.206L17.4698 137.635L18.047 137.11C17.2474 137.069 16.6003 136.718 16.1057 136.058C15.5202 135.276 15.3541 134.451 15.6073 133.584C15.8604 132.717 16.4948 131.902 17.5104 131.14L17.5983 131.074ZM18.7442 132.861C18.1544 133.303 17.7783 133.75 17.6161 134.201C17.451 134.649 17.5177 135.072 17.8162 135.47C18.2143 136.002 18.6911 136.215 19.2466 136.109L21.8422 134.163C22.105 133.642 22.0374 133.116 21.6393 132.584C21.0333 131.775 20.0683 131.867 18.7442 132.861Z" fill="#002554"/>
<path d="M26.6455 134.222L21.583 127.463L22.1689 127.023L27.2314 133.783L26.6455 134.222Z" fill="#002554"/>
<path d="M7.74513 121.735L6.81543 119.833L13.9381 116.359L14.8679 118.261L10.4705 120.405L16.0324 120.643L16.9654 122.551L9.84273 126.025L8.90973 124.117L13.3005 121.975L7.74513 121.735Z" fill="#002554"/>
<path d="M18.6392 122.639L14.9009 114.993L15.5592 114.672L19.2975 122.318L18.6392 122.639Z" fill="#002554"/>
<path d="M5.75493 103.749C6.93269 103.428 7.95113 103.439 8.81013 103.781C9.66313 104.121 10.2147 104.745 10.4647 105.654C10.6771 106.426 10.5802 107.123 10.174 107.744L13.778 106.762L14.3395 108.803L3.75387 111.688L3.23311 109.795L3.96274 109.521C3.23313 109.188 2.75886 108.624 2.53993 107.828C2.28085 106.887 2.42803 106.06 2.98147 105.347C3.53491 104.634 4.42406 104.111 5.64893 103.778L5.75493 103.749ZM6.1681 105.83C5.45673 106.024 4.94287 106.3 4.62652 106.66C4.30887 107.015 4.21612 107.432 4.34825 107.912C4.52443 108.553 4.89052 108.926 5.44654 109.033L8.57703 108.18C9.01243 107.793 9.14203 107.279 8.96593 106.639C8.69773 105.664 7.76513 105.395 6.1681 105.83Z" fill="#002554"/>
<path d="M13.029 110.001L10.7886 101.859L11.4953 101.666L13.7357 109.808L13.029 110.001Z" fill="#002554"/>
<path d="M4.34572 96.5267C3.56178 96.5854 2.85119 96.4868 2.21396 96.231C1.57672 95.9751 1.06793 95.5775 0.68758 95.038C0.30684 94.4936 0.0870202 93.8466 0.0281002 93.0969C-0.0556798 92.0309 0.20227 91.1376 0.80194 90.4169C1.40123 89.6914 2.25777 89.2478 3.37156 89.086L3.91089 89.031C5.12332 88.9402 6.12374 89.2055 6.91216 89.8271C7.69567 90.449 8.13227 91.3295 8.22177 92.4686C8.31127 93.6076 8.01767 94.5453 7.34087 95.2815C6.66364 96.0128 5.69691 96.4255 4.44067 96.5196L4.34572 96.5267ZM4.33325 94.405C5.0831 94.3489 5.64657 94.1647 6.02366 93.8524C6.39587 93.5405 6.56132 93.1218 6.52 92.596C6.47983 92.0849 6.25369 91.7003 5.84159 91.4423C5.42461 91.1847 4.7852 91.0881 3.92336 91.1526C3.18811 91.2077 2.62971 91.394 2.24814 91.7115C1.86657 92.0289 1.69625 92.4481 1.73718 92.9689C1.77774 93.4849 2.01118 93.869 2.43751 94.121C2.85897 94.3734 3.49088 94.4681 4.33325 94.405Z" fill="#002554"/>
<path d="M9.8686 96.598L9.2041 88.1426L9.9345 88.0879L10.599 96.5433L9.8686 96.598Z" fill="#002554"/>
<path d="M7.919 81.7168L0.0444336 80.8263L0.402204 77.5351C0.518814 76.4623 0.797484 75.6609 1.23819 75.1309C1.67891 74.6009 2.25345 74.376 2.96182 74.4561C3.32572 74.4973 3.64003 74.6557 3.90475 74.9313C4.16516 75.2015 4.34793 75.576 4.45306 76.0547C4.62101 75.5037 4.88009 75.0858 5.23028 74.8011C5.57616 74.511 5.97714 74.3917 6.43321 74.4433C7.1658 74.5262 7.6937 74.866 8.0169 75.4627C8.3405 76.0546 8.4454 76.8748 8.3314 77.9233L7.919 81.7168ZM4.88004 79.243L6.4666 79.4224L6.65103 77.7259C6.73176 76.9832 6.51256 76.5825 5.99341 76.5237C5.46455 76.4639 5.15675 76.7878 5.07 77.4955L4.88004 79.243ZM3.46814 79.0833L3.60982 77.7799C3.68033 77.041 3.48269 76.6452 3.01691 76.5925C2.73065 76.5601 2.51579 76.639 2.37233 76.8292C2.2294 77.0145 2.1355 77.3135 2.09065 77.7261L1.96163 78.9129L3.46814 79.0833Z" fill="#002554"/>
<path d="M9.27148 82.8296L10.1889 74.3906L10.9167 74.4729L9.99928 82.9119L9.27148 82.8296Z" fill="#002554"/>
<path d="M11.4663 63.3804C11.256 63.418 11.0091 63.4162 10.7257 63.3751C11.1233 64.0336 11.2035 64.7555 10.966 65.5406C10.7413 66.2838 10.34 66.8348 9.76223 67.1936C9.18583 67.5477 8.57083 67.6244 7.91743 67.4237C7.11463 67.177 6.58825 66.6909 6.33835 65.9654C6.08986 65.2353 6.13359 64.3063 6.46956 63.1785L6.75154 62.2461L6.31746 62.1127C5.9674 62.0051 5.65979 62.0102 5.39463 62.128C5.13088 62.2411 4.94035 62.4916 4.82304 62.8795C4.71986 63.2207 4.72027 63.5145 4.82426 63.761C4.92968 64.0028 5.12474 64.1675 5.40946 64.2549L4.79674 66.281C4.35799 66.1462 3.99291 65.8859 3.70149 65.5001C3.41007 65.1143 3.23425 64.6414 3.17404 64.0815C3.10915 63.5201 3.17 62.931 3.35657 62.314C3.63926 61.3793 4.09899 60.7109 4.73578 60.3089C5.36932 59.9008 6.11083 59.8272 6.96031 60.0882L10.2439 61.097C10.9641 61.3132 11.5382 61.3798 11.9663 61.2967L12.0853 61.3333L11.4663 63.3804ZM9.55233 64.6236C9.64283 64.3245 9.66083 64.0287 9.60643 63.7361C9.54743 63.4422 9.42423 63.2 9.23703 63.0097L7.93473 62.6096L7.70573 63.3667C7.39903 64.3809 7.58583 65.0283 8.26623 65.3088L8.38313 65.3524C8.63513 65.4298 8.86973 65.4048 9.08683 65.2774C9.30383 65.15 9.45903 64.9321 9.55233 64.6236Z" fill="#002554"/>
<path d="M11.3022 68.9848L13.6302 61.2871L14.3303 61.5022L12.0024 69.1999L11.3022 68.9848Z" fill="#002554"/>
<path d="M17.9298 48.7034L16.9482 50.5869L14.2517 49.1684L13.0365 51.5001L15.733 52.9187L14.7547 54.7958L7.74121 51.1061L8.71951 49.229L11.5327 50.709L12.7479 48.3772L9.93471 46.8973L10.9163 45.0137L17.9298 48.7034Z" fill="#002554"/>
<path d="M15.6753 56.1977L19.6086 48.6504L20.2568 48.9914L16.3235 56.5387L15.6753 56.1977Z" fill="#002554"/>
<path d="M18.5024 40.3741C17.8879 39.8838 17.4343 39.3281 17.1416 38.7072C16.8489 38.0863 16.7469 37.4489 16.8357 36.7951C16.9274 36.1374 17.207 35.5141 17.6744 34.925C18.3391 34.0874 19.1366 33.6087 20.0669 33.489C21.0001 33.3654 21.93 33.6233 22.8563 34.2626L23.2891 34.5892C24.2394 35.3476 24.7917 36.2226 24.9461 37.2142C25.0967 38.2027 24.8169 39.1444 24.1067 40.0395C23.3965 40.9345 22.5427 41.4213 21.5453 41.5C20.5509 41.5748 19.5614 41.2193 18.5768 40.4335L18.5024 40.3741ZM19.9383 38.8119C20.526 39.281 21.0644 39.5295 21.5534 39.5574C22.0386 39.5822 22.445 39.3881 22.7728 38.975C23.0915 38.5734 23.1877 38.1379 23.0615 37.6686C22.9314 37.1962 22.5286 36.6905 21.8531 36.1514C21.2768 35.6915 20.7408 35.448 20.2449 35.4209C19.7491 35.3937 19.3388 35.5848 19.014 35.9941C18.6923 36.3995 18.6018 36.8396 18.7425 37.3142C18.8795 37.7858 19.278 38.285 19.9383 38.8119Z" fill="#002554"/>
<path d="M22.5015 44.1849L27.7734 37.541L28.3459 37.9978L23.0739 44.6417L22.5015 44.1849Z" fill="#002554"/>
<path d="M30.437 34.8454L33.2003 32.2031L33.7056 32.7333L30.9423 35.3756L30.437 34.8454Z" fill="#002554"/>
<path d="M35.8595 27.9568L31.2065 21.5417L33.8853 19.5965C34.7584 18.9624 35.5399 18.6302 36.2297 18.5999C36.9196 18.5697 37.4738 18.8431 37.8923 19.4202C38.1073 19.7166 38.2021 20.0551 38.1765 20.4358C38.1521 20.8096 37.9981 21.196 37.7145 21.595C38.2358 21.3492 38.7201 21.26 39.1672 21.3276C39.6154 21.3883 39.9742 21.6044 40.2437 21.976C40.6766 22.5728 40.7811 23.1909 40.5572 23.8302C40.3372 24.4667 39.8005 25.0948 38.9471 25.7146L35.8595 27.9568ZM35.6414 24.051L36.5788 25.3435L37.9597 24.3407C38.5642 23.9017 38.713 23.4707 38.4063 23.0478C38.0938 22.617 37.6463 22.6071 37.0637 23.0181L35.6414 24.051ZM34.8071 22.9008L35.8679 22.1304C36.4627 21.6864 36.6225 21.2746 36.3473 20.8952C36.1782 20.662 35.9748 20.5562 35.7372 20.5779C35.5035 20.5967 35.2188 20.7281 34.8829 20.972L33.9169 21.6735L34.8071 22.9008Z" fill="#002554"/>
<path d="M35.9492 29.7029L42.8179 24.7148L43.2479 25.3077L36.3792 30.2958L35.9492 29.7029Z" fill="#002554"/>
<path d="M46.2007 22.7784L49.5696 20.9707L49.9163 21.6159L46.5474 23.4236L46.2007 22.7784Z" fill="#002554"/>
<path d="M54.5766 5.69808L59.4973 12.2711L59.796 4.08204L62.5527 3.22852L65.7294 13.4084L63.6234 14.0605L62.755 11.2778L61.466 6.40951L61.0837 14.8468L59.6424 15.2931L54.5347 8.56324L56.2413 13.2946L57.1096 16.0773L55.0107 16.7272L51.834 6.54727L54.5766 5.69808Z" fill="#002554"/>
<path d="M54.5371 18.4058L67.0889 14.5195L67.307 15.2187L54.7553 19.105L54.5371 18.4058Z" fill="#002554"/>
<path d="M80.694 2.06462L80.8258 2.06061C81.6603 2.03526 82.4207 2.19779 83.107 2.5482C83.7979 2.89359 84.3429 3.39973 84.7419 4.06663C85.141 4.73352 85.3553 5.49885 85.3849 6.3626C85.4287 7.64114 85.0545 8.69787 84.2623 9.53287C83.475 10.3678 82.3859 10.8063 80.995 10.8486L81.0416 12.2101L78.9259 12.2743L78.8792 10.9128L78.7401 10.9171C77.8958 10.9427 77.1282 10.7853 76.4375 10.4448C75.7465 10.0994 75.2019 9.60297 74.8035 8.95557C74.41 8.30807 74.1988 7.56219 74.1699 6.71796C74.1406 5.86397 74.2999 5.09463 74.6477 4.40992C74.9956 3.72522 75.4974 3.18484 76.1532 2.78877C76.8088 2.38782 77.5488 2.16994 78.3733 2.13512L78.5783 2.12889L78.5306 0.738108L80.6463 0.673828L80.694 2.06462ZM78.5016 3.95578C77.7744 3.97787 77.2088 4.22465 76.8048 4.69612C76.4057 5.16743 76.2204 5.82033 76.249 6.6548C76.2757 7.43559 76.5042 8.04417 76.9345 8.48047C77.3645 8.91197 77.9554 9.11627 78.707 9.09347L78.8168 9.09017L78.6407 3.95155L78.5016 3.95578ZM80.7564 3.88728L80.9325 9.02587L81.0789 9.02137C81.7964 8.99957 82.3524 8.75797 82.747 8.29657C83.1463 7.83017 83.3325 7.20655 83.3058 6.42576C83.2779 5.61081 83.0534 4.97769 82.6324 4.5264C82.2115 4.07511 81.6227 3.86096 80.8662 3.88394L80.7564 3.88728Z" fill="#002554"/>
<path d="M73.8657 13.4538L86.1061 13.082L86.1312 13.8139L73.8908 14.1858L73.8657 13.4538Z" fill="#002554"/>
<path d="M95.4729 1.98828L97.621 2.4482L95.7975 11.1582L99.973 12.0519L101.797 3.34197L103.953 3.80342L102.129 12.5134L103.554 12.8185L102.522 17.0317L100.517 16.6024L101.044 14.0862L93.2871 12.4259L95.4729 1.98828Z" fill="#002554"/>
<path d="M92.1486 13.6816L103.279 16.064L103.129 16.7808L91.9985 14.3985L92.1486 13.6816Z" fill="#002554"/>
<path d="M116.319 17.4355L112.816 15.8319L111.244 17.5287L109.119 16.5562L117.128 8.49414L118.979 9.34154L118.21 20.7175L116.085 19.745L116.319 17.4355ZM114.09 14.4576L116.514 15.5672L116.942 11.3731L114.09 14.4576Z" fill="#002554"/>
<path d="M108.469 17.8691L117.645 22.0699L117.343 22.7371L108.166 18.5363L108.469 17.8691Z" fill="#002554"/>
<path fill-rule="evenodd" clip-rule="evenodd" d="M73.4551 20.2029C73.0341 20.2908 71.4998 20.6006 69.994 20.8768C68.5184 21.1514 65.7298 21.8848 63.8475 22.5039C50.2742 26.8274 38.8005 35.0623 30.5667 46.3727C22.6151 57.2813 18.321 69.4378 17.4376 83.3396C16.4628 99.4693 21.8713 116.633 31.9628 129.318C43.5562 143.886 59.5114 152.544 77.8877 154.303C82.3202 154.703 90.938 154.325 95.0307 153.52C106.918 151.19 117.586 146.028 126.266 138.43C128.733 136.264 132.797 132.143 132.779 131.821C132.767 131.596 116.278 116.493 113.825 114.469L112.678 113.501L110.103 115.93C103.249 122.429 95.7128 125.904 86.5755 126.794C79.2525 127.488 73.3883 126.49 66.7753 123.471C48.8699 115.308 39.479 95.3992 44.4201 76.1514C47.1072 65.7585 53.2442 57.2696 62.0988 51.7564C67.9832 48.1141 73.5751 46.3564 80.643 45.9995C91.3781 45.4084 100.216 48.4976 108.889 55.8166L111.951 58.4187L120.51 48.6044C125.203 43.1914 129.092 38.6601 129.145 38.5283C129.247 38.1684 123.797 33.6039 120.478 31.3059C111.435 25.006 101.618 21.2617 90.4694 19.8459C87.7137 19.5143 75.3161 19.7459 73.4551 20.2029ZM86.2929 28.0335C93.0977 28.432 100.156 30.1375 106.235 32.831C109.508 34.2939 117.083 38.7738 117.582 39.5516C117.716 39.7699 116.469 41.4493 114.496 43.7486L111.178 47.6042L109.249 46.2605C99.7941 39.6614 87.2267 36.7773 75.9783 38.5565C73.8962 38.8644 72.0872 39.1573 71.9374 39.1977C71.6072 39.2805 68.7917 30.608 68.9438 30.0518C69.0475 29.724 70.6979 29.3109 74.9743 28.5279C77.0207 28.1252 83.5156 27.8643 86.2929 28.0335ZM62.8689 36.8944C63.6461 39.4288 64.2238 41.6524 64.1397 41.7859C64.0577 41.9513 63.4973 42.2722 62.8727 42.532C62.2768 42.7582 60.3884 43.8286 58.6805 44.857C46.0228 52.5773 37.9664 64.9088 35.9725 79.6453C35.7053 81.4318 35.5375 83.3738 35.5673 83.92L35.6217 84.9159L30.618 85.1914C27.1306 85.3835 25.609 85.3705 25.595 85.1136C25.5161 83.6679 26.2711 77.4411 26.8729 74.5403C30.0535 59.2557 39.1472 45.8682 52.3268 37.1204C54.0294 35.9957 60.8255 32.3355 61.3391 32.2749C61.4302 32.2699 62.1221 34.358 62.8692 36.8943L62.8689 36.8944ZM36.2703 95.1251C37.109 100.459 39.8387 107.557 42.872 112.416C48.5344 121.415 57.7977 128.959 66.8759 132.003C67.6819 132.281 68.3345 132.535 68.338 132.599C68.3416 132.663 67.9869 134.519 67.5297 136.735C67.0711 138.919 66.5943 141.329 66.4528 142.078L66.1909 143.413L64.2367 142.715C59.3347 140.956 54.1948 138.178 49.4477 134.799C46.7255 132.855 41.1063 127.43 38.7883 124.529C32.1605 116.228 27.5326 105.561 26.2647 95.7084L25.9424 93.1488L30.9209 92.971L35.8997 92.7939L36.2703 95.1251ZM116.867 127.833C119.077 129.87 120.907 131.637 120.914 131.766C120.94 132.248 115.323 136.327 111.755 138.391C107.334 140.987 103.141 142.731 98.0201 144.206C94.3943 145.211 93.6094 145.318 86.8487 145.723C80.9957 146.045 78.9873 146.027 76.567 145.709C74.0823 145.33 73.5868 145.164 73.6852 144.74C73.7584 144.414 74.2658 142.002 74.7872 139.299C75.341 136.627 75.7964 134.379 75.8247 134.345C75.8837 134.31 76.5276 134.403 77.2676 134.588C78.129 134.766 81.29 134.721 85.4748 134.491C91.3886 134.165 92.6871 133.997 95.2314 133.244C101.039 131.539 107.407 128.386 110.988 125.45C111.804 124.793 112.534 124.237 112.653 124.199C112.742 124.162 114.657 125.796 116.867 127.833Z" fill="#007680"/>
<path fill-rule="evenodd" clip-rule="evenodd" d="M93.6368 63.2281C84.0801 59.3525 72.7043 62.121 65.3981 70.1316C63.3802 72.3222 60.7843 76.9887 59.9449 79.8715C55.8674 93.7614 63.7197 108.135 77.2538 111.607C92.6841 115.545 107.827 104.381 109.085 88.1888C109.741 79.5738 105.912 71.3373 98.7758 66.0471C96.5056 64.3805 96.4527 64.3511 93.6368 63.2281ZM96.4051 73.7456C100.939 78.2157 102.808 85.2897 101.113 91.5235C100.507 93.7998 98.4738 97.4541 96.9322 99.1001C92.5442 103.801 85.5728 105.963 79.5718 104.505C77.3101 103.947 73.1154 101.616 71.4214 99.9761C67.0796 95.7229 65.2388 88.8484 66.7499 82.6959C67.467 79.7825 70.3487 75.1643 72.6651 73.2497C77.0663 69.5864 83.0549 68.1303 88.5575 69.4216C90.8086 69.9363 94.7377 72.1197 96.4051 73.7456Z" fill="#002554"/>
</svg>
