<svg width="48" height="45" fill="none" xmlns="http://www.w3.org/2000/svg"><path d="M5.625 8.438h28.313v8.437H5.625V8.437z" fill="#4D5A65"/><path d="M19.781 8.438h14.157v8.437H19.78V8.437z" fill="#112E49"/><path d="M5.625 22.5h28.313v8.438H5.625V22.5z" fill="#4D5A65"/><path d="M19.781 22.5h14.157v8.438H19.78V22.5z" fill="#112E49"/><path d="M38.156 0H1.406C.62 0 0 .619 0 1.406v8.438c0 .787.619 1.406 1.406 1.406h36.75c.788 0 1.407-.619 1.407-1.406V1.406C39.563.62 38.944 0 38.156 0z" fill="url(#paint0_linear_747_297752)"/><path d="M39.563 1.406v8.438c0 .787-.619 1.406-1.407 1.406H19.781V0h18.375c.788 0 1.407.619 1.407 1.406z" fill="#000" fill-opacity=".2"/><path d="M8.438 5.625a1.406 1.406 0 11-2.813 0 1.406 1.406 0 012.813 0zm5.625 0a1.406 1.406 0 11-2.813 0 1.406 1.406 0 012.813 0z" fill="#25D9F8"/><path d="M38.156 14.063H1.406C.62 14.063 0 14.68 0 15.469v8.437c0 .788.619 1.407 1.406 1.407h36.75c.788 0 1.407-.62 1.407-1.407V15.47c0-.788-.619-1.406-1.407-1.406z" fill="url(#paint1_linear_747_297752)"/><path d="M39.563 15.469v8.437c0 .788-.619 1.407-1.407 1.407H19.781v-11.25h18.375c.788 0 1.407.618 1.407 1.406z" fill="#000" fill-opacity=".2"/><path d="M8.438 19.688a1.406 1.406 0 11-2.813 0 1.406 1.406 0 012.813 0zm5.625 0a1.406 1.406 0 11-2.813 0 1.406 1.406 0 012.813 0z" fill="#25D9F8"/><path d="M38.156 28.125H1.406C.62 28.125 0 28.744 0 29.531v8.438c0 .787.619 1.406 1.406 1.406h36.75c.788 0 1.407-.619 1.407-1.406V29.53c0-.787-.619-1.406-1.407-1.406z" fill="url(#paint2_linear_747_297752)"/><path d="M39.563 29.531v8.438c0 .787-.619 1.406-1.407 1.406H19.781v-11.25h18.375c.788 0 1.407.619 1.407 1.406z" fill="#000" fill-opacity=".2"/><path d="M8.438 33.75a1.406 1.406 0 11-2.813 0 1.406 1.406 0 012.813 0zm5.625 0a1.406 1.406 0 11-2.813 0 1.406 1.406 0 012.813 0z" fill="#25D9F8"/><path d="M47.044 22.584l-8.438-2.812a1.17 1.17 0 00-.45-.084c-.169 0-.31.028-.45.084l-8.437 2.812a1.368 1.368 0 00-.956 1.322v7.988c0 5.906 3.768 11.165 9.393 13.021.14.057.31.085.45.085s.31-.028.45-.085C44.231 43.06 48 37.8 48 31.894v-7.988c0-.619-.394-1.153-.956-1.322z" fill="url(#paint3_linear_747_297752)"/><path d="M31.125 31.888V24.92l5.625-1.875v18.393a10.91 10.91 0 01-5.625-9.55zm14.063.001a10.91 10.91 0 01-5.626 9.55V23.044l5.626 1.875v6.968z" fill="#14A84F"/><defs><linearGradient id="paint0_linear_747_297752" x1="19.781" y1="0" x2="19.781" y2="11.25" gradientUnits="userSpaceOnUse"><stop stop-color="#B6B6B6"/><stop offset="1" stop-color="#8B8B8B"/></linearGradient><linearGradient id="paint1_linear_747_297752" x1="19.781" y1="14.063" x2="19.781" y2="25.313" gradientUnits="userSpaceOnUse"><stop stop-color="#B6B6B6"/><stop offset="1" stop-color="#8B8B8B"/></linearGradient><linearGradient id="paint2_linear_747_297752" x1="19.781" y1="28.125" x2="19.781" y2="39.375" gradientUnits="userSpaceOnUse"><stop stop-color="#B6B6B6"/><stop offset="1" stop-color="#8B8B8B"/></linearGradient><linearGradient id="paint3_linear_747_297752" x1="38.156" y1="19.688" x2="38.156" y2="45" gradientUnits="userSpaceOnUse"><stop stop-color="#43D26B"/><stop offset="1" stop-color="#1EB463"/></linearGradient></defs></svg>