<svg width="48" height="47" fill="none" xmlns="http://www.w3.org/2000/svg"><path d="M38.07 41.38H6.62V3.31A3.31 3.31 0 019.931 0h34.76a3.31 3.31 0 00-3.311 3.31v34.76a3.31 3.31 0 01-3.31 3.31z" fill="url(#paint0_linear_747_297818)"/><path d="M7.448 41.38h30.62a3.31 3.31 0 003.311-3.31V7.45L7.45 41.38z" fill="#000" fill-opacity=".2"/><path d="M48 4.966h-6.621V3.31a3.31 3.31 0 016.62 0v1.656z" fill="url(#paint1_linear_747_297818)"/><path d="M0 36.414v1.655a3.31 3.31 0 003.31 3.31h34.76a3.31 3.31 0 01-3.31-3.31v-1.655H0z" fill="url(#paint2_linear_747_297818)"/><path d="M29.814 33.932v12.413l3.31-2.482 3.31 2.482V33.932h-6.62z" fill="url(#paint3_linear_747_297818)"/><path d="M29.814 33.932v2.029c.495.37 1.156.432 1.71.158a1.686 1.686 0 003.178 0 1.645 1.645 0 001.732-.172v-2.015h-6.62z" fill="#000" fill-opacity=".2"/><path d="M36.949 29.03a1.688 1.688 0 00-2.247-2.252 1.685 1.685 0 00-3.176 0 1.688 1.688 0 00-2.246 2.251 1.69 1.69 0 000 3.183 1.688 1.688 0 002.245 2.251 1.685 1.685 0 003.177 0 1.688 1.688 0 002.247-2.251 1.69 1.69 0 000-3.183z" fill="#FFC24F"/><path d="M36.949 29.03a1.656 1.656 0 00-.138-1.684 10.654 10.654 0 01-6.572 7.189c.42.152.885.126 1.286-.071a1.685 1.685 0 003.178 0 1.687 1.687 0 002.245-2.251 1.69 1.69 0 000-3.183z" fill="#FFBA38"/><path d="M26.482 5.793h3.31v1.655h-3.31V5.793zm-8.275 0h6.62v1.655h-6.62V5.793zm-2.483 4.139h16.551v1.655H15.724V9.932zm-4.138 4.964h4.138v1.656h-4.138v-1.655zm0 4.139h9.103v1.655h-9.103v-1.655zm5.793-4.139h19.034v1.656H17.38v-1.655zm4.966 4.139h14.069v1.655h-14.07v-1.655zm-10.759 4.137h16.552v1.655H11.586v-1.655zm0 4.138h14.069v1.656h-14.07V27.31z" fill="#fff"/><defs><linearGradient id="paint0_linear_747_297818" x1="25.656" y1="0" x2="25.656" y2="41.379" gradientUnits="userSpaceOnUse"><stop stop-color="#4396D2"/><stop offset="1" stop-color="#1E6CB4"/></linearGradient><linearGradient id="paint1_linear_747_297818" x1="44.689" y1="0" x2="44.689" y2="4.966" gradientUnits="userSpaceOnUse"><stop stop-color="#4396D2"/><stop offset="1" stop-color="#1E6CB4"/></linearGradient><linearGradient id="paint2_linear_747_297818" x1="19.035" y1="36.414" x2="19.035" y2="41.38" gradientUnits="userSpaceOnUse"><stop stop-color="#4396D2"/><stop offset="1" stop-color="#1E6CB4"/></linearGradient><linearGradient id="paint3_linear_747_297818" x1="33.124" y1="33.932" x2="33.124" y2="46.345" gradientUnits="userSpaceOnUse"><stop stop-color="#43D26B"/><stop offset="1" stop-color="#1EB463"/></linearGradient></defs></svg>