<svg width="20" height="18" fill="none" xmlns="http://www.w3.org/2000/svg"><path fill-rule="evenodd" clip-rule="evenodd" d="M7.875 8.25a.75.75 0 01.75-.75h2.25a.75.75 0 010 1.5h-2.25a.75.75 0 01-.75-.75z" fill="#112E49"/><path fill-rule="evenodd" clip-rule="evenodd" d="M19.4 8.466a.75.75 0 01-.274 1.025 18.667 18.667 0 01-9.376 2.51A18.667 18.667 0 01.375 9.49a.75.75 0 01.75-1.297A17.167 17.167 0 009.749 10.5h.003a17.167 17.167 0 008.624-2.307.75.75 0 011.024.273zM5.909.659A2.25 2.25 0 017.499 0H12a2.25 2.25 0 012.25 2.25v1.5a.75.75 0 01-1.5 0v-1.5A.75.75 0 0012 1.5H7.5a.75.75 0 00-.75.75v1.5a.75.75 0 11-1.5 0v-1.5c0-.597.238-1.169.66-1.591z" fill="#112E49"/><path fill-rule="evenodd" clip-rule="evenodd" d="M0 4.5A1.5 1.5 0 011.5 3H18a1.5 1.5 0 011.5 1.5v12A1.5 1.5 0 0118 18H1.5A1.5 1.5 0 010 16.5v-12zm18 0H1.5v12H18v-12z" fill="#112E49"/><path opacity=".36" d="M9.75 11.25a17.916 17.916 0 01-9-2.407V16.5a.75.75 0 00.75.75H18a.75.75 0 00.75-.75V8.842a17.916 17.916 0 01-9 2.408z" fill="url(#paint0_linear_955_12041)"/><defs><linearGradient id="paint0_linear_955_12041" x1="9.75" y1="8.842" x2="9.75" y2="17.25" gradientUnits="userSpaceOnUse"><stop stop-color="#4396D2"/><stop offset="1" stop-color="#1E6CB4"/></linearGradient></defs></svg>