<svg width="15" height="9" fill="none" xmlns="http://www.w3.org/2000/svg"><path fill-rule="evenodd" clip-rule="evenodd" d="M.124 4.67a.5.5 0 01.705-.046l4 3.5a.5.5 0 11-.658.752l-4-3.5a.5.5 0 01-.047-.705z" fill="#1C6FBC"/><path fill-rule="evenodd" clip-rule="evenodd" d="M4.876.17a.5.5 0 01-.047.706l-4 3.5a.5.5 0 01-.658-.752l4-3.5a.5.5 0 01.705.047zm10 4.5a.5.5 0 01-.047.706l-4 3.5a.5.5 0 01-.658-.752l4-3.5a.5.5 0 01.705.047z" fill="#1C6FBC"/><path fill-rule="evenodd" clip-rule="evenodd" d="M10.124.17a.5.5 0 01.705-.046l4 3.5a.5.5 0 01-.658.752l-4-3.5a.5.5 0 01-.047-.705zM7.5 3a1.5 1.5 0 100 3 1.5 1.5 0 000-3zM5 4.5a2.5 2.5 0 115 0 2.5 2.5 0 01-5 0z" fill="#1C6FBC"/><path fill-rule="evenodd" clip-rule="evenodd" d="M0 1a1 1 0 011-1h13a1 1 0 011 1v7a1 1 0 01-1 1H1a1 1 0 01-1-1V1zm14 0H1v7h13V1z" fill="#1C6FBC"/></svg>