<svg width="15" height="15" fill="none" xmlns="http://www.w3.org/2000/svg"><path fill-rule="evenodd" clip-rule="evenodd" d="M7.25 5.75a1.5 1.5 0 100 3 1.5 1.5 0 000-3zm-2.5 1.5a2.5 2.5 0 115 0 2.5 2.5 0 01-5 0zm6.25 0a.5.5 0 01.5-.5H14a.5.5 0 010 1h-2.5a.5.5 0 01-.5-.5zM7.25 11a.5.5 0 01.5.5V14a.5.5 0 01-1 0v-2.5a.5.5 0 01.5-.5zM0 7.25a.5.5 0 01.5-.5H3a.5.5 0 010 1H.5a.5.5 0 01-.5-.5zM7.25 0a.5.5 0 01.5.5V3a.5.5 0 01-1 0V.5a.5.5 0 01.5-.5z" fill="#1C6FBC"/><path fill-rule="evenodd" clip-rule="evenodd" d="M7.25 2.25a5 5 0 100 10 5 5 0 000-10zm-6 5a6 6 0 1112 0 6 6 0 01-12 0z" fill="#1C6FBC"/></svg>