<svg width="48" height="44" viewBox="0 0 48 44" fill="none" xmlns="http://www.w3.org/2000/svg">
<path d="M15.6561 28.4883C15.4232 28.4883 15.2344 28.6771 15.2344 28.91V32.5655C15.2344 32.7984 15.4232 32.987 15.6561 32.987H29.7404C29.9733 32.987 30.1619 32.7984 30.1619 32.5655V28.91C30.1619 28.6771 29.9733 28.4883 29.7404 28.4883H15.6561Z" fill="#263238"/>
<path d="M34.7135 15.8495H40.1916C40.4243 15.8495 40.6131 15.6607 40.6131 15.428V8.13295C40.6131 7.96196 40.5099 7.80797 40.3519 7.74302C39.2238 7.27943 38.4289 6.16953 38.4289 4.87548C38.4289 4.7049 38.4427 4.53776 38.4692 4.37446C38.5 4.18587 38.3998 4.00011 38.2252 3.922C37.7116 3.69233 37.1509 3.57031 36.5776 3.57031C29.8621 3.57031 15.5342 3.57031 8.81872 3.57031C7.74847 3.57031 6.72194 3.99545 5.96514 4.75225C5.20835 5.50905 4.7832 6.53558 4.7832 7.60582V12.7688C4.7832 12.9398 4.8864 13.0938 5.04444 13.1588C6.17235 13.6224 6.96739 14.7323 6.96739 16.0263C6.96739 17.3204 6.17235 18.4303 5.04444 18.8938C4.8864 18.959 4.7832 19.113 4.7832 19.2838V25.2955C4.7832 26.3657 5.20835 27.3922 5.96514 28.149C6.72194 28.9058 7.74847 29.331 8.81872 29.331H31.8549C32.0878 29.331 32.2766 29.1422 32.2766 28.9095V18.2866C32.2766 16.9405 33.3677 15.8495 34.7135 15.8495Z" fill="#3197F5"/>
<path d="M29.7383 29.33H31.8563C32.0892 29.33 32.278 29.1412 32.278 28.9085V18.2857C32.278 17.4961 32.6534 16.7943 33.2353 16.3489C33.159 16.3346 33.0866 16.332 33.0184 16.3419C31.2067 16.6035 29.7383 18.1667 29.7383 19.8335V29.33Z" fill="#AAD5EF"/>
<path d="M32.2766 22.3613H4.7832V25.2962C4.7832 26.3665 5.20835 27.393 5.96514 28.1498C6.72194 28.9066 7.74847 29.3317 8.81872 29.3317H31.8549C32.0878 29.3317 32.2766 29.143 32.2766 28.9102V22.3613Z" fill="url(#paint0_linear_747_296359)"/>
<path d="M29.7383 22.3613V29.3317H31.8563C32.0892 29.3317 32.278 29.143 32.278 28.9102V22.3613H29.7383Z" fill="#0D4B82"/>
<path d="M19.8019 9.73977C19.6801 9.66449 19.5287 9.6564 19.3994 9.71791C19.2703 9.77943 19.1811 9.90205 19.1627 10.0441C19.0461 10.9383 18.5475 11.7129 17.8364 12.1996C17.7187 12.2801 17.6497 12.4149 17.6531 12.5575C17.6566 12.7002 17.7318 12.8313 17.8532 12.9062L23.5363 16.4117C23.6626 16.4894 23.8202 16.4953 23.9517 16.4271C24.0833 16.3589 24.1693 16.2266 24.1784 16.0789C24.2346 15.1687 24.6847 14.3643 25.3599 13.8342C25.4684 13.749 25.5283 13.6162 25.5204 13.4786C25.5127 13.3412 25.4382 13.2162 25.3208 13.1437L19.8019 9.73977ZM12.9968 9.82536C12.9883 9.6825 12.908 9.5538 12.7835 9.48339C12.6591 9.41276 12.5073 9.41034 12.3804 9.47671L5.85517 12.8898C5.72849 12.9562 5.64411 13.0818 5.63076 13.2241C5.6174 13.3661 5.6769 13.5055 5.789 13.594C6.4604 14.1251 6.9072 14.9283 6.96203 15.8364C6.97053 15.9791 7.05107 16.1078 7.17552 16.1782C7.29996 16.2484 7.45152 16.2509 7.5782 16.1847L14.1002 12.7732C14.2267 12.7071 14.3111 12.5814 14.3246 12.4393C14.338 12.2973 14.2787 12.1581 14.167 12.0694C13.4962 11.5373 13.0502 10.7337 12.9968 9.82536ZM38.6069 5.91126C38.5612 5.78256 38.4557 5.68382 38.3242 5.64679C38.1927 5.60955 38.0514 5.63849 37.945 5.72429L28.9318 12.9974C28.8268 13.0822 28.7687 13.2119 28.7754 13.3465C28.7821 13.4811 28.8527 13.6045 28.9656 13.6781C29.6921 14.1541 30.2073 14.9267 30.3376 15.8231C30.3594 15.973 30.4598 16.0997 30.6008 16.1549C30.7419 16.2104 30.9017 16.1857 31.0195 16.0906L40.4689 8.46535C40.5851 8.37166 40.643 8.22354 40.6213 8.07582C40.5995 7.92811 40.5013 7.80305 40.3629 7.7468C39.5466 7.41494 38.9031 6.74515 38.6069 5.91126Z" fill="#1DBCDE"/>
<path d="M17.957 27.2694C18.7433 27.2694 19.3807 26.6319 19.3807 25.8456C19.3807 25.0593 18.7433 24.4219 17.957 24.4219C17.1706 24.4219 16.5332 25.0593 16.5332 25.8456C16.5332 26.6319 17.1706 27.2694 17.957 27.2694Z" fill="#56C2EF"/>
<path d="M22.6991 27.2694C23.4855 27.2694 24.1229 26.6319 24.1229 25.8456C24.1229 25.0593 23.4855 24.4219 22.6991 24.4219C21.9128 24.4219 21.2754 25.0593 21.2754 25.8456C21.2754 26.6319 21.9128 27.2694 22.6991 27.2694Z" fill="#E57373"/>
<path d="M27.4413 27.2694C28.2276 27.2694 28.8651 26.6319 28.8651 25.8456C28.8651 25.0593 28.2276 24.4219 27.4413 24.4219C26.655 24.4219 26.0176 25.0593 26.0176 25.8456C26.0176 26.6319 26.655 27.2694 27.4413 27.2694Z" fill="#66BC6A"/>
<path d="M31.939 37.4713C32.1352 37.4313 32.2763 37.2587 32.2763 37.0583V32.6098C32.2763 32.4095 32.1352 32.2369 31.939 32.1968C31.7647 32.1612 31.5842 32.1426 31.3993 32.1426H13.9964C12.5107 32.1426 11.3047 33.3486 11.3047 34.8341C11.3047 36.3195 12.5107 37.5256 13.9964 37.5256H31.3993C31.5842 37.5256 31.7647 37.5069 31.939 37.4713Z" fill="#37474F"/>
<path d="M29.7383 32.1426V37.5256H31.401C31.586 37.5256 31.7665 37.5069 31.9407 37.4713C32.137 37.4313 32.278 37.2587 32.278 37.0583V32.6098C32.278 32.4095 32.137 32.2369 31.9407 32.1968C31.7665 32.1612 31.586 32.1426 31.401 32.1426H29.7383Z" fill="#223A44"/>
<path d="M48.0009 18.286C48.0009 16.4743 46.5324 15.0059 44.7208 15.0059H34.7157C32.9042 15.0059 31.4355 16.4743 31.4355 18.286V39.7254C31.4355 41.5369 32.9042 43.0055 34.7157 43.0055H44.7208C46.5324 43.0055 48.0009 41.5369 48.0009 39.7254V18.286Z" fill="#E2F4FD"/>
<path d="M27.272 12.3313C25.0963 12.3313 23.33 14.0976 23.33 16.2731C23.33 18.4486 25.0963 20.2149 27.272 20.2149C29.4475 20.2149 31.2138 18.4486 31.2138 16.2731C31.2138 14.0976 29.4475 12.3313 27.272 12.3313ZM3.86976 12.0844C1.69407 12.0844 -0.0722656 13.8507 -0.0722656 16.0262C-0.0722656 18.2019 1.69407 19.9681 3.86976 19.9681C6.04525 19.9681 7.81158 18.2019 7.81158 16.0262C7.81158 13.8507 6.04525 12.0844 3.86976 12.0844ZM16.0906 5.69899C13.9151 5.69899 12.1488 7.46532 12.1488 9.64081C12.1488 11.8165 13.9151 13.5826 16.0906 13.5826C18.2663 13.5826 20.0324 11.8165 20.0324 9.64081C20.0324 7.46532 18.2663 5.69899 16.0906 5.69899ZM41.5285 0.933594C39.353 0.933594 37.5867 2.69972 37.5867 4.87542C37.5867 7.0509 39.353 8.81724 41.5285 8.81724C43.7042 8.81724 45.4704 7.0509 45.4704 4.87542C45.4704 2.69972 43.7042 0.933594 41.5285 0.933594Z" fill="#223C5F"/>
<path d="M31.1089 17.1836C30.9087 18.03 30.4352 18.7715 29.7871 19.3089C29.9368 18.4928 30.4245 17.7342 31.1089 17.1836Z" fill="#1A283B"/>
<path d="M39.7169 30.215C42.8526 30.215 45.3947 27.6729 45.3947 24.5372C45.3947 21.4014 42.8526 18.8594 39.7169 18.8594C36.5811 18.8594 34.0391 21.4014 34.0391 24.5372C34.0391 27.6729 36.5811 30.215 39.7169 30.215Z" fill="#BFE5F8"/>
<path d="M35.0078 15.0059V15.8553C35.0078 16.3462 35.2027 16.8169 35.5499 17.164C35.8969 17.5112 36.3676 17.7063 36.8585 17.7063H42.5758C43.0667 17.7063 43.5374 17.5112 43.8846 17.164C44.2316 16.8169 44.4267 16.3462 44.4267 15.8553V15.0059H35.0078Z" fill="#94B2BE"/>
<path d="M39.7175 41.1382C40.7028 41.1382 41.5015 40.3395 41.5015 39.3543C41.5015 38.369 40.7028 37.5703 39.7175 37.5703C38.7323 37.5703 37.9336 38.369 37.9336 39.3543C37.9336 40.3395 38.7323 41.1382 39.7175 41.1382Z" fill="#94B2BE"/>
<path d="M42.0224 24.1284C42.0224 24.1284 41.3834 23.9238 41.2118 24.1586C40.8745 24.6199 40.3294 24.9202 39.7146 24.9202C39.1001 24.9202 38.5551 24.6203 38.2178 24.1592L37.7279 24.0137C37.7279 24.0137 37.5972 24.0556 37.4327 24.1191C35.9976 24.6727 35.1637 26.173 35.4508 27.6841L35.5708 28.3153C35.5866 28.3978 35.6265 28.4737 35.6858 28.5334C36.7147 29.5713 38.1413 30.2144 39.7168 30.2144C41.2893 30.2144 42.7135 29.5737 43.742 28.5395C43.8013 28.4798 43.8414 28.4037 43.8572 28.321L43.9834 27.6572C44.2677 26.1616 43.4425 24.6766 42.0224 24.1282V24.1284Z" fill="url(#paint1_linear_747_296359)"/>
<path d="M39.7137 25.7634C41.2028 25.7634 42.4099 24.5563 42.4099 23.0672C42.4099 21.5782 41.2028 20.3711 39.7137 20.3711C38.2247 20.3711 37.0176 21.5782 37.0176 23.0672C37.0176 24.5563 38.2247 25.7634 39.7137 25.7634Z" fill="url(#paint2_linear_747_296359)"/>
<path d="M19.8019 9.73977C19.6801 9.66449 19.5287 9.6564 19.3994 9.71791C19.2703 9.77943 19.1811 9.90205 19.1627 10.0441C19.0461 10.9383 18.5475 11.7129 17.8364 12.1996C17.7187 12.2801 17.6497 12.4149 17.6531 12.5575C17.6566 12.7002 17.7318 12.8313 17.8532 12.9062L23.5363 16.4117C23.6626 16.4894 23.8202 16.4953 23.9517 16.4271C24.0833 16.3589 24.1693 16.2266 24.1784 16.0789C24.2346 15.1687 24.6847 14.3643 25.3599 13.8342C25.4684 13.749 25.5283 13.6162 25.5204 13.4786C25.5127 13.3412 25.4382 13.2162 25.3208 13.1437L19.8019 9.73977ZM12.9968 9.82536C12.9883 9.6825 12.908 9.5538 12.7835 9.48339C12.6591 9.41276 12.5073 9.41034 12.3804 9.47671L5.85517 12.8898C5.72849 12.9562 5.64411 13.0818 5.63076 13.2241C5.6174 13.3661 5.6769 13.5055 5.789 13.594C6.4604 14.1251 6.9072 14.9283 6.96203 15.8364C6.97053 15.9791 7.05107 16.1078 7.17552 16.1782C7.29996 16.2484 7.45152 16.2509 7.5782 16.1847L14.1002 12.7732C14.2267 12.7071 14.3111 12.5814 14.3246 12.4393C14.338 12.2973 14.2787 12.1581 14.167 12.0694C13.4962 11.5373 13.0502 10.7337 12.9968 9.82536ZM38.6069 5.91126C38.5612 5.78256 38.4557 5.68382 38.3242 5.64679C38.1927 5.60955 38.0514 5.63849 37.945 5.72429L28.9318 12.9974C28.8268 13.0822 28.7687 13.2119 28.7754 13.3465C28.7821 13.4811 28.8527 13.6045 28.9656 13.6781C29.6921 14.1541 30.2073 14.9267 30.3376 15.8231C30.3594 15.973 30.4598 16.0997 30.6008 16.1549C30.7419 16.2104 30.9017 16.1857 31.0195 16.0906L40.4689 8.46535C40.5851 8.37166 40.643 8.22354 40.6213 8.07582C40.5995 7.92811 40.5013 7.80305 40.3629 7.7468C39.5466 7.41494 38.9031 6.74515 38.6069 5.91126ZM19.8671 10.7703L24.4038 13.5687C23.9378 14.0626 23.5982 14.6766 23.4359 15.3591L18.8013 12.5005C19.2946 12.0326 19.6671 11.4387 19.8671 10.7705V10.7703ZM12.2424 10.5004C12.395 11.1846 12.7254 11.8021 13.183 12.3013C13.183 12.3015 7.71559 15.1614 7.71559 15.1614C7.56221 14.4772 7.23116 13.8601 6.77324 13.3613L12.2424 10.5004ZM38.0472 6.72532C38.3722 7.33501 38.8528 7.84939 39.4357 8.21545C39.4359 8.21565 31.0084 15.0163 31.0084 15.0163C30.7854 14.3536 30.3912 13.7698 29.8786 13.3169L38.0472 6.72532Z" fill="#112E49"/>
<path d="M16.0903 5.69922C13.9148 5.69922 12.1484 7.46555 12.1484 9.64104C12.1484 11.8167 13.9148 13.5829 16.0903 13.5829C18.2659 13.5829 20.0321 11.8167 20.0321 9.64104C20.0321 7.46555 18.2659 5.69922 16.0903 5.69922ZM16.0903 6.54242C17.8005 6.54242 19.1891 7.93076 19.1891 9.64104C19.1891 11.3513 17.8005 12.7399 16.0903 12.7399C14.38 12.7399 12.9916 11.3513 12.9916 9.64104C12.9916 7.93076 14.38 6.54242 16.0903 6.54242Z" fill="#112E49"/>
<path d="M27.2721 12.332C25.0964 12.332 23.3301 14.0984 23.3301 16.2739C23.3301 18.4493 25.0964 20.2157 27.2721 20.2157C29.4476 20.2157 31.2139 18.4493 31.2139 16.2739C31.2139 14.0984 29.4476 12.332 27.2721 12.332ZM27.2721 13.175C28.9822 13.175 30.3707 14.5636 30.3707 16.2739C30.3707 17.9841 28.9822 19.3727 27.2721 19.3727C25.5618 19.3727 24.1733 17.9841 24.1733 16.2739C24.1733 14.5636 25.5618 13.175 27.2721 13.175Z" fill="#112E49"/>
<path d="M41.5297 0.933594C39.3542 0.933594 37.5879 2.69972 37.5879 4.87541C37.5879 7.0509 39.3542 8.81723 41.5297 8.81723C43.7054 8.81723 45.4715 7.0509 45.4715 4.87541C45.4715 2.69972 43.7054 0.933594 41.5297 0.933594ZM41.5297 1.77659C43.24 1.77659 44.6285 3.16513 44.6285 4.87541C44.6285 6.58569 43.24 7.97403 41.5297 7.97403C39.8194 7.97403 38.4311 6.58569 38.4311 4.87541C38.4311 3.16513 39.8194 1.77659 41.5297 1.77659Z" fill="#112E49"/>
<path d="M39.7137 20.3711C38.2256 20.3711 37.0176 21.5791 37.0176 23.0672C37.0176 24.5553 38.2256 25.7634 39.7137 25.7634C41.2018 25.7634 42.4099 24.5553 42.4099 23.0672C42.4099 21.5791 41.2018 20.3711 39.7137 20.3711ZM39.7137 21.2141C40.7364 21.2141 41.5669 22.0445 41.5669 23.0672C41.5669 24.0899 40.7364 24.9204 39.7137 24.9204C38.691 24.9204 37.8606 24.0899 37.8606 23.0672C37.8606 22.0445 38.691 21.2141 39.7137 21.2141Z" fill="#112E49"/>
<path d="M39.7169 18.8594C36.5832 18.8594 34.0391 21.4036 34.0391 24.5372C34.0391 27.6708 36.5832 30.215 39.7169 30.215C42.8505 30.215 45.3947 27.6708 45.3947 24.5372C45.3947 21.4036 42.8505 18.8594 39.7169 18.8594ZM39.7169 19.7026C42.3853 19.7026 44.5515 21.869 44.5515 24.5372C44.5515 27.2054 42.3853 29.3718 39.7169 29.3718C37.0487 29.3718 34.8823 27.2054 34.8823 24.5372C34.8823 21.869 37.0487 19.7026 39.7169 19.7026Z" fill="#112E49"/>
<path d="M42.0224 24.1284C42.0224 24.1284 41.3834 23.9238 41.2118 24.1586C40.8745 24.6199 40.3294 24.9202 39.7146 24.9202C39.1001 24.9202 38.5551 24.6203 38.2178 24.1592L37.7279 24.0137C37.7279 24.0137 37.5972 24.0556 37.4327 24.1191C35.9976 24.6727 35.1637 26.173 35.4508 27.6841L35.5708 28.3153C35.5866 28.3978 35.6265 28.4737 35.6858 28.5334C36.7147 29.5713 38.1413 30.2144 39.7168 30.2144C41.2893 30.2144 42.7135 29.5737 43.742 28.5395C43.8013 28.4798 43.8414 28.4037 43.8572 28.321L43.9834 27.6572C44.2677 26.1616 43.4425 24.6766 42.0224 24.1282V24.1284ZM41.6877 24.9036L41.7223 24.9162C42.7604 25.319 43.3632 26.4055 43.1552 27.4998L43.0536 28.0336C42.1851 28.8624 41.0099 29.3712 39.7168 29.3712C38.4212 29.3712 37.2437 28.8602 36.3754 28.0292L36.3746 28.0283L36.2793 27.5267C36.0682 26.417 36.6797 25.3152 37.7326 24.9071L37.7417 24.9038C38.234 25.4326 38.936 25.7632 39.7146 25.7632C40.4935 25.7632 41.1956 25.4326 41.6877 24.9036Z" fill="#112E49"/>
<path d="M48.0009 18.286C48.0009 16.4743 46.5324 15.0059 44.7208 15.0059H34.7157C32.9042 15.0059 31.4355 16.4743 31.4355 18.286V39.7254C31.4355 41.5369 32.9042 43.0055 34.7157 43.0055H44.7208C46.5324 43.0055 48.0009 41.5369 48.0009 39.7254V18.286ZM47.1579 18.286V39.7254C47.1579 41.0712 46.0668 42.1623 44.7208 42.1623H34.7157C33.3698 42.1623 32.2787 41.0712 32.2787 39.7254V18.286C32.2787 16.9399 33.3698 15.8489 34.7157 15.8489H44.7208C46.0668 15.8489 47.1579 16.9399 47.1579 18.286Z" fill="#112E49"/>
<path d="M35.4293 15.0059C35.1964 15.0059 35.0078 15.1945 35.0078 15.4274V15.8553C35.0078 16.3462 35.2027 16.8169 35.5499 17.164C35.8969 17.5112 36.3676 17.7063 36.8585 17.7063H42.5758C43.0667 17.7063 43.5374 17.5112 43.8846 17.164C44.2316 16.8169 44.4267 16.3462 44.4267 15.8553V15.4274C44.4267 15.1945 44.2379 15.0059 44.005 15.0059H35.4293ZM35.8508 15.8489H43.5835V15.8553C43.5835 16.1226 43.4773 16.3788 43.2885 16.5678C43.0995 16.7568 42.8431 16.8631 42.5758 16.8631H36.8585C36.5912 16.8631 36.335 16.7568 36.146 16.5678C35.957 16.3788 35.8508 16.1226 35.8508 15.8553V15.8489Z" fill="#112E49"/>
<path d="M39.7173 37.5703C38.7329 37.5703 37.9336 38.3696 37.9336 39.3542C37.9336 40.3387 38.7329 41.138 39.7173 41.138C40.702 41.138 41.5013 40.3387 41.5013 39.3542C41.5013 38.3696 40.702 37.5703 39.7173 37.5703ZM39.7173 38.4135C40.2366 38.4135 40.6581 38.835 40.6581 39.3542C40.6581 39.8733 40.2366 40.295 39.7173 40.295C39.1981 40.295 38.7766 39.8733 38.7766 39.3542C38.7766 38.835 39.1981 38.4135 39.7173 38.4135Z" fill="#112E49"/>
<path d="M34.1403 32.7182H45.2939C45.5266 32.7182 45.7154 32.5292 45.7154 32.2965C45.7154 32.0638 45.5266 31.875 45.2939 31.875H34.1403C33.9075 31.875 33.7188 32.0638 33.7188 32.2965C33.7188 32.5292 33.9075 32.7182 34.1403 32.7182Z" fill="#112E49"/>
<path d="M34.1403 35.7317H45.2939C45.5266 35.7317 45.7154 35.5429 45.7154 35.3102C45.7154 35.0775 45.5266 34.8887 45.2939 34.8887H34.1403C33.9075 34.8887 33.7188 35.0775 33.7188 35.3102C33.7188 35.5429 33.9075 35.7317 34.1403 35.7317Z" fill="#112E49"/>
<path d="M15.6561 28.4883C15.4232 28.4883 15.2344 28.6771 15.2344 28.91V32.5655C15.2344 32.7984 15.4232 32.987 15.6561 32.987H29.7404C29.9733 32.987 30.1619 32.7984 30.1619 32.5655V28.91C30.1619 28.6771 29.9733 28.4883 29.7404 28.4883H15.6561ZM16.0776 29.3315H29.3189V32.144H16.0776V29.3315Z" fill="#112E49"/>
<path d="M17.957 24.4219C17.1712 24.4219 16.5332 25.0599 16.5332 25.8456C16.5332 26.6316 17.1712 27.2696 17.957 27.2696C18.7429 27.2696 19.3809 26.6316 19.3809 25.8456C19.3809 25.0599 18.7429 24.4219 17.957 24.4219ZM17.957 25.2651C18.2775 25.2651 18.5377 25.5253 18.5377 25.8456C18.5377 26.1662 18.2775 26.4264 17.957 26.4264C17.6366 26.4264 17.3764 26.1662 17.3764 25.8456C17.3764 25.5253 17.6366 25.2651 17.957 25.2651Z" fill="#112E49"/>
<path d="M22.6991 24.4219C21.9134 24.4219 21.2754 25.0599 21.2754 25.8456C21.2754 26.6316 21.9134 27.2696 22.6991 27.2696C23.4851 27.2696 24.1231 26.6316 24.1231 25.8456C24.1231 25.0599 23.4851 24.4219 22.6991 24.4219ZM22.6991 25.2651C23.0197 25.2651 23.2799 25.5253 23.2799 25.8456C23.2799 26.1662 23.0197 26.4264 22.6991 26.4264C22.3788 26.4264 22.1186 26.1662 22.1186 25.8456C22.1186 25.5253 22.3788 25.2651 22.6991 25.2651Z" fill="#112E49"/>
<path d="M27.4413 24.4219C26.6556 24.4219 26.0176 25.0599 26.0176 25.8456C26.0176 26.6316 26.6556 27.2696 27.4413 27.2696C28.2273 27.2696 28.8653 26.6316 28.8653 25.8456C28.8653 25.0599 28.2273 24.4219 27.4413 24.4219ZM27.4413 25.2651C27.7619 25.2651 28.0221 25.5253 28.0221 25.8456C28.0221 26.1662 27.7619 26.4264 27.4413 26.4264C27.121 26.4264 26.8608 26.1662 26.8608 25.8456C26.8608 25.5253 27.121 25.2651 27.4413 25.2651Z" fill="#112E49"/>
<path d="M3.86976 12.084C1.69407 12.084 -0.0722656 13.8503 -0.0722656 16.0258C-0.0722656 18.2015 1.69407 19.9676 3.86976 19.9676C6.04525 19.9676 7.81158 18.2015 7.81158 16.0258C7.81158 13.8503 6.04525 12.084 3.86976 12.084ZM3.86976 12.9272C5.57984 12.9272 6.96838 14.3155 6.96838 16.0258C6.96838 17.7361 5.57984 19.1246 3.86976 19.1246C2.15948 19.1246 0.770936 17.7361 0.770936 16.0258C0.770936 14.3155 2.15948 12.9272 3.86976 12.9272Z" fill="#112E49"/>
<path d="M34.7135 15.8495H40.1916C40.4243 15.8495 40.6131 15.6607 40.6131 15.428V8.13295C40.6131 7.96196 40.5099 7.80797 40.3519 7.74302C39.2238 7.27943 38.4289 6.16953 38.4289 4.87548C38.4289 4.7049 38.4427 4.53776 38.4692 4.37446C38.5 4.18587 38.3998 4.00011 38.2252 3.922C37.7116 3.69233 37.1509 3.57031 36.5776 3.57031C29.8621 3.57031 15.5342 3.57031 8.81872 3.57031C7.74847 3.57031 6.72194 3.99545 5.96514 4.75225C5.20835 5.50905 4.7832 6.53558 4.7832 7.60582V12.7688C4.7832 12.9398 4.8864 13.0938 5.04444 13.1588C6.17235 13.6224 6.96739 14.7323 6.96739 16.0263C6.96739 17.3204 6.17235 18.4303 5.04444 18.8938C4.8864 18.959 4.7832 19.113 4.7832 19.2838V25.2955C4.7832 26.3657 5.20835 27.3922 5.96514 28.149C6.72194 28.9058 7.74847 29.331 8.81872 29.331H31.8549C32.0878 29.331 32.2766 29.1422 32.2766 28.9095V18.2866C32.2766 16.9405 33.3677 15.8495 34.7135 15.8495ZM34.7135 15.0065C32.9021 15.0065 31.4334 16.4749 31.4334 18.2866V28.4878H8.81872C7.97207 28.4878 7.16003 28.1515 6.56127 27.5527C5.96272 26.9541 5.6262 26.1421 5.6262 25.2955V19.5549C6.92085 18.9084 7.8106 17.5705 7.8106 16.0263C7.8106 14.4822 6.92085 13.1442 5.6262 12.4977V7.60582C5.6262 6.75918 5.96272 5.94714 6.56127 5.34838C7.16003 4.74962 7.97207 4.41331 8.81872 4.41331H36.5776C36.9273 4.41331 37.2711 4.47078 37.5965 4.58046C37.5894 4.67779 37.5857 4.77613 37.5857 4.87548C37.5857 6.41964 38.4755 7.75759 39.7701 8.4041C39.7699 8.4041 39.7699 15.0063 39.7699 15.0063C39.7699 15.0065 34.7135 15.0065 34.7135 15.0065Z" fill="#112E49"/>
<path d="M32.2766 22.7828C32.2766 22.5501 32.0878 22.3613 31.8549 22.3613H5.2047C4.972 22.3613 4.7832 22.5501 4.7832 22.7828V25.2962C4.7832 26.3665 5.20835 27.393 5.96514 28.1498C6.72194 28.9066 7.74847 29.3317 8.81872 29.3317H31.8549C32.0878 29.3317 32.2766 29.143 32.2766 28.9102V22.7828ZM31.4334 23.2045V28.4885H8.81872C7.97207 28.4885 7.16003 28.1522 6.56127 27.5535C5.96272 26.9549 5.6262 26.1429 5.6262 25.2962V23.2045H31.4334Z" fill="#112E49"/>
<path d="M31.939 37.4713C32.1352 37.4313 32.2763 37.2587 32.2763 37.0583V32.6098C32.2763 32.4095 32.1352 32.2369 31.939 32.1968C31.7647 32.1612 31.5842 32.1426 31.3993 32.1426H13.9964C12.5107 32.1426 11.3047 33.3486 11.3047 34.8341C11.3047 36.3195 12.5107 37.5256 13.9964 37.5256H31.3993C31.5842 37.5256 31.7647 37.5069 31.939 37.4713ZM31.4331 36.6822C31.4219 36.6824 31.4106 36.6826 31.3993 36.6826H13.9964C12.9761 36.6826 12.1479 35.8541 12.1479 34.8341C12.1479 33.814 12.9761 32.9856 13.9964 32.9856H31.3993C31.4106 32.9856 31.4219 32.9858 31.4331 32.986V36.6822Z" fill="#112E49"/>
<defs>
<linearGradient id="paint0_linear_747_296359" x1="18.5299" y1="22.3613" x2="18.5299" y2="29.3317" gradientUnits="userSpaceOnUse">
<stop stop-color="#4396D2"/>
<stop offset="1" stop-color="#1E6CB4"/>
</linearGradient>
<linearGradient id="paint1_linear_747_296359" x1="39.7169" y1="24.0137" x2="39.7169" y2="30.2144" gradientUnits="userSpaceOnUse">
<stop stop-color="#4396D2"/>
<stop offset="1" stop-color="#1E6CB4"/>
</linearGradient>
<linearGradient id="paint2_linear_747_296359" x1="39.7137" y1="20.3711" x2="39.7137" y2="25.7634" gradientUnits="userSpaceOnUse">
<stop stop-color="#F5C038"/>
<stop offset="1" stop-color="#E7B229"/>
</linearGradient>
</defs>
</svg>
