<svg width="48" height="48" fill="none" xmlns="http://www.w3.org/2000/svg"><path d="M48 36.656l-2.813 2.813H2.813L0 36.656l5.316-16.012c.168-.563.73-.956 1.322-.956h34.724c.591 0 1.154.393 1.322.956L48 36.656z" fill="#38C470"/><path d="M48 36.656l-2.813 2.813H24V19.687h17.362c.591 0 1.154.394 1.322.957L48 36.656z" fill="url(#paint0_linear_747_296281)"/><path d="M36.656 29.625c0 .787-.618 1.406-1.406 1.406h-22.5a1.392 1.392 0 01-1.406-1.406c0-.788.618-1.406 1.406-1.406h22.5c.788 0 1.406.618 1.406 1.406z" fill="#4D5A65"/><path d="M24 0c-6.975 0-12.656 5.681-12.656 12.656 0 6.975 5.681 12.656 12.656 12.656 6.975 0 12.656-5.68 12.656-12.656C36.656 5.681 30.975 0 24 0z" fill="#FFDA2D"/><path d="M36.656 12.656c0 6.975-5.681 12.656-12.656 12.656V0c6.975 0 12.656 5.681 12.656 12.656z" fill="#FDBF00"/><path d="M24 2.813c-5.428 0-9.844 4.415-9.844 9.843S18.572 22.5 24 22.5c5.428 0 9.844-4.416 9.844-9.844 0-5.428-4.416-9.844-9.844-9.844z" fill="#E89040"/><path d="M33.844 12.656c0 5.428-4.416 9.844-9.844 9.844V2.812c5.428 0 9.844 4.416 9.844 9.844z" fill="#E89040"/><path d="M28.219 15.469c0 1.828-1.181 3.375-2.813 3.965v4.472c0 .788-.618 1.407-1.406 1.407a1.392 1.392 0 01-1.406-1.407v-4.472c-1.632-.59-2.813-2.137-2.813-3.965 0-.788.619-1.406 1.407-1.406.787 0 1.406.618 1.406 1.406 0 .787.618 1.406 1.406 1.406.788 0 1.406-.619 1.406-1.406 0-.788-.618-1.406-1.406-1.406a4.213 4.213 0 01-4.219-4.22c0-1.827 1.181-3.374 2.813-3.965V1.406C22.594.62 23.212 0 24 0c.788 0 1.406.619 1.406 1.406v4.472c1.632.59 2.813 2.138 2.813 3.966 0 .788-.619 1.406-1.407 1.406a1.392 1.392 0 01-1.406-1.406c0-.788-.618-1.406-1.406-1.406-.788 0-1.406.618-1.406 1.406 0 .788.618 1.406 1.406 1.406a4.213 4.213 0 014.219 4.219z" fill="url(#paint1_linear_747_296281)"/><path d="M24 8.438V0c.788 0 1.406.619 1.406 1.406v4.472c1.632.59 2.813 2.138 2.813 3.966 0 .788-.619 1.406-1.407 1.406a1.392 1.392 0 01-1.406-1.406c0-.788-.618-1.406-1.406-1.406z" fill="#E1AB1F"/><path d="M28.219 15.469c0 1.828-1.181 3.375-2.813 3.965v4.472c0 .788-.618 1.407-1.406 1.407v-8.438c.788 0 1.406-.619 1.406-1.406 0-.788-.618-1.406-1.406-1.406V11.25a4.213 4.213 0 014.219 4.219z" fill="#FDBF00"/><path d="M35.25 31.031H24V28.22h11.25c.788 0 1.406.618 1.406 1.406 0 .787-.618 1.406-1.406 1.406z" fill="#112E49"/><path d="M48 36.656v9.938C48 47.38 47.382 48 46.594 48H1.406A1.393 1.393 0 010 46.594v-9.938h48z" fill="url(#paint2_linear_747_296281)"/><path d="M48 36.656v9.938C48 47.38 47.382 48 46.594 48H24V36.656h24z" fill="#14A84F"/><defs><linearGradient id="paint0_linear_747_296281" x1="36" y1="19.688" x2="36" y2="39.469" gradientUnits="userSpaceOnUse"><stop stop-color="#43D26B"/><stop offset="1" stop-color="#1EB463"/></linearGradient><linearGradient id="paint1_linear_747_296281" x1="24" y1="0" x2="24" y2="25.313" gradientUnits="userSpaceOnUse"><stop stop-color="#F5C038"/><stop offset="1" stop-color="#E7B229"/></linearGradient><linearGradient id="paint2_linear_747_296281" x1="24" y1="36.656" x2="24" y2="48" gradientUnits="userSpaceOnUse"><stop stop-color="#43D26B"/><stop offset="1" stop-color="#1EB463"/></linearGradient></defs></svg>