<svg width="13" height="13" fill="none" xmlns="http://www.w3.org/2000/svg"><path d="M7.063 3.75a.687.687 0 11-1.375 0 .687.687 0 011.375 0z" fill="#1C6FBC" stroke="#868F98" stroke-width=".125"/><path fill-rule="evenodd" clip-rule="evenodd" d="M5.5 6a.5.5 0 01.5-.5h.5A.5.5 0 017 6v3a.5.5 0 010 1h-.5a.5.5 0 01-.5-.5v-3a.5.5 0 01-.5-.5z" fill="#1C6FBC"/><path fill-rule="evenodd" clip-rule="evenodd" d="M6.5 1a5.5 5.5 0 100 11 5.5 5.5 0 000-11zM0 6.5a6.5 6.5 0 1113 0 6.5 6.5 0 01-13 0z" fill="#1C6FBC"/></svg>