<svg width="16" height="16" fill="none" xmlns="http://www.w3.org/2000/svg"><path opacity=".2" d="M9 13.498v-11a.5.5 0 00-.5-.5h-6a.5.5 0 00-.5.5v11" fill="#4D5A65"/><path fill-rule="evenodd" clip-rule="evenodd" d="M.5 13.498a.5.5 0 01.5-.5h14a.5.5 0 010 1H1a.5.5 0 01-.5-.5z" fill="#112E49"/><path fill-rule="evenodd" clip-rule="evenodd" d="M1.792 1.79a1 1 0 01.708-.292h6a1 1 0 011 1v11a.5.5 0 11-1 0v-11h-6v11a.5.5 0 11-1 0v-11a1 1 0 01.292-.707z" fill="#112E49"/><path fill-rule="evenodd" clip-rule="evenodd" d="M8.5 5.998a.5.5 0 01.5-.5h4.5a1 1 0 011 1v7a.5.5 0 11-1 0v-7H9a.5.5 0 01-.5-.5zm-5-1.5a.5.5 0 01.5-.5h2a.5.5 0 110 1H4a.5.5 0 01-.5-.5zm1 4a.5.5 0 01.5-.5h2a.5.5 0 110 1H5a.5.5 0 01-.5-.5zm-1 2.5a.5.5 0 01.5-.5h2a.5.5 0 010 1H4a.5.5 0 01-.5-.5z" fill="#112E49"/><path fill-rule="evenodd" clip-rule="evenodd" d="M10.5 10.998a.5.5 0 01.5-.5h1a.5.5 0 110 1h-1a.5.5 0 01-.5-.5zm0-2.5a.5.5 0 01.5-.5h1a.5.5 0 110 1h-1a.5.5 0 01-.5-.5z" fill="#112E49"/></svg>