<svg width="13" height="12" fill="none" xmlns="http://www.w3.org/2000/svg"><path fill-rule="evenodd" clip-rule="evenodd" d="M6.5 4.5a1.75 1.75 0 100 3.5 1.75 1.75 0 000-3.5zM3.75 6.25a2.75 2.75 0 115.5 0 2.75 2.75 0 01-5.5 0z" fill="#fff"/><path fill-rule="evenodd" clip-rule="evenodd" d="M4.084.223A.5.5 0 014.5 0h4a.5.5 0 01.416.223L9.767 1.5H11.5A1.5 1.5 0 0113 3v7a1.5 1.5 0 01-1.5 1.5h-10A1.5 1.5 0 010 10V3a1.5 1.5 0 011.5-1.5h1.732L4.084.223zM4.767 1l-.851 1.277A.5.5 0 013.5 2.5h-2A.5.5 0 001 3v7a.5.5 0 00.5.5h10a.5.5 0 00.5-.5V3a.5.5 0 00-.5-.5h-2a.5.5 0 01-.416-.223L8.232 1H4.767z" fill="#fff"/></svg>