<svg width="13" height="12" fill="none" xmlns="http://www.w3.org/2000/svg"><path fill-rule="evenodd" clip-rule="evenodd" d="M5.25 5.5a.5.5 0 01.5-.5h1.5a.5.5 0 010 1h-1.5a.5.5 0 01-.5-.5z" fill="#fff"/><path fill-rule="evenodd" clip-rule="evenodd" d="M12.933 5.644a.5.5 0 01-.182.683A12.445 12.445 0 016.5 8 12.445 12.445 0 01.25 6.328a.5.5 0 11.5-.866A11.445 11.445 0 006.5 7a11.445 11.445 0 005.75-1.538.5.5 0 01.683.182zM3.94.44A1.5 1.5 0 015 0h3a1.5 1.5 0 011.5 1.5v1a.5.5 0 01-1 0v-1A.5.5 0 008 1H5a.5.5 0 00-.5.5v1a.5.5 0 01-1 0v-1c0-.398.158-.78.44-1.06z" fill="#fff"/><path fill-rule="evenodd" clip-rule="evenodd" d="M0 3a1 1 0 011-1h11a1 1 0 011 1v8a1 1 0 01-1 1H1a1 1 0 01-1-1V3zm12 0H1v8h11V3z" fill="#fff"/><path opacity=".36" d="M6.5 7.5a11.945 11.945 0 01-6-1.605V11a.5.5 0 00.5.5h11a.5.5 0 00.5-.5V5.895a11.945 11.945 0 01-6 1.605z" fill="#fff"/></svg>