<svg width="23" height="10" fill="none" xmlns="http://www.w3.org/2000/svg"><path fill-rule="evenodd" clip-rule="evenodd" d="M22.284.22a.75.75 0 010 1.06l-8.25 8.25a.75.75 0 01-1.06 0l-2.192-2.19a.75.75 0 011.06-1.061l1.662 1.66 7.72-7.72a.75.75 0 011.06 0z" fill="url(#paint0_linear_1047_28837)"/><path fill-rule="evenodd" clip-rule="evenodd" d="M13.655.22a.75.75 0 010 1.06l-8.25 8.25a.75.75 0 01-1.06 0L.22 5.406a.75.75 0 111.06-1.061l3.595 3.594 7.72-7.72a.75.75 0 011.06 0z" fill="url(#paint1_linear_1047_28837)"/><defs><linearGradient id="paint0_linear_1047_28837" x1="16.533" y1="0" x2="16.533" y2="9.75" gradientUnits="userSpaceOnUse"><stop stop-color="#F5C038"/><stop offset="1" stop-color="#E7B229"/></linearGradient><linearGradient id="paint1_linear_1047_28837" x1="6.938" y1="0" x2="6.938" y2="9.75" gradientUnits="userSpaceOnUse"><stop stop-color="#F5C038"/><stop offset="1" stop-color="#E7B229"/></linearGradient></defs></svg>