<svg width="13" height="13" fill="none" xmlns="http://www.w3.org/2000/svg"><path fill-rule="evenodd" clip-rule="evenodd" d="M9 3.5a.5.5 0 01.5-.5H12a1 1 0 011 1v8a.5.5 0 01-.814.389L9.849 10.5H4a1 1 0 01-1-1V7a.5.5 0 011 0v2.5h6.026a.5.5 0 01.314.111L12 10.953V4H9.5a.5.5 0 01-.5-.5z" fill="#1D81DD"/><path fill-rule="evenodd" clip-rule="evenodd" d="M.293.293A1 1 0 011 0h8a1 1 0 011 1v5.5a1 1 0 01-1 1H3.15L.815 9.389A.5.5 0 010 9V1A1 1 0 01.293.293zM9 1H1v6.953L2.66 6.61a.5.5 0 01.314-.111H9V1z" fill="#1D81DD"/></svg>