<svg width="15" height="15" fill="none" xmlns="http://www.w3.org/2000/svg"><path fill-rule="evenodd" clip-rule="evenodd" d="M.625 8.75c.345 0 .625.28.625.625v4.375h12.5V9.375a.625.625 0 111.25 0v4.375A1.25 1.25 0 0113.75 15H1.25A1.25 1.25 0 010 13.75V9.375c0-.345.28-.625.625-.625z" fill="#868F98"/><path fill-rule="evenodd" clip-rule="evenodd" d="M7.5 0c.345 0 .625.28.625.625v8.748a.625.625 0 11-1.25 0V.625C6.875.28 7.155 0 7.5 0z" fill="#868F98"/><path fill-rule="evenodd" clip-rule="evenodd" d="M3.777 5.653a.625.625 0 01.884 0L7.5 8.49l2.84-2.838a.625.625 0 11.883.884l-3.281 3.28a.625.625 0 01-.884 0l-3.281-3.28a.625.625 0 010-.884z" fill="#868F98"/></svg>