<svg width="13" height="12" fill="none" xmlns="http://www.w3.org/2000/svg"><path fill-rule="evenodd" clip-rule="evenodd" d="M1.75 5.75a.75.75 0 100 1.5.75.75 0 000-1.5zM0 6.5a1.75 1.75 0 113.5 0 1.75 1.75 0 01-3.5 0z" fill="#4D5A65"/><path fill-rule="evenodd" clip-rule="evenodd" d="M1.75 0a.5.5 0 01.5.5v4.75a.5.5 0 01-1 0V.5a.5.5 0 01.5-.5zm0 7.25a.5.5 0 01.5.5v3.75a.5.5 0 01-1 0V7.75a.5.5 0 01.5-.5zm9 .5a.75.75 0 100 1.5.75.75 0 000-1.5zM9 8.5a1.75 1.75 0 113.5 0 1.75 1.75 0 01-3.5 0z" fill="#4D5A65"/><path fill-rule="evenodd" clip-rule="evenodd" d="M10.75 0a.5.5 0 01.5.5v6.75a.5.5 0 01-1 0V.5a.5.5 0 01.5-.5zm0 9.25a.5.5 0 01.5.5v1.75a.5.5 0 01-1 0V9.75a.5.5 0 01.5-.5zm-4.5-6.5a.75.75 0 100 1.5.75.75 0 000-1.5zM4.5 3.5a1.75 1.75 0 113.5 0 1.75 1.75 0 01-3.5 0z" fill="#4D5A65"/><path fill-rule="evenodd" clip-rule="evenodd" d="M6.25 0a.5.5 0 01.5.5v1.75a.5.5 0 01-1 0V.5a.5.5 0 01.5-.5zm0 4.25a.5.5 0 01.5.5v6.75a.5.5 0 01-1 0V4.75a.5.5 0 01.5-.5z" fill="#4D5A65"/></svg>