<svg width="13" height="13" fill="none" xmlns="http://www.w3.org/2000/svg"><path fill-rule="evenodd" clip-rule="evenodd" d="M.178 7.971a.5.5 0 01.707 0l3.322 3.322h7.292a.5.5 0 110 1H4a.5.5 0 01-.353-.147L.178 8.678a.5.5 0 010-.707zM6.146 1.94a.5.5 0 01.708 0l3.5 3.5a.5.5 0 01-.708.706l-3.5-3.5a.5.5 0 010-.707z" fill="#868F98"/><path fill-rule="evenodd" clip-rule="evenodd" d="M7.793.293a1 1 0 011.414 0l-.334.334.334-.334L12 3.086A1 1 0 0112 4.5l-7.646 7.646a.5.5 0 01-.354.147H1a1 1 0 01-1-1V8.5a1 1 0 01.293-.707l7.5-7.5zm3.5 3.5L8.5 1 1 8.5l-.354-.354L1 8.5v2.793h2.793l7.5-7.5z" fill="#868F98"/></svg>