<svg width="24" height="24" fill="none" xmlns="http://www.w3.org/2000/svg"><path fill-rule="evenodd" clip-rule="evenodd" d="M14.221 3.555a.75.75 0 01.92-.53 8.264 8.264 0 015.833 5.835.75.75 0 01-1.448.39 6.764 6.764 0 00-4.775-4.776.75.75 0 01-.53-.919zm-.777 2.899a.75.75 0 01.92-.53 5.258 5.258 0 013.712 3.713.75.75 0 01-1.449.39 3.759 3.759 0 00-2.653-2.654.75.75 0 01-.53-.92zM7.768 3.78zm0 .001l1.884 4.396-1.559 2.382a1.493 1.493 0 00-.1 1.468l.677-.325-.674.33a8.657 8.657 0 004.008 3.99l.006.003a1.493 1.493 0 001.472-.11l.002-.002 2.344-1.563 4.391 1.882a3.75 3.75 0 01-3.719 3.269m-7.152-8.12l1.56-2.383a1.5 1.5 0 00.123-1.412L9.148 3.193v-.001a1.497 1.497 0 00-1.558-.9h-.005A5.25 5.25 0 003 7.502 13.5 13.5 0 0016.5 21a5.25 5.25 0 005.208-4.585v-.005a1.498 1.498 0 00-.9-1.559l-4.39-1.88a1.5 1.5 0 00-1.422.13l-2.347 1.566a7.158 7.158 0 01-3.301-3.287zm-1.58-7.6A3.75 3.75 0 004.5 7.501a12 12 0 0012 12" fill="#3197F5"/></svg>