<svg width="13" height="12" fill="none" xmlns="http://www.w3.org/2000/svg"><path fill-rule="evenodd" clip-rule="evenodd" d="M12.5 5.5a.5.5 0 01.5.5 4.5 4.5 0 01-4.5 4.5h-8a.5.5 0 010-1h8A3.5 3.5 0 0012 6a.5.5 0 01.5-.5z" fill="#868F98"/><path fill-rule="evenodd" clip-rule="evenodd" d="M2.354 8.146a.5.5 0 010 .708L1.207 10l1.147 1.146a.5.5 0 01-.708.708l-1.5-1.5a.5.5 0 010-.708l1.5-1.5a.5.5 0 01.708 0zM4.5 2.5A3.5 3.5 0 001 6a.5.5 0 01-1 0 4.5 4.5 0 014.5-4.5h8a.5.5 0 010 1h-8z" fill="#868F98"/><path fill-rule="evenodd" clip-rule="evenodd" d="M10.646.146a.5.5 0 01.708 0l1.5 1.5a.5.5 0 010 .708l-1.5 1.5a.5.5 0 01-.708-.708L11.793 2 10.646.854a.5.5 0 010-.708z" fill="#868F98"/></svg>