<svg width="18" height="21" fill="none" xmlns="http://www.w3.org/2000/svg"><path fill-rule="evenodd" clip-rule="evenodd" d="M9 1.5a2.625 2.625 0 00-2.625 2.625V7.5a.75.75 0 01-1.5 0V4.125a4.125 4.125 0 018.25 0 .75.75 0 01-1.5 0A2.625 2.625 0 009 1.5z" fill="#868F98"/><path fill-rule="evenodd" clip-rule="evenodd" d="M0 8.694C0 7.897.672 7.25 1.5 7.25h15c.828 0 1.5.647 1.5 1.444v10.112c0 .797-.672 1.444-1.5 1.444h-15c-.828 0-1.5-.647-1.5-1.444V8.694zm16.5 0h-15v10.112h15V8.694z" fill="#868F98"/><path fill-rule="evenodd" clip-rule="evenodd" d="M9 13.5a.75.75 0 01.75.75v2.25a.75.75 0 01-1.5 0v-2.25A.75.75 0 019 13.5z" fill="#868F98"/><path fill-rule="evenodd" clip-rule="evenodd" d="M9 11.25a1.125 1.125 0 100 2.25 1.125 1.125 0 000-2.25zm-2.625 1.125a2.625 2.625 0 115.25 0 2.625 2.625 0 01-5.25 0z" fill="#868F98"/></svg>