<svg width="16" height="16" fill="none" xmlns="http://www.w3.org/2000/svg"><path opacity=".36" d="M8 11.25a2.5 2.5 0 100-5 2.5 2.5 0 000 5zm-4.25-4a2 2 0 100-4 2 2 0 000 4z" fill="#4D5A65"/><path opacity=".2" d="M12.25 7.25a2 2 0 100-4 2 2 0 000 4z" fill="#4D5A65"/><path fill-rule="evenodd" clip-rule="evenodd" d="M8 6.75a2 2 0 100 4 2 2 0 000-4zm-3 2a3 3 0 116 0 3 3 0 01-6 0zm8.704-.658a3.245 3.245 0 00-1.454-.342.5.5 0 110-1 4.244 4.244 0 013.4 1.7.5.5 0 01-.8.6 3.245 3.245 0 00-1.146-.958zM3.75 7.75a3.244 3.244 0 00-2.6 1.3.5.5 0 11-.8-.6 4.244 4.244 0 013.4-1.7.5.5 0 010 1z" fill="#112E49"/><path fill-rule="evenodd" clip-rule="evenodd" d="M8 11.75a3.502 3.502 0 00-3.148 1.969.5.5 0 11-.9-.438 4.501 4.501 0 018.095 0 .5.5 0 11-.899.438A3.502 3.502 0 008 11.75zM4.123 3.797A1.5 1.5 0 103.75 6.75a.5.5 0 110 1 2.5 2.5 0 112.456-2.97.5.5 0 01-.982.188 1.5 1.5 0 00-1.1-1.171zm8.591.026a1.5 1.5 0 00-1.938 1.146.5.5 0 01-.982-.188 2.5 2.5 0 112.456 2.97.5.5 0 010-1 1.5 1.5 0 00.464-2.928z" fill="#112E49"/></svg>