<svg width="16" height="16" viewBox="0 0 16 16" fill="none" xmlns="http://www.w3.org/2000/svg">
<path fill-rule="evenodd" clip-rule="evenodd" d="M0.222853 9.96431C0.466931 9.72023 0.862659 9.72023 1.10674 9.96431L5.25891 14.1165H14.375C14.7202 14.1165 15 14.3963 15 14.7415C15 15.0867 14.7202 15.3665 14.375 15.3665H5.00003C4.83427 15.3665 4.6753 15.3006 4.55809 15.1834L0.222853 10.8482C-0.0212245 10.6041 -0.0212245 10.2084 0.222853 9.96431Z" fill="#868F98"/>
<path fill-rule="evenodd" clip-rule="evenodd" d="M7.68306 2.42427C7.92714 2.18019 8.32286 2.18019 8.56694 2.42427L12.9419 6.79927C13.186 7.04335 13.186 7.43908 12.9419 7.68315C12.6979 7.92723 12.3021 7.92723 12.0581 7.68315L7.68306 3.30815C7.43898 3.06408 7.43898 2.66835 7.68306 2.42427Z" fill="#868F98"/>
<path fill-rule="evenodd" clip-rule="evenodd" d="M9.74112 0.366116C9.97554 0.131696 10.2935 0 10.625 0C10.9565 0 11.2745 0.131696 11.5089 0.366116L11.091 0.783952L11.5089 0.366116L15 3.85723C15.2344 4.09165 15.3661 4.4096 15.3661 4.74112C15.3661 5.07264 15.2344 5.39058 15 5.625L5.44194 15.1831C5.32473 15.3003 5.16576 15.3661 5 15.3661H1.25C0.91848 15.3661 0.600538 15.2344 0.366117 15C0.131696 14.7656 0 14.4476 0 14.1161V10.625C0 10.4608 0.0323321 10.2983 0.0951506 10.1466C0.157969 9.99499 0.250043 9.85719 0.366117 9.74112L9.74112 0.366116ZM14.1161 4.74112L10.625 1.25L1.25 10.625L0.808059 10.1831L1.25 10.625L1.25 14.1161H4.74112L14.1161 4.74112Z" fill="#868F98"/>
</svg>
