<svg width="15" height="15" viewBox="0 0 15 15" fill="none" xmlns="http://www.w3.org/2000/svg">
<path fill-rule="evenodd" clip-rule="evenodd" d="M0.366117 0.366117C0.600537 0.131696 0.918479 0 1.25 0H5.625C5.97018 0 6.25 0.279822 6.25 0.625C6.25 0.970178 5.97018 1.25 5.625 1.25L1.25 1.25L1.25 13.75H5.625C5.97018 13.75 6.25 14.0298 6.25 14.375C6.25 14.7202 5.97018 15 5.625 15H1.25C0.91848 15 0.600538 14.8683 0.366117 14.6339C0.131696 14.3995 0 14.0815 0 13.75V1.25C0 0.918479 0.131696 0.600537 0.366117 0.366117Z" fill="#868F98"/>
<path fill-rule="evenodd" clip-rule="evenodd" d="M5 7.5C5 7.15482 5.27982 6.875 5.625 6.875H14.3727C14.7179 6.875 14.9977 7.15482 14.9977 7.5C14.9977 7.84518 14.7179 8.125 14.3727 8.125H5.625C5.27982 8.125 5 7.84518 5 7.5Z" fill="#868F98"/>
<path fill-rule="evenodd" clip-rule="evenodd" d="M10.6526 3.77675C10.8967 3.5327 11.2924 3.53276 11.5365 3.77687L14.8169 7.05812C15.0609 7.30218 15.0609 7.69782 14.8169 7.94188L11.5365 11.2231C11.2924 11.4672 10.8967 11.4673 10.6526 11.2232C10.4085 10.9792 10.4084 10.5835 10.6525 10.3394L13.4911 7.5L10.6525 4.66063C10.4084 4.41652 10.4085 4.0208 10.6526 3.77675Z" fill="#868F98"/>
</svg>
