<svg width="15" height="17" viewBox="0 0 15 17" fill="none" xmlns="http://www.w3.org/2000/svg">
<path fill-rule="evenodd" clip-rule="evenodd" d="M4.125 11.25C4.125 10.9048 4.40482 10.625 4.75 10.625H9.75C10.0952 10.625 10.375 10.9048 10.375 11.25C10.375 11.5952 10.0952 11.875 9.75 11.875H4.75C4.40482 11.875 4.125 11.5952 4.125 11.25Z" fill="#868F98"/>
<path fill-rule="evenodd" clip-rule="evenodd" d="M4.125 8.75C4.125 8.40482 4.40482 8.125 4.75 8.125H9.75C10.0952 8.125 10.375 8.40482 10.375 8.75C10.375 9.09518 10.0952 9.375 9.75 9.375H4.75C4.40482 9.375 4.125 9.09518 4.125 8.75Z" fill="#868F98"/>
<path fill-rule="evenodd" clip-rule="evenodd" d="M9.125 0C9.47018 0 9.75 0.279822 9.75 0.625V4.375H13.5006C13.8458 4.375 14.1256 4.65482 14.1256 5C14.1256 5.34518 13.8458 5.625 13.5006 5.625H9.125C8.77982 5.625 8.5 5.34518 8.5 5V0.625C8.5 0.279822 8.77982 0 9.125 0Z" fill="#868F98"/>
<path d="M12.875 15.625H1.62497C1.45921 15.625 1.30025 15.5591 1.18304 15.4419C1.06584 15.3247 0.999996 15.1658 1 15V1.25C0.999996 1.08424 1.06584 0.925275 1.18304 0.808065C1.30025 0.690854 1.45921 0.625004 1.62497 0.625H9.12521L13.5 5V15C13.5 15.1658 13.4342 15.3247 13.317 15.4419C13.1998 15.5591 13.0408 15.625 12.875 15.625V15.625Z" stroke="#868F98" stroke-width="1.25" stroke-linecap="round" stroke-linejoin="round"/>
</svg>
