<svg width="17" height="17" viewBox="0 0 17 17" fill="none" xmlns="http://www.w3.org/2000/svg">
<path fill-rule="evenodd" clip-rule="evenodd" d="M6.48984 3.2099C5.96492 4.4359 5.625 6.17317 5.625 8.12484C5.625 10.0765 5.96492 11.8138 6.48984 13.0398C6.75278 13.6539 7.04983 14.1109 7.34784 14.4053C7.64318 14.6971 7.90509 14.7985 8.125 14.7985C8.34491 14.7985 8.60682 14.6971 8.90216 14.4053C9.20017 14.1109 9.49722 13.6539 9.76016 13.0398C10.2851 11.8138 10.625 10.0765 10.625 8.12484C10.625 6.17317 10.2851 4.4359 9.76016 3.2099C9.49722 2.59578 9.20017 2.13876 8.90216 1.84437C8.60682 1.55261 8.34491 1.45117 8.125 1.45117C7.90509 1.45117 7.64318 1.55261 7.34784 1.84437C7.04983 2.13876 6.75278 2.59578 6.48984 3.2099ZM6.46937 0.955106C6.92177 0.508196 7.48196 0.201172 8.125 0.201172C8.76804 0.201172 9.32823 0.508196 9.78063 0.955106C10.2304 1.39938 10.6067 2.01122 10.9093 2.7179C11.5154 4.1335 11.875 6.04557 11.875 8.12484C11.875 10.2041 11.5154 12.1162 10.9093 13.5318C10.6067 14.2385 10.2304 14.8503 9.78063 15.2946C9.32823 15.7415 8.76804 16.0485 8.125 16.0485C7.48196 16.0485 6.92177 15.7415 6.46937 15.2946C6.01964 14.8503 5.64331 14.2385 5.34074 13.5318C4.73464 12.1162 4.375 10.2041 4.375 8.12484C4.375 6.04557 4.73464 4.1335 5.34074 2.7179C5.64331 2.01122 6.01964 1.39938 6.46937 0.955106Z" fill="#868F98"/>
<path fill-rule="evenodd" clip-rule="evenodd" d="M0.42749 10.625C0.42749 10.2798 0.707312 10 1.05249 10H15.1981C15.5433 10 15.8231 10.2798 15.8231 10.625C15.8231 10.9702 15.5433 11.25 15.1981 11.25H1.05249C0.707312 11.25 0.42749 10.9702 0.42749 10.625Z" fill="#868F98"/>
<path fill-rule="evenodd" clip-rule="evenodd" d="M0.427002 5.625C0.427002 5.27982 0.706824 5 1.052 5H15.1977C15.5429 5 15.8227 5.27982 15.8227 5.625C15.8227 5.97018 15.5429 6.25 15.1977 6.25H1.052C0.706824 6.25 0.427002 5.97018 0.427002 5.625Z" fill="#868F98"/>
<path fill-rule="evenodd" clip-rule="evenodd" d="M8.125 1.25C4.32804 1.25 1.25 4.32804 1.25 8.125C1.25 11.922 4.32804 15 8.125 15C11.922 15 15 11.922 15 8.125C15 4.32804 11.922 1.25 8.125 1.25ZM0 8.125C0 3.63769 3.63769 0 8.125 0C12.6123 0 16.25 3.63769 16.25 8.125C16.25 12.6123 12.6123 16.25 8.125 16.25C3.63769 16.25 0 12.6123 0 8.125Z" fill="#868F98"/>
</svg>
