<svg width="46" height="48" fill="none" xmlns="http://www.w3.org/2000/svg"><path d="M.6 38.4v6.4A3.2 3.2 0 003.8 48h38.4a3.2 3.2 0 003.2-3.2v-6.4H.6z" fill="#BAC0C6"/><path d="M43.178 38.4v6.4a3.2 3.2 0 01-3.2 3.2H42.2a3.2 3.2 0 003.2-3.2v-6.4h-2.222z" fill="#BAC0C6"/><path d="M.6 12.8v28.8a3.2 3.2 0 003.2 3.2h38.4a3.2 3.2 0 003.2-3.2V12.8H.6z" fill="#EDF5FF"/><path d="M43.178 12.8v28.8a3.2 3.2 0 01-3.2 3.2H42.2a3.2 3.2 0 003.2-3.2V12.8h-2.222z" fill="#000" fill-opacity=".1"/><path d="M45.4 14.4v-8a3.2 3.2 0 00-3.2-3.2H3.8A3.2 3.2 0 00.6 6.4v8h44.8z" fill="url(#paint0_linear_747_296329)"/><path d="M10.2 7.124H8.6a.724.724 0 010-1.448h1.6a.724.724 0 010 1.448zm4.8 0h-1.6a.724.724 0 010-1.448H15a.724.724 0 010 1.448zm17.6 0H31a.724.724 0 010-1.448h1.6a.724.724 0 010 1.448zm4.8 0h-1.6a.724.724 0 010-1.448h1.6a.724.724 0 110 1.448z" fill="#112E49"/><path d="M10.2 6.4a1.6 1.6 0 003.2 0V1.6a1.6 1.6 0 00-3.2 0v4.8z" fill="url(#paint1_linear_747_296329)"/><path d="M32.6 6.4a1.6 1.6 0 103.2 0V1.6a1.6 1.6 0 00-3.2 0v4.8z" fill="url(#paint2_linear_747_296329)"/><path d="M42.2 3.2h-2.222a3.2 3.2 0 013.2 3.2v8H45.4v-8a3.2 3.2 0 00-3.2-3.2z" fill="url(#paint3_linear_747_296329)"/><path d="M.6 10.475h44.8v1.448H.6v-1.448z" fill="url(#paint4_linear_747_296329)"/><path d="M23.8 25.2c0-3.31-2.69-6-6-6-3.308 0-6 2.69-6 6a1.6 1.6 0 103.2 0c0-1.545 1.257-2.8 2.8-2.8 1.545 0 2.8 1.255 2.8 2.8 0 1.543-1.255 2.8-2.8 2.8a1.6 1.6 0 000 3.2c1.545 0 2.8 1.255 2.8 2.8 0 1.543-1.255 2.8-2.8 2.8A2.803 2.803 0 0115 34a1.6 1.6 0 10-3.2 0c0 3.308 2.692 6 6 6 3.31 0 6-2.692 6-6a5.984 5.984 0 00-1.926-4.4 5.984 5.984 0 001.927-4.4zm7.688-5.879a1.6 1.6 0 00-1.743.347l-3.2 3.2a1.6 1.6 0 002.262 2.263l.47-.469v13.737a1.6 1.6 0 103.2 0V20.8a1.6 1.6 0 00-.988-1.478z" fill="#112E49"/><defs><linearGradient id="paint0_linear_747_296329" x1="23" y1="3.199" x2="23" y2="14.399" gradientUnits="userSpaceOnUse"><stop stop-color="#D86161"/><stop offset="1" stop-color="#C94646"/></linearGradient><linearGradient id="paint1_linear_747_296329" x1="11.799" y1="0" x2="11.799" y2="8" gradientUnits="userSpaceOnUse"><stop stop-color="#B6B6B6"/><stop offset="1" stop-color="#8B8B8B"/></linearGradient><linearGradient id="paint2_linear_747_296329" x1="34.2" y1="0" x2="34.2" y2="8" gradientUnits="userSpaceOnUse"><stop stop-color="#B6B6B6"/><stop offset="1" stop-color="#8B8B8B"/></linearGradient><linearGradient id="paint3_linear_747_296329" x1="42.689" y1="3.199" x2="42.689" y2="14.399" gradientUnits="userSpaceOnUse"><stop stop-color="#D86161"/><stop offset="1" stop-color="#C94646"/></linearGradient><linearGradient id="paint4_linear_747_296329" x1="23" y1="10.475" x2="23" y2="11.923" gradientUnits="userSpaceOnUse"><stop stop-color="#D86161"/><stop offset="1" stop-color="#C94646"/></linearGradient></defs></svg>