<svg width="48" height="44" fill="none" xmlns="http://www.w3.org/2000/svg"><path d="M15.656 28.488a.422.422 0 00-.422.422v3.655c0 .233.19.422.422.422H29.74a.421.421 0 00.422-.422V28.91a.422.422 0 00-.422-.422H15.656z" fill="#263238"/><path d="M34.714 15.85h5.478a.422.422 0 00.421-.422V8.133a.422.422 0 00-.261-.39 3.101 3.101 0 01-1.883-3.369.421.421 0 00-.244-.452 4.035 4.035 0 00-1.647-.352H8.818a4.036 4.036 0 00-4.035 4.036v5.163c0 .17.103.325.261.39a3.102 3.102 0 011.923 2.867 3.101 3.101 0 01-1.923 2.868.422.422 0 00-.26.39v6.012a4.036 4.036 0 004.035 4.035h23.036a.422.422 0 00.422-.421V18.287a2.437 2.437 0 012.437-2.437z" fill="#3197F5"/><path d="M29.738 29.33h2.118a.422.422 0 00.422-.421V18.285c0-.79.375-1.492.957-1.937a.66.66 0 00-.217-.007c-1.811.262-3.28 1.825-3.28 3.492v9.496z" fill="#AAD5EF"/><path d="M32.277 22.361H4.783v2.935a4.036 4.036 0 004.036 4.036h23.036a.422.422 0 00.422-.422v-6.549z" fill="url(#paint0_linear_747_296359)"/><path d="M29.738 22.361v6.97h2.118a.422.422 0 00.422-.42v-6.55h-2.54z" fill="#0D4B82"/><path d="M19.802 9.74a.421.421 0 00-.64.304 3.1 3.1 0 01-1.326 2.156.422.422 0 00.017.706l5.683 3.506a.422.422 0 00.642-.333 3.095 3.095 0 011.182-2.245.421.421 0 00-.04-.69L19.803 9.74zm-6.805.085a.422.422 0 00-.617-.348L5.855 12.89a.422.422 0 00-.066.704 3.095 3.095 0 011.173 2.242.422.422 0 00.616.349l6.522-3.412a.422.422 0 00.067-.704 3.094 3.094 0 01-1.17-2.244zm25.61-3.914a.421.421 0 00-.662-.187l-9.013 7.273a.422.422 0 00.034.681 3.102 3.102 0 011.372 2.145.421.421 0 00.681.268l9.45-7.626a.422.422 0 00-.106-.718 3.111 3.111 0 01-1.756-1.836z" fill="#1DBCDE"/><path d="M17.957 27.27a1.424 1.424 0 100-2.848 1.424 1.424 0 000 2.847z" fill="#56C2EF"/><path d="M22.7 27.27a1.424 1.424 0 100-2.848 1.424 1.424 0 000 2.847z" fill="#E57373"/><path d="M27.441 27.27a1.424 1.424 0 100-2.848 1.424 1.424 0 000 2.847z" fill="#66BC6A"/><path d="M31.939 37.471a.422.422 0 00.337-.413V32.61a.42.42 0 00-.337-.413 2.695 2.695 0 00-.54-.054H13.996a2.693 2.693 0 00-2.691 2.691 2.693 2.693 0 002.691 2.692H31.4c.185 0 .366-.02.54-.055z" fill="#37474F"/><path d="M29.738 32.143v5.383h1.663c.185 0 .366-.02.54-.055a.421.421 0 00.337-.413V32.61c0-.2-.141-.373-.337-.413a2.693 2.693 0 00-.54-.054h-1.663z" fill="#223A44"/><path d="M48 18.286a3.28 3.28 0 00-3.28-3.28H34.717a3.28 3.28 0 00-3.28 3.28v21.44a3.28 3.28 0 003.28 3.28H44.72a3.28 3.28 0 003.28-3.28v-21.44z" fill="#E2F4FD"/><path d="M27.272 12.331a3.944 3.944 0 00-3.942 3.942 3.944 3.944 0 003.942 3.942 3.944 3.944 0 003.942-3.942 3.944 3.944 0 00-3.942-3.942zM3.87 12.084a3.944 3.944 0 00-3.942 3.942 3.944 3.944 0 003.942 3.942 3.944 3.944 0 003.942-3.942 3.944 3.944 0 00-3.942-3.942zM16.09 5.7a3.944 3.944 0 00-3.941 3.942 3.944 3.944 0 003.942 3.942 3.943 3.943 0 003.941-3.942A3.944 3.944 0 0016.091 5.7zM41.53.934a3.944 3.944 0 00-3.942 3.941 3.944 3.944 0 003.941 3.942 3.944 3.944 0 003.942-3.942A3.944 3.944 0 0041.53.934z" fill="#223C5F"/><path d="M31.109 17.184a3.943 3.943 0 01-1.322 2.125c.15-.816.637-1.575 1.322-2.125z" fill="#1A283B"/><path d="M39.717 30.215a5.678 5.678 0 100-11.356 5.678 5.678 0 000 11.356z" fill="#BFE5F8"/><path d="M35.008 15.006v.85a1.85 1.85 0 001.85 1.85h5.718a1.85 1.85 0 001.85-1.85v-.85h-9.418zm4.71 26.132a1.784 1.784 0 100-3.568 1.784 1.784 0 000 3.568z" fill="#94B2BE"/><path d="M42.022 24.128s-.639-.204-.81.03a1.852 1.852 0 01-2.994.001l-.49-.145s-.13.042-.295.105a3.184 3.184 0 00-1.982 3.565l.12.631a.422.422 0 00.115.218 5.66 5.66 0 004.03 1.681 5.66 5.66 0 004.026-1.674c.06-.06.1-.136.115-.219l.126-.664a3.152 3.152 0 00-1.96-3.529z" fill="url(#paint1_linear_747_296359)"/><path d="M39.714 25.763a2.696 2.696 0 100-5.392 2.696 2.696 0 000 5.392z" fill="url(#paint2_linear_747_296359)"/><path d="M19.802 9.74a.421.421 0 00-.64.304 3.1 3.1 0 01-1.326 2.156.422.422 0 00.017.706l5.683 3.506a.422.422 0 00.642-.333 3.095 3.095 0 011.182-2.245.421.421 0 00-.04-.69L19.803 9.74zm-6.805.085a.422.422 0 00-.617-.348L5.855 12.89a.422.422 0 00-.066.704 3.095 3.095 0 011.173 2.242.422.422 0 00.616.349l6.522-3.412a.422.422 0 00.067-.704 3.094 3.094 0 01-1.17-2.244zm25.61-3.914a.421.421 0 00-.662-.187l-9.013 7.273a.422.422 0 00.034.681 3.102 3.102 0 011.372 2.145.421.421 0 00.681.268l9.45-7.626a.422.422 0 00-.106-.718 3.111 3.111 0 01-1.756-1.836zm-18.74 4.86l4.537 2.798a3.936 3.936 0 00-.968 1.79L18.8 12.501a3.946 3.946 0 001.066-1.73zm-7.625-.27a3.93 3.93 0 00.941 1.8l-5.467 2.86a3.934 3.934 0 00-.943-1.8l5.47-2.86zm25.805-3.776c.325.61.806 1.124 1.389 1.49l-8.428 6.801a3.952 3.952 0 00-1.13-1.7l8.17-6.59z" fill="#112E49"/><path d="M16.09 5.7a3.944 3.944 0 00-3.942 3.941 3.944 3.944 0 003.942 3.942 3.944 3.944 0 003.942-3.942 3.944 3.944 0 00-3.942-3.942zm0 .842a3.1 3.1 0 013.1 3.099 3.1 3.1 0 01-3.1 3.099 3.1 3.1 0 01-3.098-3.099 3.1 3.1 0 013.098-3.099zm11.182 5.79a3.944 3.944 0 00-3.942 3.942 3.944 3.944 0 003.942 3.942 3.944 3.944 0 003.942-3.942 3.944 3.944 0 00-3.942-3.942zm0 .843a3.1 3.1 0 013.099 3.099 3.1 3.1 0 01-3.099 3.099 3.1 3.1 0 01-3.099-3.1 3.1 3.1 0 013.1-3.098zM41.53.934a3.944 3.944 0 00-3.942 3.941 3.944 3.944 0 003.942 3.942 3.944 3.944 0 003.941-3.942A3.943 3.943 0 0041.53.934zm0 .843a3.1 3.1 0 013.099 3.098 3.1 3.1 0 11-3.099-3.099zm-1.816 18.594a2.697 2.697 0 000 5.392 2.697 2.697 0 000-5.392zm0 .843a1.854 1.854 0 010 3.706 1.854 1.854 0 010-3.706z" fill="#112E49"/><path d="M39.717 18.86a5.68 5.68 0 00-5.678 5.677 5.68 5.68 0 005.678 5.678 5.68 5.68 0 005.678-5.678 5.68 5.68 0 00-5.678-5.678zm0 .843a4.837 4.837 0 014.834 4.834 4.837 4.837 0 01-4.834 4.835 4.837 4.837 0 01-4.835-4.835 4.837 4.837 0 014.835-4.834z" fill="#112E49"/><path d="M42.022 24.128s-.639-.204-.81.03a1.852 1.852 0 01-2.994.001l-.49-.145s-.13.042-.295.105a3.184 3.184 0 00-1.982 3.565l.12.631a.422.422 0 00.115.218 5.66 5.66 0 004.03 1.681 5.66 5.66 0 004.026-1.674c.06-.06.1-.136.115-.219l.126-.664a3.152 3.152 0 00-1.96-3.529zm-.334.776l.034.012a2.309 2.309 0 011.433 2.584l-.101.534a4.818 4.818 0 01-3.337 1.337 4.818 4.818 0 01-3.342-1.342l-.096-.502a2.34 2.34 0 011.454-2.62l.009-.003a2.69 2.69 0 003.946 0z" fill="#112E49"/><path d="M48 18.286a3.28 3.28 0 00-3.28-3.28H34.717a3.28 3.28 0 00-3.28 3.28v21.44a3.28 3.28 0 003.28 3.28H44.72a3.28 3.28 0 003.28-3.28v-21.44zm-.842 0v21.44a2.437 2.437 0 01-2.437 2.436H34.716a2.437 2.437 0 01-2.437-2.437V18.286a2.437 2.437 0 012.437-2.437H44.72a2.437 2.437 0 012.437 2.437z" fill="#112E49"/><path d="M35.43 15.006a.421.421 0 00-.422.421v.428a1.85 1.85 0 001.85 1.851h5.718a1.85 1.85 0 001.85-1.85v-.429a.422.422 0 00-.421-.421h-8.576zm.42.843h7.733v.006a1.008 1.008 0 01-1.007 1.008h-5.718a1.008 1.008 0 01-1.007-1.008v-.006zm3.867 21.721a1.785 1.785 0 10.002 3.57 1.785 1.785 0 00-.002-3.57zm0 .843a.941.941 0 110 1.883.941.941 0 010-1.883zm-5.577-5.695h11.154a.422.422 0 000-.843H34.14a.422.422 0 000 .843zm0 3.014h11.154a.422.422 0 000-.843H34.14a.422.422 0 000 .843zm-18.484-7.244a.422.422 0 00-.422.422v3.655c0 .233.19.422.422.422H29.74a.421.421 0 00.422-.422V28.91a.422.422 0 00-.422-.422H15.656zm.422.843h13.24v2.813h-13.24v-2.813zm1.879-4.909a1.424 1.424 0 10.001 2.849 1.424 1.424 0 00-.001-2.85zm0 .843a.58.58 0 110 1.162.58.58 0 010-1.162zm4.743-.843a1.424 1.424 0 100 2.849 1.424 1.424 0 000-2.85zm0 .843a.581.581 0 11-.001 1.162.581.581 0 010-1.162zm4.741-.843a1.424 1.424 0 10.002 2.849 1.424 1.424 0 00-.002-2.85zm0 .843a.581.581 0 110 1.162.581.581 0 010-1.162zM3.87 12.084a3.944 3.944 0 00-3.942 3.942 3.944 3.944 0 003.942 3.942 3.944 3.944 0 003.942-3.942 3.944 3.944 0 00-3.942-3.942zm0 .843a3.1 3.1 0 013.098 3.099 3.1 3.1 0 01-3.098 3.099 3.1 3.1 0 01-3.1-3.1 3.1 3.1 0 013.1-3.098z" fill="#112E49"/><path d="M34.714 15.85h5.478a.422.422 0 00.421-.422V8.133a.422.422 0 00-.261-.39 3.101 3.101 0 01-1.883-3.369.421.421 0 00-.244-.452 4.035 4.035 0 00-1.647-.352H8.818a4.036 4.036 0 00-4.035 4.036v5.163c0 .17.103.325.261.39a3.102 3.102 0 011.923 2.867 3.101 3.101 0 01-1.923 2.868.422.422 0 00-.26.39v6.012a4.036 4.036 0 004.035 4.035h23.036a.422.422 0 00.422-.421V18.287a2.437 2.437 0 012.437-2.437zm0-.843a3.28 3.28 0 00-3.28 3.28v10.2H8.818a3.192 3.192 0 01-3.193-3.191v-5.741a3.943 3.943 0 000-7.057V7.606A3.193 3.193 0 018.82 4.413h27.759a3.2 3.2 0 011.018.167 3.943 3.943 0 002.174 3.824v6.602h-5.056z" fill="#112E49"/><path d="M32.277 22.783a.422.422 0 00-.422-.422H5.205a.422.422 0 00-.422.422v2.513a4.036 4.036 0 004.036 4.036h23.036a.422.422 0 00.422-.422v-6.127zm-.844.421v5.284H8.82a3.193 3.193 0 01-3.193-3.192v-2.091h25.807zm.506 14.267a.422.422 0 00.337-.413V32.61a.42.42 0 00-.337-.413 2.695 2.695 0 00-.54-.054H13.996a2.693 2.693 0 00-2.691 2.691 2.693 2.693 0 002.691 2.692H31.4c.185 0 .366-.02.54-.055zm-.506-.789H13.996a1.85 1.85 0 010-3.696h17.437v3.696z" fill="#112E49"/><defs><linearGradient id="paint0_linear_747_296359" x1="18.53" y1="22.361" x2="18.53" y2="29.332" gradientUnits="userSpaceOnUse"><stop stop-color="#4396D2"/><stop offset="1" stop-color="#1E6CB4"/></linearGradient><linearGradient id="paint1_linear_747_296359" x1="39.717" y1="24.014" x2="39.717" y2="30.214" gradientUnits="userSpaceOnUse"><stop stop-color="#4396D2"/><stop offset="1" stop-color="#1E6CB4"/></linearGradient><linearGradient id="paint2_linear_747_296359" x1="39.714" y1="20.371" x2="39.714" y2="25.763" gradientUnits="userSpaceOnUse"><stop stop-color="#F5C038"/><stop offset="1" stop-color="#E7B229"/></linearGradient></defs></svg>