<svg width="48" height="48" viewBox="0 0 48 48" fill="none" xmlns="http://www.w3.org/2000/svg">
<path d="M11.25 32.3438H14.0625V48H11.25V32.3438Z" fill="url(#paint0_linear_747_297778)"/>
<path d="M12.6562 32.3438H14.0625V48H12.6562V32.3438Z" fill="black" fill-opacity="0.2"/>
<path opacity="0.2" d="M48 9.84375V42.1875H16.875V0H38.1562L40.6172 7.38281L48 9.84375Z" fill="url(#paint1_linear_747_297778)"/>
<path d="M48 9.84375V42.1875H32.4375V0H38.1562L40.6172 7.38281L48 9.84375Z" fill="black" fill-opacity="0.2"/>
<path d="M48 9.84375L38.1562 0V9.84375H48Z" fill="#1C6FBC"/>
<path d="M12.6562 8.4375C5.6775 8.4375 0 14.115 0 21.0938C0 28.0725 5.6775 33.75 12.6562 33.75C19.635 33.75 25.3125 28.0725 25.3125 21.0938C25.3125 14.115 19.635 8.4375 12.6562 8.4375Z" fill="url(#paint2_linear_747_297778)"/>
<path d="M25.3125 21.0938C25.3125 28.0725 19.635 33.75 12.6562 33.75V8.4375C19.635 8.4375 25.3125 14.115 25.3125 21.0938Z" fill="black" fill-opacity="0.2"/>
<path d="M12.6562 30.9375C18.0928 30.9375 22.5 26.5303 22.5 21.0938C22.5 15.6572 18.0928 11.25 12.6562 11.25C7.2197 11.25 2.8125 15.6572 2.8125 21.0938C2.8125 26.5303 7.2197 30.9375 12.6562 30.9375Z" fill="#E6F1FF"/>
<path d="M22.5 21.0938C22.5 26.5219 18.0844 30.9375 12.6562 30.9375V11.25C18.0844 11.25 22.5 15.6656 22.5 21.0938Z" fill="#D5E8FE"/>
<path d="M5.625 19.6875H8.4375V25.3125H5.625V19.6875Z" fill="#FED843"/>
<path d="M11.25 14.0625H14.0625V25.3125H11.25V14.0625Z" fill="#7ED8F6"/>
<path d="M12.6562 14.0625H14.0625V25.3125H12.6562V14.0625Z" fill="#6AA9FF"/>
<path d="M16.875 16.875H19.6875V25.3125H16.875V16.875Z" fill="#F03800"/>
<path d="M29.7188 16.875H40.9688V19.6875H29.7188V16.875Z" fill="#61729B"/>
<path d="M28.3125 22.5H40.9688V25.3125H28.3125V22.5Z" fill="#61729B"/>
<path d="M26.9062 28.125H40.9688V30.9375H26.9062V28.125Z" fill="#61729B"/>
<path d="M32.4375 16.875H40.9688V19.6875H32.4375V16.875Z" fill="#47568C"/>
<path d="M32.4375 22.5H40.9688V25.3125H32.4375V22.5Z" fill="#47568C"/>
<path d="M32.4375 28.125H40.9688V30.9375H32.4375V28.125Z" fill="#47568C"/>
<defs>
<linearGradient id="paint0_linear_747_297778" x1="12.6562" y1="32.3438" x2="12.6562" y2="48" gradientUnits="userSpaceOnUse">
<stop stop-color="#4396D2"/>
<stop offset="1" stop-color="#1E6CB4"/>
</linearGradient>
<linearGradient id="paint1_linear_747_297778" x1="32.4375" y1="0" x2="32.4375" y2="42.1875" gradientUnits="userSpaceOnUse">
<stop stop-color="#4396D2"/>
<stop offset="1" stop-color="#1E6CB4"/>
</linearGradient>
<linearGradient id="paint2_linear_747_297778" x1="12.6562" y1="8.4375" x2="12.6563" y2="33.75" gradientUnits="userSpaceOnUse">
<stop stop-color="#4396D2"/>
<stop offset="1" stop-color="#1E6CB4"/>
</linearGradient>
</defs>
</svg>
