<svg width="17" height="17" viewBox="0 0 17 17" fill="none" xmlns="http://www.w3.org/2000/svg">
<path fill-rule="evenodd" clip-rule="evenodd" d="M13.125 11.25C12.0895 11.25 11.25 12.0895 11.25 13.125C11.25 14.1605 12.0895 15 13.125 15C14.1605 15 15 14.1605 15 13.125C15 12.0895 14.1605 11.25 13.125 11.25ZM9.75 13.125C9.75 11.261 11.261 9.75 13.125 9.75C14.989 9.75 16.5 11.261 16.5 13.125C16.5 14.989 14.989 16.5 13.125 16.5C11.261 16.5 9.75 14.989 9.75 13.125Z" fill="black"/>
<path fill-rule="evenodd" clip-rule="evenodd" d="M3.375 1.5C2.33947 1.5 1.5 2.33947 1.5 3.375C1.5 4.41053 2.33947 5.25 3.375 5.25C4.41053 5.25 5.25 4.41053 5.25 3.375C5.25 2.33947 4.41053 1.5 3.375 1.5ZM0 3.375C0 1.51104 1.51104 0 3.375 0C5.23896 0 6.75 1.51104 6.75 3.375C6.75 5.23896 5.23896 6.75 3.375 6.75C1.51104 6.75 0 5.23896 0 3.375Z" fill="black"/>
<path fill-rule="evenodd" clip-rule="evenodd" d="M15.5303 0.96967C15.8232 1.26256 15.8232 1.73744 15.5303 2.03033L2.03033 15.5303C1.73744 15.8232 1.26256 15.8232 0.96967 15.5303C0.676777 15.2374 0.676777 14.7626 0.96967 14.4697L14.4697 0.96967C14.7626 0.676777 15.2374 0.676777 15.5303 0.96967Z" fill="black"/>
<path opacity="0.5" d="M13.125 15.75C14.5747 15.75 15.75 14.5747 15.75 13.125C15.75 11.6753 14.5747 10.5 13.125 10.5C11.6753 10.5 10.5 11.6753 10.5 13.125C10.5 14.5747 11.6753 15.75 13.125 15.75Z" fill="url(#paint0_linear_955_12047)"/>
<path opacity="0.5" d="M3.375 6C4.82475 6 6 4.82475 6 3.375C6 1.92525 4.82475 0.75 3.375 0.75C1.92525 0.75 0.75 1.92525 0.75 3.375C0.75 4.82475 1.92525 6 3.375 6Z" fill="url(#paint1_linear_955_12047)"/>
<defs>
<linearGradient id="paint0_linear_955_12047" x1="13.125" y1="10.5" x2="13.125" y2="15.75" gradientUnits="userSpaceOnUse">
<stop stop-color="#4396D2"/>
<stop offset="1" stop-color="#1E6CB4"/>
</linearGradient>
<linearGradient id="paint1_linear_955_12047" x1="3.375" y1="0.75" x2="3.375" y2="6" gradientUnits="userSpaceOnUse">
<stop stop-color="#4396D2"/>
<stop offset="1" stop-color="#1E6CB4"/>
</linearGradient>
</defs>
</svg>
