<svg width="72" height="56" viewBox="0 0 72 56" fill="none" xmlns="http://www.w3.org/2000/svg">
<path d="M1 29.7522C2.25561 30.0789 5.42601 30.3402 8.06278 28.772C10.6996 27.2038 13.87 23.8713 15.1256 22.4011C16.5381 20.3319 21.6861 17.7945 30.9776 24.198C40.2691 30.6016 46.8819 22.6189 49.0269 17.8271L53.8924 7.86241C56.7175 1.81822 64.5942 -5.53557 71.5 12.499" stroke="#1C6FBC" stroke-linecap="round"/>
<path d="M7.26457 29.334C4.55247 30.934 1.29148 30.6673 0 30.334V56H36H72V12.5012C64.8969 -5.89836 57.3094 1.83477 54.4036 8.00127L49.3991 18.1677C47.1928 23.0564 40.391 31.2007 30.8341 24.6675C21.2771 18.1343 15.9821 20.7232 14.5291 22.8342C13.2377 24.3342 9.97668 27.7341 7.26457 29.334Z" fill="url(#paint0_linear_1024_31103)"/>
<defs>
<linearGradient id="paint0_linear_1024_31103" x1="29.0323" y1="-39.6522" x2="29.8377" y2="66.3621" gradientUnits="userSpaceOnUse">
<stop stop-color="#1C6FBC" stop-opacity="0.72"/>
<stop offset="0.962855" stop-color="white" stop-opacity="0"/>
</linearGradient>
</defs>
</svg>
