<svg width="13" height="16" fill="none" xmlns="http://www.w3.org/2000/svg"><path fill-rule="evenodd" clip-rule="evenodd" d="M4.129 1.835v-.416c0-.229.23-.415.514-.415h2.888c.285 0 .516.186.516.415v.416H4.129zm6.255 1.038c-.06 1.569-.433 11.182-.48 11.615-.028.259-.124.386-.175.438H2.445c-.052-.052-.147-.18-.174-.438-.047-.433-.464-10.039-.532-11.615h8.645zM9.08 1.835v-.416A1.45 1.45 0 007.634-.035H4.54a1.45 1.45 0 00-1.445 1.454v.416H0v1.038h.706l.536 11.992c.01.045.24 1.1 1.131 1.1H9.8c.892 0 1.123-1.055 1.136-1.134l.508-11.958h.73V1.835H9.08zm-.21 1.87H7.834l-.322 10.39h1.034l.322-10.39zm-3.3 10.39h1.034V3.705H5.57v10.39zm-.91 0l-.322-10.39H3.304l.322 10.39h1.035z" fill="#868F98"/></svg>