<svg width="15" height="13" fill="none" xmlns="http://www.w3.org/2000/svg"><path fill-rule="evenodd" clip-rule="evenodd" d="M10 7a.5.5 0 01.5-.5h1a.5.5 0 010 1h-1A.5.5 0 0110 7zm0 2.5a.5.5 0 01.5-.5h1a.5.5 0 010 1h-1a.5.5 0 01-.5-.5zm-7 0a.5.5 0 01.5-.5h2a.5.5 0 010 1h-2a.5.5 0 01-.5-.5zM4 7a.5.5 0 01.5-.5h2a.5.5 0 010 1h-2A.5.5 0 014 7zM3 3a.5.5 0 01.5-.5h2a.5.5 0 010 1h-2A.5.5 0 013 3z" fill="#fff"/><path fill-rule="evenodd" clip-rule="evenodd" d="M8 4.5a.5.5 0 01.5-.5H13a1 1 0 011 1v7a.5.5 0 01-1 0V5H8.5a.5.5 0 01-.5-.5z" fill="#fff"/><path fill-rule="evenodd" clip-rule="evenodd" d="M1.293.293A1 1 0 012 0h6a1 1 0 011 1v11a.5.5 0 01-1 0V1H2v11a.5.5 0 01-1 0V1a1 1 0 01.293-.707z" fill="#fff"/><path fill-rule="evenodd" clip-rule="evenodd" d="M0 12a.5.5 0 01.5-.5h14a.5.5 0 010 1H.5A.5.5 0 010 12z" fill="#fff"/><path opacity=".2" d="M8.5 12V1A.5.5 0 008 .5H2a.5.5 0 00-.5.5v11" fill="#fff"/></svg>