<svg width="16" height="16" fill="none" xmlns="http://www.w3.org/2000/svg"><path opacity=".36" d="M8 9.5a11.945 11.945 0 01-6-1.605V13a.5.5 0 00.5.5h11a.5.5 0 00.5-.5V7.895A11.945 11.945 0 018 9.5z" fill="#4D5A65"/><path fill-rule="evenodd" clip-rule="evenodd" d="M1.5 5a1 1 0 011-1h11a1 1 0 011 1v8a1 1 0 01-1 1h-11a1 1 0 01-1-1V5zm12 0h-11v8h11V5z" fill="#112E49"/><path fill-rule="evenodd" clip-rule="evenodd" d="M5.44 2.44A1.5 1.5 0 016.5 2h3A1.5 1.5 0 0111 3.5v1a.5.5 0 01-1 0v-1a.5.5 0 00-.5-.5h-3a.5.5 0 00-.5.5v1a.5.5 0 01-1 0v-1c0-.398.158-.78.44-1.06zm8.994 5.204a.5.5 0 01-.183.683A12.445 12.445 0 018.001 10a12.445 12.445 0 01-6.25-1.672.5.5 0 01.5-.866A11.445 11.445 0 007.999 9h.002a11.445 11.445 0 005.75-1.538.5.5 0 01.683.182z" fill="#112E49"/><path fill-rule="evenodd" clip-rule="evenodd" d="M6.75 7.5a.5.5 0 01.5-.5h1.5a.5.5 0 010 1h-1.5a.5.5 0 01-.5-.5z" fill="#112E49"/></svg>