<svg width="20" height="19" fill="none" xmlns="http://www.w3.org/2000/svg"><path fill-rule="evenodd" clip-rule="evenodd" d="M13.5 5.25a.75.75 0 01.75-.75H18A1.5 1.5 0 0119.5 6v12a.75.75 0 01-1.221.583l-3.505-2.833H6a1.5 1.5 0 01-1.5-1.5V10.5a.75.75 0 011.5 0v3.75h9.04a.75.75 0 01.47.167L18 16.429V6h-3.75a.75.75 0 01-.75-.75z" fill="#1C6FBC"/><path fill-rule="evenodd" clip-rule="evenodd" d="M.44.44A1.5 1.5 0 011.5 0h12A1.5 1.5 0 0115 1.5v8.25a1.5 1.5 0 01-1.5 1.5H4.726l-3.504 2.833A.75.75 0 010 13.5v-12C0 1.102.158.72.44.44zM13.5 1.5h-12v10.43l2.49-2.013a.75.75 0 01.47-.167h9.04V1.5z" fill="#1C6FBC"/></svg>