<svg width="14" height="13" fill="none" xmlns="http://www.w3.org/2000/svg"><path fill-rule="evenodd" clip-rule="evenodd" d="M3.5.5A.5.5 0 014 0h7.617a1.5 1.5 0 011.489 1.314l.75 6A1.5 1.5 0 0112.367 9H9v1a2.5 2.5 0 01-2.5 2.5.5.5 0 01-.447-.276l-2.5-5a.5.5 0 11.894-.448l2.348 4.695a1.495 1.495 0 001.09-.897A1.5 1.5 0 008 10V8.5a.5.5 0 01.5-.5h3.867a.5.5 0 00.496-.562l-.75-6A.5.5 0 0011.617 1H4a.5.5 0 01-.5-.5z" fill="#E44F4F"/><path fill-rule="evenodd" clip-rule="evenodd" d="M.293.293A1 1 0 011 0h3a.5.5 0 01.5.5V7a.5.5 0 01-.5.5H1a1 1 0 01-1-1V1A1 1 0 01.293.293zM1 1v5.5h2.5V1H1z" fill="#E44F4F"/></svg>