<svg width="15" height="10" fill="none" xmlns="http://www.w3.org/2000/svg"><path fill-rule="evenodd" clip-rule="evenodd" d="M7.5 3a2 2 0 100 4 2 2 0 000-4zm-3 2a3 3 0 116 0 3 3 0 01-6 0z" fill="#868F98"/><path fill-rule="evenodd" clip-rule="evenodd" d="M1.771 2.397C2.963 1.205 4.834 0 7.5 0s4.537 1.205 5.729 2.397a9.459 9.459 0 011.304 1.634 7.977 7.977 0 01.415.747l.006.013.002.004v.002L14.5 5l.457.204-.001.002-.002.004-.006.013a3.04 3.04 0 01-.1.203 9.463 9.463 0 01-1.619 2.178C12.037 8.796 10.165 10 7.5 10S2.963 8.796 1.771 7.604A9.458 9.458 0 01.468 5.97a7.977 7.977 0 01-.416-.747L.046 5.21l-.002-.004v-.002L.5 5a46.944 46.944 0 01-.457-.203l.001-.002.002-.004.006-.013a3.14 3.14 0 01.1-.203c.07-.133.175-.32.315-.544a9.46 9.46 0 011.304-1.634zM.5 5l-.457-.203a.5.5 0 000 .407L.5 5zm.56 0c.058-.11.142-.26.254-.436a8.46 8.46 0 011.165-1.46C3.537 2.046 5.166 1 7.5 1s3.963 1.046 5.021 2.104A8.438 8.438 0 0113.941 5a8.457 8.457 0 01-1.42 1.896C11.463 7.956 9.835 9 7.5 9S3.537 7.955 2.479 6.897a8.459 8.459 0 01-1.165-1.46A7.112 7.112 0 011.059 5zM14.5 5l.457.204a.5.5 0 000-.407L14.5 5z" fill="#868F98"/></svg>