<svg width="16" height="16" fill="none" xmlns="http://www.w3.org/2000/svg"><path opacity=".2" d="M12.5 9.553l-2.3 2.3a.5.5 0 01-.475.132l-3.622-.906a.5.5 0 01-.187-.091L2.5 8.316l2.036-3.83 3.207-.935a.5.5 0 01.346.025l2.161.977H8.957a.5.5 0 00-.353.147L6.158 7.146a.5.5 0 00.053.753l.339.254a2 2 0 002.4 0l.8-.6 2.75 2z" fill="#4D5A65"/><path fill-rule="evenodd" clip-rule="evenodd" d="M12.837 3.326a1 1 0 011.334.432L15.708 6.7l-.444.232.444-.232c.061.118.098.247.11.38m-3.64-2.308l1.538 2.944 1.105-.553m-2.642-2.39l1.105-.553 1.537 2.943m-1.984-3.838l-1.56.78 1.56-.78zm-1.56.78a.5.5 0 00-.253.294l.252-.293zm-.253.294a.5.5 0 00.033.385l-.033-.385zm.033.385l2 3.83-2-3.83zm4.76 2.295a.999.999 0 01-.549.979l-1.544.772a.5.5 0 01-.667-.216M3.163 3.26l-.223.445.223-.445 1.56.78a.5.5 0 01.22.679l-2 3.83a.5.5 0 01-.667.216L.731 7.992l.224-.447-.224.447a1 1 0 01-.439-1.357L1.83 3.691a1 1 0 011.334-.431zm.658 1.447l-1.105-.553.223-.447-.223.447-1.537 2.944 1.105.553 1.537-2.944z" fill="#000"/><path fill-rule="evenodd" clip-rule="evenodd" d="M2.106 8.008a.5.5 0 01.702-.085l3.416 2.671 3.623.906 2.286-2.286.987-1.155a.5.5 0 11.76.65l-1 1.17a.517.517 0 01-.026.028l-2.3 2.3a1 1 0 01-.95.263l-3.622-.906a.999.999 0 01-.374-.182L2.192 8.71a.5.5 0 01-.086-.702z" fill="#000"/><path fill-rule="evenodd" clip-rule="evenodd" d="M8.574 4.13a1 1 0 01.383-.075H11.5a.5.5 0 110 1H8.957L6.511 7.5l-.294-.295.294.295.339.254a1.5 1.5 0 001.8 0l.8-.6a.5.5 0 01.594-.005l2.75 2a.5.5 0 01-.588.81L9.755 8.175l-.505.379a2.5 2.5 0 01-3 0L5.911 8.3a1 1 0 01-.107-1.508L8.25 4.348a1 1 0 01.324-.217z" fill="#000"/><path fill-rule="evenodd" clip-rule="evenodd" d="M7.603 3.071a1 1 0 01.692.05l2.161.977a.5.5 0 11-.412.91l-2.16-.977-3.208.935a.5.5 0 01-.28-.96l3.207-.935.14.48-.14-.48z" fill="#000"/></svg>