<svg width="16" height="11" fill="none" xmlns="http://www.w3.org/2000/svg"><path fill-rule="evenodd" clip-rule="evenodd" d="M7.425.04a1 1 0 01.692.049l2.16.978a.5.5 0 01-.411.91L7.705 1l-3.208.935a.5.5 0 01-.28-.96L7.426.04l.14.48-.14-.48z" fill="#fff"/><path fill-rule="evenodd" clip-rule="evenodd" d="M8.396 1.1a1 1 0 01.383-.077h2.543a.5.5 0 010 1H8.779L6.333 4.47l-.295-.294.295.294.339.254a1.5 1.5 0 001.8 0l.8-.6a.5.5 0 01.594-.004l2.75 2a.5.5 0 01-.588.809L9.576 5.145l-.504.378a2.5 2.5 0 01-3 0l-.339-.254a1 1 0 01-.107-1.507l2.446-2.446a1 1 0 01.324-.216z" fill="#fff"/><path fill-rule="evenodd" clip-rule="evenodd" d="M1.927 4.977a.5.5 0 01.702-.086l3.417 2.672 3.622.905 2.286-2.286.987-1.155a.5.5 0 01.76.65l-1 1.17a.517.517 0 01-.026.029l-2.3 2.3a1 1 0 01-.95.262l-3.622-.905a1 1 0 01-.373-.183L2.013 5.68a.5.5 0 01-.086-.703z" fill="#fff"/><path fill-rule="evenodd" clip-rule="evenodd" d="M2.984.229l-.222.445.222-.445 1.56.78a.5.5 0 01.22.679l-2 3.83a.5.5 0 01-.666.215L.553 4.961l.223-.447-.223.447a1 1 0 01-.44-1.357L1.652.66A1 1 0 012.984.23zm.658 1.447l-1.105-.553.224-.447-.224.447L1 4.067l1.105.552 1.537-2.943zM12.658.295a1 1 0 011.334.432l1.537 2.943-.443.232.443-.232c.061.118.099.247.11.379M12 1.742l1.537 2.944 1.105-.553M12 1.743l1.105-.554 1.537 2.944M12.659.295l-1.56.78zm-1.56.78a.5.5 0 00-.252.294zm-.252.294a.5.5 0 00.032.385zm.032.385l2 3.83zm4.761 2.295a.999.999 0 01-.55.978l-1.544.773a.5.5 0 01-.667-.216" fill="#fff"/><path opacity=".2" d="M12.321 6.522l-2.3 2.3a.5.5 0 01-.474.131l-3.623-.905a.5.5 0 01-.186-.091L2.32 5.285l2.036-3.83L7.565.52a.5.5 0 01.346.024l2.16.978H8.778a.5.5 0 00-.353.147L5.979 4.114a.5.5 0 00.053.754l.34.254a2 2 0 002.4 0l.8-.6 2.75 2z" fill="#fff"/></svg>