<svg width="14" height="13" fill="none" xmlns="http://www.w3.org/2000/svg"><path fill-rule="evenodd" clip-rule="evenodd" d="M6.053.276A.5.5 0 016.5 0 2.5 2.5 0 019 2.5v1h3.367a1.5 1.5 0 011.489 1.686l-.75 6a1.5 1.5 0 01-1.489 1.314H4a.5.5 0 010-1h7.617a.5.5 0 00.496-.438l.75-6a.5.5 0 00-.496-.562H8.5A.5.5 0 018 4V2.5a1.5 1.5 0 00-1.205-1.47L4.447 5.723a.5.5 0 11-.894-.448l2.5-5z" fill="#868F98"/><path fill-rule="evenodd" clip-rule="evenodd" d="M.293 5.293A1 1 0 011 5h3a.5.5 0 01.5.5V12a.5.5 0 01-.5.5H1a1 1 0 01-1-1V6a1 1 0 01.293-.707zM1 6v5.5h2.5V6H1z" fill="#868F98"/></svg>