<svg width="15" height="17" fill="none" xmlns="http://www.w3.org/2000/svg"><path d="M5.755.208C3.67.625 1.17 3.958 1.17 6.458l.834-.416.833-2.083 1.25-1.667C4.504 2.014 5.42 1.209 5.754.208z" fill="#868F98"/><path fill-rule="evenodd" clip-rule="evenodd" d="M7.46 1.25a4.992 4.992 0 00-5.023 5v.625c0 2.886-.604 4.623-1.186 5.623v.002h12.342l-.001-.002c-.581-1-1.186-2.737-1.186-5.623V6.32c0-2.77-2.208-5.05-4.946-5.07zM5.066.465A6.242 6.242 0 017.468 0h.001c3.448.026 6.187 2.888 6.187 6.32v.555c0 2.71.567 4.22 1.017 4.995l-.54.314.539-.316a1.25 1.25 0 01-1.076 1.882h-3.05a3.125 3.125 0 01-6.25 0H1.247A1.25 1.25 0 01.17 11.87c.45-.776 1.016-2.286 1.016-4.995 0 0-.011-.381 0-.625m4.36 7.5a1.875 1.875 0 103.75 0h-3.75z" fill="#868F98"/></svg>