<svg width="21" height="22" fill="none" xmlns="http://www.w3.org/2000/svg"><path d="M.875 8.167V1.75A.875.875 0 011.75.875h17.5a.875.875 0 01.875.875v6.417c0 9.189-7.8 12.233-9.356 12.75a.825.825 0 01-.538 0C8.674 20.4.875 17.356.875 8.167z" fill="url(#paint0_linear_981_12094)"/><path fill-rule="evenodd" clip-rule="evenodd" d="M.513.513A1.75 1.75 0 011.75 0h17.5A1.75 1.75 0 0121 1.75v6.417c0 9.805-8.338 13.043-9.952 13.579a1.7 1.7 0 01-1.096 0C8.338 21.21 0 17.972 0 8.166V1.75C0 1.286.184.84.513.513zM19.25 1.75H1.75v6.417c0 8.552 7.225 11.41 8.75 11.917 1.525-.507 8.75-3.365 8.75-11.917V1.75z" fill="url(#paint1_linear_981_12094)"/><path fill-rule="evenodd" clip-rule="evenodd" d="M15.945 6.396a.875.875 0 01-.028 1.237L9.5 13.758a.875.875 0 01-1.208 0l-3.209-3.063A.875.875 0 116.292 9.43l2.604 2.485 5.812-5.548a.875.875 0 011.237.029z" fill="#fff"/><defs><linearGradient id="paint0_linear_981_12094" x1="10.5" y1=".875" x2="10.5" y2="20.962" gradientUnits="userSpaceOnUse"><stop stop-color="#43D26B"/><stop offset="1" stop-color="#1EB463"/></linearGradient><linearGradient id="paint1_linear_981_12094" x1="10.5" y1="0" x2="10.5" y2="21.837" gradientUnits="userSpaceOnUse"><stop stop-color="#43D26B"/><stop offset="1" stop-color="#1EB463"/></linearGradient></defs></svg>