<svg width="16" height="16" fill="none" xmlns="http://www.w3.org/2000/svg"><path fill-rule="evenodd" clip-rule="evenodd" d="M16 8A8 8 0 110 8a8 8 0 0116 0zM8.287 5.906c-.778.324-2.334.993-4.666 2.01-.378.15-.577.297-.595.442-.03.243.274.339.69.47l.175.055c.408.133.958.288 1.243.294.26.006.548-.1.868-.32 2.179-1.471 3.304-2.214 3.374-2.23.05-.012.12-.026.166.016.047.041.042.12.037.141-.03.129-1.227 1.241-1.846 1.817-.193.18-.33.307-.358.336a8.154 8.154 0 01-.188.186c-.38.366-.664.64.015 1.088.327.216.588.393.85.571.284.194.568.387.936.628.093.062.183.126.27.188.331.236.63.448.997.414.214-.02.435-.22.547-.82.265-1.417.786-4.486.906-5.751a1.49 1.49 0 00-.013-.315.337.337 0 00-.114-.217.526.526 0 00-.31-.093c-.301.005-.763.166-2.984 1.09z" fill="#3197F5"/></svg>