<svg width="11" height="11" fill="none" xmlns="http://www.w3.org/2000/svg"><path fill-rule="evenodd" clip-rule="evenodd" d="M7.105 3.124a.375.375 0 010 .53L4.984 5.776a.375.375 0 01-.53-.53l2.12-2.122a.375.375 0 01.531 0z" fill="#868F98"/><path fill-rule="evenodd" clip-rule="evenodd" d="M9.28.028a.75.75 0 01.926.926L7.742 9.688a.75.75 0 01-1.4.117l-1.9-4.013-4.013-1.9a.75.75 0 01.117-1.4L9.281.028zm.204.722L.75 3.213l4.013 1.901-.16.34.16-.34a.75.75 0 01.357.357l-.34.16.34-.16 1.9 4.013L9.485.75z" fill="#868F98"/></svg>