<svg width="16" height="16" viewBox="0 0 16 16" fill="none" xmlns="http://www.w3.org/2000/svg">
<path opacity="0.36" d="M8 11.25C9.38071 11.25 10.5 10.1307 10.5 8.75C10.5 7.36929 9.38071 6.25 8 6.25C6.61929 6.25 5.5 7.36929 5.5 8.75C5.5 10.1307 6.61929 11.25 8 11.25Z" fill="#4D5A65"/>
<path opacity="0.36" d="M3.75 7.25C4.85457 7.25 5.75 6.35457 5.75 5.25C5.75 4.14543 4.85457 3.25 3.75 3.25C2.64543 3.25 1.75 4.14543 1.75 5.25C1.75 6.35457 2.64543 7.25 3.75 7.25Z" fill="#4D5A65"/>
<path opacity="0.2" d="M12.25 7.25C13.3546 7.25 14.25 6.35457 14.25 5.25C14.25 4.14543 13.3546 3.25 12.25 3.25C11.1454 3.25 10.25 4.14543 10.25 5.25C10.25 6.35457 11.1454 7.25 12.25 7.25Z" fill="#4D5A65"/>
<path fill-rule="evenodd" clip-rule="evenodd" d="M8 6.75C6.89543 6.75 6 7.64543 6 8.75C6 9.85457 6.89543 10.75 8 10.75C9.10457 10.75 10 9.85457 10 8.75C10 7.64543 9.10457 6.75 8 6.75ZM5 8.75C5 7.09315 6.34315 5.75 8 5.75C9.65685 5.75 11 7.09315 11 8.75C11 10.4069 9.65685 11.75 8 11.75C6.34315 11.75 5 10.4069 5 8.75Z" fill="#112E49"/>
<path fill-rule="evenodd" clip-rule="evenodd" d="M13.7038 8.09239C13.2525 7.86682 12.7549 7.74958 12.2504 7.75C11.9743 7.75023 11.7502 7.52656 11.75 7.25042C11.7498 6.97428 11.9734 6.75023 12.2496 6.75C12.9096 6.74945 13.5606 6.90282 14.1509 7.19793C14.7413 7.49304 15.2546 7.92174 15.6503 8.45C15.8158 8.67102 15.7708 8.98439 15.5498 9.14993C15.3288 9.31547 15.0154 9.27049 14.8499 9.04946C14.5474 8.64567 14.155 8.31797 13.7038 8.09239Z" fill="#112E49"/>
<path fill-rule="evenodd" clip-rule="evenodd" d="M3.74979 7.75C3.24528 7.74958 2.74762 7.86683 2.29636 8.09243C1.84509 8.31803 1.45266 8.64576 1.15024 9.04958C0.984717 9.27062 0.671349 9.31561 0.450316 9.15009C0.229284 8.98456 0.184288 8.67119 0.349815 8.45016C0.745448 7.92186 1.25884 7.49311 1.8492 7.19797C2.43955 6.90284 3.0906 6.74945 3.75062 6.75C4.02677 6.75023 4.25044 6.97428 4.25021 7.25042C4.24998 7.52656 4.02593 7.75023 3.74979 7.75Z" fill="#112E49"/>
<path fill-rule="evenodd" clip-rule="evenodd" d="M7.99982 11.75C7.34324 11.75 6.69989 11.9346 6.14321 12.2827C5.58652 12.6309 5.13893 13.1285 4.85152 13.7188C4.73064 13.9671 4.43138 14.0704 4.1831 13.9495C3.93482 13.8286 3.83154 13.5294 3.95242 13.2811C4.32191 12.5222 4.89733 11.8824 5.61299 11.4349C6.32865 10.9873 7.15573 10.75 7.99981 10.75C8.84389 10.75 9.67097 10.9873 10.3866 11.4349C11.1023 11.8824 11.6777 12.5221 12.0472 13.2811C12.1681 13.5293 12.0648 13.8286 11.8165 13.9495C11.5683 14.0704 11.269 13.9671 11.1481 13.7188C10.8607 13.1285 10.4131 12.6308 9.85643 12.2827C9.29974 11.9346 8.65639 11.75 7.99982 11.75Z" fill="#112E49"/>
<path fill-rule="evenodd" clip-rule="evenodd" d="M4.1232 3.79704C3.84752 3.72632 3.5574 3.7355 3.28674 3.82349C3.01608 3.91148 2.77603 4.07466 2.59464 4.29397C2.41324 4.51327 2.29798 4.77966 2.26231 5.06203C2.22665 5.34439 2.27205 5.63108 2.39322 5.8886C2.51438 6.14613 2.70632 6.36387 2.9466 6.5164C3.18688 6.66893 3.4656 6.74995 3.75021 6.75C4.02635 6.75005 4.25017 6.97395 4.25012 7.25009C4.25006 7.52624 4.02616 7.75005 3.75002 7.75C3.27568 7.74991 2.81115 7.61488 2.41067 7.36066C2.0102 7.10645 1.69031 6.74355 1.48837 6.31434C1.28642 5.88513 1.21075 5.40732 1.2702 4.93671C1.32964 4.46611 1.52174 4.02212 1.82407 3.65661C2.12639 3.29109 2.52647 3.01913 2.97758 2.87248C3.42868 2.72583 3.9122 2.71054 4.37167 2.8284C4.83114 2.94626 5.2476 3.19241 5.57241 3.5381C5.89722 3.88379 6.11699 4.31475 6.20604 4.78066C6.25788 5.05189 6.08003 5.31379 5.8088 5.36564C5.53756 5.41748 5.27566 5.23963 5.22382 4.9684C5.17039 4.68885 5.03853 4.43027 4.84364 4.22286C4.64875 4.01545 4.39888 3.86776 4.1232 3.79704Z" fill="#112E49"/>
<path fill-rule="evenodd" clip-rule="evenodd" d="M12.7136 3.82348C12.4429 3.73548 12.1528 3.72632 11.8771 3.79707C11.6013 3.86782 11.3514 4.01555 11.1565 4.22301C10.9616 4.43048 10.8298 4.68911 10.7764 4.96871C10.7246 5.23995 10.4627 5.41783 10.1914 5.36602C9.9202 5.31421 9.74232 5.05233 9.79413 4.78109C9.88313 4.31511 10.1029 3.88408 10.4277 3.53832C10.7525 3.19256 11.169 2.94635 11.6285 2.82845C12.088 2.71054 12.5716 2.72581 13.0228 2.87246C13.4739 3.01911 13.8741 3.2911 14.1764 3.65665C14.4788 4.02221 14.6709 4.46625 14.7304 4.93691C14.7898 5.40757 14.7141 5.88543 14.5121 6.31468C14.3101 6.74393 13.9902 7.10686 13.5896 7.36107C13.1891 7.61529 12.7245 7.7503 12.2501 7.75034C11.974 7.75036 11.7501 7.52652 11.7501 7.25038C11.75 6.97424 11.9739 6.75036 12.25 6.75034C12.5347 6.75031 12.8134 6.6693 13.0538 6.51677C13.2941 6.36423 13.4861 6.14647 13.6073 5.88891C13.7285 5.63134 13.7739 5.34461 13.7382 5.0622C13.7026 4.77979 13.5873 4.51336 13.4059 4.29402C13.2244 4.07467 12.9844 3.91147 12.7136 3.82348Z" fill="#112E49"/>
</svg>
