<svg width="16" height="12" fill="none" xmlns="http://www.w3.org/2000/svg"><path fill-rule="evenodd" clip-rule="evenodd" d="M12.464 1.073a1.5 1.5 0 00-1.938 1.146.5.5 0 01-.982-.188A2.5 2.5 0 1112 5.001a.5.5 0 010-1 1.5 1.5 0 00.464-2.928zm-8.591-.026A1.5 1.5 0 103.5 4a.5.5 0 110 1 2.5 2.5 0 112.456-2.97.5.5 0 01-.983.188 1.5 1.5 0 00-1.1-1.171zM7.75 9a3.502 3.502 0 00-3.148 1.969.5.5 0 11-.9-.438 4.502 4.502 0 018.096 0 .5.5 0 11-.9.438A3.502 3.502 0 007.75 9z" fill="#fff"/><path fill-rule="evenodd" clip-rule="evenodd" d="M3.5 5A3.244 3.244 0 00.9 6.3a.5.5 0 11-.8-.6A4.244 4.244 0 013.5 4a.5.5 0 010 1zm9.954.342A3.245 3.245 0 0012 5a.5.5 0 110-1 4.244 4.244 0 013.4 1.7.5.5 0 01-.8.6 3.245 3.245 0 00-1.146-.958zM7.75 4a2 2 0 100 4 2 2 0 000-4zm-3 2a3 3 0 116 0 3 3 0 01-6 0z" fill="#fff"/><path opacity=".2" d="M12 4.5a2 2 0 100-4 2 2 0 000 4z" fill="#fff"/><path opacity=".36" d="M3.5 4.5a2 2 0 100-4 2 2 0 000 4zm4.25 4a2.5 2.5 0 100-5 2.5 2.5 0 000 5z" fill="#fff"/></svg>