<svg width="48" height="37" fill="none" xmlns="http://www.w3.org/2000/svg"><path d="M1 18.411c0 6.51.672 10.328 1.184 12.29a3.481 3.481 0 002.107 2.384c7.323 2.814 19.459 2.737 19.459 2.737s12.136.077 19.46-2.737a3.482 3.482 0 002.106-2.383c.511-1.963 1.184-5.782 1.184-12.29 0-6.51-.672-10.329-1.184-12.292a3.48 3.48 0 00-2.107-2.383C35.886.923 23.75 1 23.75 1S11.614.923 4.29 3.737A3.482 3.482 0 002.185 6.12C1.672 8.083 1 11.902 1 18.411z" stroke="#fff" stroke-width="2" stroke-linecap="round" stroke-linejoin="round"/><path d="M30.75 18.41l-10.5-7v14l10.5-7z" stroke="#fff" stroke-width="2" stroke-linecap="round" stroke-linejoin="round"/></svg>