<svg width="10" height="11" viewBox="0 0 10 11" fill="none" xmlns="http://www.w3.org/2000/svg">
<path fill-rule="evenodd" clip-rule="evenodd" d="M6.53219 0.767482C6.75968 0.673254 7.0035 0.624756 7.24973 0.624756C7.49595 0.624756 7.73977 0.673254 7.96726 0.767482C8.19474 0.86171 8.40144 0.999821 8.57555 1.17393C8.74966 1.34804 8.88777 1.55474 8.982 1.78222C9.07623 2.00971 9.12473 2.25353 9.12473 2.49976C9.12473 2.74598 9.07623 2.9898 8.982 3.21729C8.88794 3.44436 8.75017 3.65072 8.5765 3.82463C8.57619 3.82495 8.57587 3.82526 8.57555 3.82558L3.9205 8.54549C3.70952 8.75646 3.42337 8.87498 3.125 8.87498C2.82663 8.87498 2.54048 8.75646 2.32951 8.54548C2.11853 8.3345 2 8.04835 2 7.74998C2 7.45218 2.11808 7.16656 2.3283 6.95569L6.23239 2.98678C6.37762 2.83914 6.61505 2.83718 6.7627 2.98242C6.91035 3.12765 6.9123 3.36508 6.76707 3.51273L2.85984 7.48483C2.78952 7.55515 2.75 7.65053 2.75 7.74998C2.75 7.84944 2.78951 7.94482 2.85984 8.01515C2.93016 8.08548 3.02554 8.12498 3.125 8.12498C3.2241 8.12498 3.31915 8.08576 3.38941 8.01591C3.38966 8.01566 3.38991 8.0154 3.39017 8.01515L8.04522 3.29524C8.14968 3.19078 8.23255 3.06677 8.28909 2.93027C8.34563 2.79378 8.37473 2.64749 8.37473 2.49976C8.37473 2.35202 8.34563 2.20573 8.28909 2.06924C8.23255 1.93275 8.14969 1.80873 8.04522 1.70426C7.94075 1.59979 7.81674 1.51693 7.68024 1.46039C7.54375 1.40385 7.39746 1.37476 7.24973 1.37476C7.10199 1.37476 6.9557 1.40385 6.81921 1.46039C6.68309 1.51677 6.55938 1.59934 6.45509 1.7034L1.79918 6.42417C1.44755 6.7758 1.25 7.2527 1.25 7.74998C1.25 8.24727 1.44754 8.72418 1.79917 9.07581C2.15081 9.42744 2.62772 9.62498 3.125 9.62498C3.62228 9.62498 4.0992 9.42744 4.45083 9.07581L8.29723 5.23442C8.44378 5.08807 8.68121 5.08822 8.82756 5.23477C8.97391 5.38131 8.97376 5.61874 8.82722 5.76509L4.98116 9.60614C4.48887 10.0984 3.82119 10.375 3.125 10.375C2.42881 10.375 1.76113 10.0984 1.26884 9.60614C0.776562 9.11386 0.5 8.44618 0.5 7.74998C0.5 7.05424 0.776206 6.38697 1.26789 5.89478L5.92389 1.17392C6.098 0.999815 6.30471 0.861709 6.53219 0.767482Z" fill="#868F98"/>
</svg>
