<svg width="13" height="16" viewBox="0 0 13 16" fill="none" xmlns="http://www.w3.org/2000/svg">
<path fill-rule="evenodd" clip-rule="evenodd" d="M4.12874 1.83482V1.41853C4.12874 1.18995 4.35976 1.00362 4.64336 1.00362H7.53121C7.8155 1.00362 8.04652 1.18995 8.04652 1.41853V1.83482H4.12874ZM10.3836 2.87314C10.3235 4.44204 9.95063 14.0549 9.9036 14.4878C9.87593 14.7469 9.78048 14.8744 9.72929 14.9256H2.445C2.39313 14.8744 2.29836 14.7469 2.2707 14.4878C2.22435 14.0549 1.80726 4.44897 1.73947 2.87314H10.3836ZM9.07994 1.83481V1.41852C9.07994 0.616403 8.43182 -0.0354004 7.63429 -0.0354004H4.54032C3.74279 -0.0354004 3.09466 0.616403 3.09466 1.41852V1.83481H0V2.87312H0.705534L1.24229 14.8653C1.25128 14.9097 1.48162 15.9646 2.37322 15.9646H9.8C10.6923 15.9646 10.9226 14.9097 10.9365 14.8314L11.4435 2.87312H12.1739V1.83481H9.07994ZM8.86933 3.70517H7.83524L7.51291 14.0945H8.547L8.86933 3.70517ZM5.56963 14.0947H6.60372V3.7053H5.56963V14.0947ZM4.66077 14.0945L4.33844 3.70517H3.30435L3.62599 14.0945H4.66077Z" fill="#868F98"/>
</svg>
