<svg width="13" height="12" viewBox="0 0 13 12" fill="none" xmlns="http://www.w3.org/2000/svg">
<path fill-rule="evenodd" clip-rule="evenodd" d="M6.5 4.5C5.5335 4.5 4.75 5.2835 4.75 6.25C4.75 7.2165 5.5335 8 6.5 8C7.4665 8 8.25 7.2165 8.25 6.25C8.25 5.2835 7.4665 4.5 6.5 4.5ZM3.75 6.25C3.75 4.73122 4.98122 3.5 6.5 3.5C8.01878 3.5 9.25 4.73122 9.25 6.25C9.25 7.76878 8.01878 9 6.5 9C4.98122 9 3.75 7.76878 3.75 6.25Z" fill="white"/>
<path fill-rule="evenodd" clip-rule="evenodd" d="M4.08361 0.22265C4.17634 0.0835506 4.33246 0 4.49963 0H8.49963C8.66681 0 8.82293 0.0835506 8.91566 0.22265L9.76723 1.5H11.5C11.8978 1.5 12.2794 1.65804 12.5607 1.93934C12.842 2.22064 13 2.60217 13 3V10C13 10.3978 12.842 10.7794 12.5607 11.0607C12.2794 11.342 11.8978 11.5 11.5 11.5H1.5C1.10218 11.5 0.720644 11.342 0.43934 11.0607C0.158035 10.7794 0 10.3978 0 10V3C0 2.60218 0.158035 2.22064 0.43934 1.93934C0.720644 1.65804 1.10218 1.5 1.5 1.5H3.23204L4.08361 0.22265ZM4.76723 1L3.91566 2.27735C3.82293 2.41645 3.66681 2.5 3.49963 2.5H1.5C1.36739 2.5 1.24021 2.55268 1.14645 2.64645C1.05268 2.74022 1 2.86739 1 3V10C1 10.1326 1.05268 10.2598 1.14645 10.3536C1.24021 10.4473 1.36739 10.5 1.5 10.5H11.5C11.6326 10.5 11.7598 10.4473 11.8536 10.3536C11.9473 10.2598 12 10.1326 12 10V3C12 2.86739 11.9473 2.74022 11.8536 2.64645C11.7598 2.55268 11.6326 2.5 11.5 2.5H9.49963C9.33246 2.5 9.17634 2.41645 9.08361 2.27735L8.23204 1H4.76723Z" fill="white"/>
</svg>
