<svg width="13" height="11" viewBox="0 0 13 11" fill="none" xmlns="http://www.w3.org/2000/svg">
<path fill-rule="evenodd" clip-rule="evenodd" d="M2 0.5C2 0.223858 2.22386 0 2.5 0H12C12.2652 0 12.5196 0.105358 12.7071 0.292893C12.8946 0.480429 13 0.734782 13 1V8.5C13 8.77614 12.7761 9 12.5 9C12.2239 9 12 8.77614 12 8.5V1H2.5C2.22386 1 2 0.776142 2 0.5Z" fill="white"/>
<path fill-rule="evenodd" clip-rule="evenodd" d="M0 3C0 2.44772 0.447715 2 1 2H10C10.5523 2 11 2.44772 11 3V10C11 10.5523 10.5523 11 10 11H1C0.447715 11 0 10.5523 0 10V3ZM10 3H1V10H10V3Z" fill="white"/>
<path opacity="0.2" d="M10 2.5H1C0.723858 2.5 0.5 2.72386 0.5 3V10C0.5 10.2761 0.723858 10.5 1 10.5H10C10.2761 10.5 10.5 10.2761 10.5 10V3C10.5 2.72386 10.2761 2.5 10 2.5Z" fill="white"/>
</svg>
