<svg width="45" height="20" viewBox="0 0 45 20" fill="none" xmlns="http://www.w3.org/2000/svg">
<path fill-rule="evenodd" clip-rule="evenodd" d="M44.5608 0.43934C45.1466 1.02513 45.1466 1.97487 44.5608 2.56066L28.0608 19.0607C27.475 19.6464 26.5253 19.6464 25.9395 19.0607L21.557 14.6784C20.9712 14.0927 20.9712 13.1429 21.557 12.5571C22.1428 11.9713 23.0925 11.9713 23.6783 12.5571L27.0001 15.8787L42.4395 0.43934C43.0252 -0.146447 43.975 -0.146447 44.5608 0.43934Z" fill="white"/>
<path fill-rule="evenodd" clip-rule="evenodd" d="M27.3107 0.43934C27.8964 1.02513 27.8964 1.97487 27.3107 2.56066L10.8107 19.0607C10.2249 19.6464 9.27515 19.6464 8.68936 19.0607L0.439364 10.8111C-0.146436 10.2253 -0.146457 9.27554 0.439316 8.68974C1.02509 8.10394 1.97484 8.10392 2.56064 8.68969L9.74998 15.8787L25.1893 0.43934C25.7751 -0.146447 26.7249 -0.146447 27.3107 0.43934Z" fill="white"/>
</svg>
