<svg width="23" height="10" viewBox="0 0 23 10" fill="none" xmlns="http://www.w3.org/2000/svg">
<path fill-rule="evenodd" clip-rule="evenodd" d="M22.284 0.21967C22.5769 0.512563 22.5769 0.987437 22.284 1.28033L14.034 9.53033C13.7412 9.82322 13.2663 9.82322 12.9734 9.53034L10.7822 7.33922C10.4893 7.04633 10.4893 6.57146 10.7822 6.27856C11.075 5.98566 11.5499 5.98565 11.8428 6.27853L13.5037 7.93935L21.2234 0.21967C21.5163 -0.0732233 21.9912 -0.0732233 22.284 0.21967Z" fill="url(#paint0_linear_1047_28837)"/>
<path fill-rule="evenodd" clip-rule="evenodd" d="M13.6553 0.21967C13.9482 0.512563 13.9482 0.987437 13.6553 1.28033L5.40533 9.53033C5.11244 9.82322 4.63758 9.82322 4.34468 9.53034L0.219682 5.40553C-0.0732179 5.11264 -0.0732287 4.63777 0.219658 4.34487C0.512544 4.05197 0.987418 4.05196 1.28032 4.34485L4.87499 7.93935L12.5947 0.21967C12.8876 -0.0732233 13.3624 -0.0732233 13.6553 0.21967Z" fill="url(#paint1_linear_1047_28837)"/>
<defs>
<linearGradient id="paint0_linear_1047_28837" x1="16.5331" y1="0" x2="16.5331" y2="9.75" gradientUnits="userSpaceOnUse">
<stop stop-color="#F5C038"/>
<stop offset="1" stop-color="#E7B229"/>
</linearGradient>
<linearGradient id="paint1_linear_1047_28837" x1="6.9375" y1="0" x2="6.9375" y2="9.75" gradientUnits="userSpaceOnUse">
<stop stop-color="#F5C038"/>
<stop offset="1" stop-color="#E7B229"/>
</linearGradient>
</defs>
</svg>
