<svg width="20" height="19" viewBox="0 0 20 19" fill="none" xmlns="http://www.w3.org/2000/svg">
<path fill-rule="evenodd" clip-rule="evenodd" d="M13.5 5.25C13.5 4.83579 13.8358 4.5 14.25 4.5H18C18.3978 4.5 18.7794 4.65804 19.0607 4.93934C19.342 5.22065 19.5 5.60218 19.5 6V18C19.5 18.289 19.334 18.5523 19.0732 18.6768C18.8124 18.8013 18.5032 18.7649 18.2785 18.5832L14.7739 15.75H6C5.60218 15.75 5.22065 15.592 4.93934 15.3107C4.65804 15.0294 4.5 14.6478 4.5 14.25V10.5C4.5 10.0858 4.83579 9.75 5.25 9.75C5.66421 9.75 6 10.0858 6 10.5V14.25H15.0391C15.2107 14.25 15.3772 14.3089 15.5106 14.4168L18 16.4292V6H14.25C13.8358 6 13.5 5.66421 13.5 5.25Z" fill="#1C6FBC"/>
<path fill-rule="evenodd" clip-rule="evenodd" d="M0.43934 0.43934C0.720644 0.158036 1.10217 0 1.5 0H13.5C13.8978 0 14.2794 0.158035 14.5607 0.43934C14.842 0.720645 15 1.10218 15 1.5V9.75C15 10.1478 14.842 10.5294 14.5607 10.8107C14.2794 11.092 13.8978 11.25 13.5 11.25H4.72614L1.22151 14.0832C0.996771 14.2649 0.687633 14.3013 0.42684 14.1768C0.166046 14.0523 0 13.789 0 13.5V1.5C0 1.10217 0.158036 0.720644 0.43934 0.43934ZM13.5 1.5L1.5 1.5L1.5 11.9292L3.98938 9.91675C4.12285 9.80886 4.28928 9.75 4.4609 9.75H13.5V1.5Z" fill="#1C6FBC"/>
</svg>
