<svg width="13" height="13" viewBox="0 0 13 13" fill="none" xmlns="http://www.w3.org/2000/svg">
<path fill-rule="evenodd" clip-rule="evenodd" d="M9 3.5C9 3.22386 9.22386 3 9.5 3H12C12.2652 3 12.5196 3.10536 12.7071 3.29289C12.8946 3.48043 13 3.73478 13 4V12C13 12.1927 12.8893 12.3682 12.7154 12.4512C12.5416 12.5342 12.3355 12.51 12.1857 12.3888L9.84924 10.5H4C3.73478 10.5 3.48043 10.3946 3.29289 10.2071C3.10536 10.0196 3 9.76522 3 9.5V7C3 6.72386 3.22386 6.5 3.5 6.5C3.77614 6.5 4 6.72386 4 7V9.5H10.0261C10.1405 9.5 10.2514 9.53924 10.3404 9.61117L12 10.9528V4H9.5C9.22386 4 9 3.77614 9 3.5Z" fill="#1D81DD"/>
<path fill-rule="evenodd" clip-rule="evenodd" d="M0.292893 0.292893C0.480429 0.105357 0.734783 0 1 0H9C9.26522 0 9.51957 0.105357 9.70711 0.292893C9.89464 0.48043 10 0.734784 10 1V6.5C10 6.76521 9.89464 7.01957 9.70711 7.20711C9.51957 7.39464 9.26521 7.5 9 7.5H3.15076L0.814342 9.38883C0.664514 9.50996 0.458422 9.53422 0.28456 9.4512C0.110697 9.36819 0 9.19267 0 9V1C0 0.734783 0.105357 0.480429 0.292893 0.292893ZM9 1L1 1L1 7.95283L2.65959 6.61117C2.74856 6.53924 2.85952 6.5 2.97393 6.5H9V1Z" fill="#1D81DD"/>
</svg>
