<svg width="14" height="13" viewBox="0 0 14 13" fill="none" xmlns="http://www.w3.org/2000/svg">
<path fill-rule="evenodd" clip-rule="evenodd" d="M3.50011 0.5C3.50011 0.223858 3.72397 0 4.00011 0H11.6173C11.9829 1.19209e-07 12.3359 0.133526 12.61 0.375483C12.8841 0.61744 13.0604 0.951169 13.1057 1.31395L13.8557 7.31395C13.8821 7.525 13.8633 7.73924 13.8006 7.94247C13.7378 8.14569 13.6326 8.33325 13.4918 8.4927C13.3511 8.65215 13.178 8.77985 12.9842 8.86731C12.7903 8.95477 12.58 9 12.3673 9H9.00011V10C9.00011 10.3283 8.93545 10.6534 8.80981 10.9567C8.68417 11.26 8.50002 11.5356 8.26788 11.7678C8.03573 11.9999 7.76013 12.1841 7.45682 12.3097C7.1535 12.4353 6.82841 12.5 6.50011 12.5C6.31072 12.5 6.13759 12.393 6.0529 12.2236L3.5529 7.22361C3.4294 6.97662 3.52951 6.67628 3.7765 6.55279C4.02349 6.42929 4.32383 6.5294 4.44732 6.77639L6.79454 11.4708C6.89005 11.4517 6.98371 11.4233 7.07413 11.3858C7.25612 11.3104 7.42148 11.1999 7.56077 11.0607C7.70006 10.9214 7.81055 10.756 7.88593 10.574C7.96131 10.392 8.00011 10.197 8.00011 10V8.5C8.00011 8.22386 8.22397 8 8.50011 8H12.3673C12.4382 8 12.5083 7.98492 12.5729 7.95577C12.6376 7.92662 12.6952 7.88405 12.7422 7.8309C12.7891 7.77775 12.8242 7.71523 12.8451 7.64749C12.866 7.57975 12.8723 7.50833 12.8635 7.43798L12.1135 1.43798C12.0983 1.31706 12.0396 1.20581 11.9482 1.12516C11.8569 1.04451 11.7392 1 11.6173 1H4.00011C3.72397 1 3.50011 0.776142 3.50011 0.5Z" fill="#868F98"/>
<path fill-rule="evenodd" clip-rule="evenodd" d="M0.292893 0.292893C0.480429 0.105357 0.734783 0 1 0H4C4.27614 0 4.5 0.223858 4.5 0.5V7C4.5 7.27614 4.27614 7.5 4 7.5H1C0.734784 7.5 0.48043 7.39464 0.292893 7.20711C0.105356 7.01957 0 6.76522 0 6.5V1C0 0.734783 0.105357 0.48043 0.292893 0.292893ZM1 1V6.5H3.5V1L1 1Z" fill="#868F98"/>
</svg>
