<svg width="15" height="15" viewBox="0 0 15 15" fill="none" xmlns="http://www.w3.org/2000/svg">
<path fill-rule="evenodd" clip-rule="evenodd" d="M0.625 8.75C0.970178 8.75 1.25 9.02982 1.25 9.375V13.75H13.75V9.375C13.75 9.02982 14.0298 8.75 14.375 8.75C14.7202 8.75 15 9.02982 15 9.375V13.75C15 14.0815 14.8683 14.3995 14.6339 14.6339C14.3995 14.8683 14.0815 15 13.75 15H1.25C0.91848 15 0.600538 14.8683 0.366117 14.6339C0.131696 14.3995 0 14.0815 0 13.75V9.375C0 9.02982 0.279822 8.75 0.625 8.75Z" fill="#868F98"/>
<path fill-rule="evenodd" clip-rule="evenodd" d="M7.5 0C7.84518 0 8.125 0.279822 8.125 0.625V9.3727C8.125 9.71788 7.84518 9.9977 7.5 9.9977C7.15482 9.9977 6.875 9.71788 6.875 9.3727V0.625C6.875 0.279822 7.15482 0 7.5 0Z" fill="#868F98"/>
<path fill-rule="evenodd" clip-rule="evenodd" d="M3.77675 5.65284C4.0208 5.40873 4.41652 5.40868 4.66063 5.65273L7.5 8.49135L10.3394 5.65273C10.5835 5.40868 10.9792 5.40873 11.2232 5.65284C11.4673 5.89695 11.4672 6.29268 11.2231 6.53673L7.94188 9.81712C7.69782 10.0611 7.30218 10.0611 7.05812 9.81712L3.77687 6.53673C3.53276 6.29268 3.5327 5.89695 3.77675 5.65284Z" fill="#868F98"/>
</svg>
