<svg width="13" height="13" viewBox="0 0 13 13" fill="none" xmlns="http://www.w3.org/2000/svg">
<path fill-rule="evenodd" clip-rule="evenodd" d="M0.183058 0.183058C0.427136 -0.0610194 0.822864 -0.0610194 1.06694 0.183058L6.25 5.36612L11.4331 0.183058C11.6771 -0.0610194 12.0729 -0.0610194 12.3169 0.183058C12.561 0.427136 12.561 0.822864 12.3169 1.06694L7.13388 6.25L12.3169 11.4331C12.561 11.6771 12.561 12.0729 12.3169 12.3169C12.0729 12.561 11.6771 12.561 11.4331 12.3169L6.25 7.13388L1.06694 12.3169C0.822864 12.561 0.427136 12.561 0.183058 12.3169C-0.0610194 12.0729 -0.0610194 11.6771 0.183058 11.4331L5.36612 6.25L0.183058 1.06694C-0.0610194 0.822864 -0.0610194 0.427136 0.183058 0.183058Z" fill="#E44F4F"/>
</svg>
