<svg width="15" height="10" viewBox="0 0 15 10" fill="none" xmlns="http://www.w3.org/2000/svg">
<path fill-rule="evenodd" clip-rule="evenodd" d="M7.5 3C6.39543 3 5.5 3.89543 5.5 5C5.5 6.10457 6.39543 7 7.5 7C8.60457 7 9.5 6.10457 9.5 5C9.5 3.89543 8.60457 3 7.5 3ZM4.5 5C4.5 3.34315 5.84315 2 7.5 2C9.15685 2 10.5 3.34315 10.5 5C10.5 6.65685 9.15685 8 7.5 8C5.84315 8 4.5 6.65685 4.5 5Z" fill="#868F98"/>
<path fill-rule="evenodd" clip-rule="evenodd" d="M1.77143 2.39671C2.96333 1.20467 4.83369 0 7.5 0C10.1663 0 12.0367 1.20467 13.2286 2.39671C13.8231 2.99128 14.2518 3.58499 14.5325 4.0309C14.6731 4.25424 14.7773 4.44164 14.8472 4.57512C14.8822 4.6419 14.9086 4.69529 14.9268 4.73306C14.9359 4.75194 14.943 4.76694 14.948 4.77776L14.9539 4.79083L14.9558 4.79495L14.9567 4.79697C14.9568 4.79721 14.9569 4.79744 14.5 5.00049C14.9569 5.20358 14.9568 5.2038 14.9567 5.20404L14.9564 5.20461L14.9558 5.20606L14.9539 5.21018L14.9479 5.22325C14.9429 5.23407 14.9359 5.24906 14.9268 5.26795C14.9086 5.30571 14.8822 5.35909 14.8472 5.42585C14.7773 5.5593 14.6731 5.74667 14.5325 5.96996C14.2517 6.41578 13.823 7.00937 13.2285 7.60382C12.0366 8.7956 10.1663 10 7.5 10C4.83373 10 2.96338 8.7956 1.77147 7.60382C1.17695 7.00937 0.748251 6.41578 0.467522 5.96996C0.326912 5.74667 0.222709 5.5593 0.152798 5.42585C0.117823 5.35909 0.091374 5.30571 0.07319 5.26795C0.0640963 5.24906 0.0570643 5.23407 0.0520618 5.22325L0.0460741 5.21018L0.0442129 5.20606L0.043564 5.20461L0.0433098 5.20404C0.0432023 5.2038 0.0431024 5.20358 0.5 5.00049C0.0430861 4.79744 0.0431859 4.79721 0.0432934 4.79697L0.0435475 4.7964L0.0441963 4.79495L0.0460572 4.79083L0.0520445 4.77776C0.0570466 4.76694 0.0640783 4.75194 0.0731716 4.73306C0.0913548 4.69529 0.117804 4.6419 0.152777 4.57512C0.222687 4.44164 0.326887 4.25424 0.467496 4.0309C0.748221 3.58499 1.17692 2.99128 1.77143 2.39671ZM0.5 5.00049L0.0430861 4.79744C-0.0143677 4.92672 -0.0143618 5.07429 0.0431024 5.20358L0.5 5.00049ZM1.05906 5.00046C1.11788 4.89026 1.20236 4.74062 1.31375 4.56367C1.56428 4.16574 1.94808 3.63432 2.47857 3.10378C3.53667 2.04557 5.16631 1 7.5 1C9.83369 1 11.4633 2.04557 12.5214 3.10378C13.0519 3.63432 13.4357 4.16574 13.6862 4.56367C13.7976 4.74062 13.8821 4.89026 13.9409 5.00046C13.8821 5.11063 13.7977 5.26023 13.6863 5.43711C13.4358 5.83495 13.052 6.36624 12.5215 6.89667C11.4634 7.95464 9.83373 9 7.5 9C5.16627 9 3.53662 7.95464 2.47853 6.89667C1.94805 6.36624 1.56425 5.83495 1.31373 5.43711C1.20235 5.26023 1.11788 5.11063 1.05906 5.00046ZM14.5 5.00049L14.9569 5.20358C15.0144 5.07429 15.0144 4.92672 14.9569 4.79744L14.5 5.00049Z" fill="#868F98"/>
</svg>
