<svg width="13" height="12" viewBox="0 0 13 12" fill="none" xmlns="http://www.w3.org/2000/svg">
<path fill-rule="evenodd" clip-rule="evenodd" d="M1.75 5.75C1.33579 5.75 1 6.08579 1 6.5C1 6.91421 1.33579 7.25 1.75 7.25C2.16421 7.25 2.5 6.91421 2.5 6.5C2.5 6.08579 2.16421 5.75 1.75 5.75ZM0 6.5C0 5.5335 0.783502 4.75 1.75 4.75C2.7165 4.75 3.5 5.5335 3.5 6.5C3.5 7.4665 2.7165 8.25 1.75 8.25C0.783502 8.25 0 7.4665 0 6.5Z" fill="#4D5A65"/>
<path fill-rule="evenodd" clip-rule="evenodd" d="M1.75 0C2.02614 -2.14575e-06 2.25 0.223854 2.25 0.499996L2.25004 5.25C2.25004 5.52614 2.02618 5.75 1.75004 5.75C1.4739 5.75 1.25004 5.52615 1.25004 5.25L1.25 0.500004C1.25 0.223861 1.47385 2.14578e-06 1.75 0Z" fill="#4D5A65"/>
<path fill-rule="evenodd" clip-rule="evenodd" d="M1.75004 7.25C2.02618 7.25 2.25004 7.47386 2.25004 7.75L2.25 11.5C2.25 11.7761 2.02614 12 1.74999 12C1.47385 12 1.25 11.7761 1.25 11.5L1.25004 7.75C1.25004 7.47385 1.4739 7.25 1.75004 7.25Z" fill="#4D5A65"/>
<path fill-rule="evenodd" clip-rule="evenodd" d="M10.75 7.75C10.3358 7.75 10 8.08579 10 8.5C10 8.91421 10.3358 9.25 10.75 9.25C11.1642 9.25 11.5 8.91421 11.5 8.5C11.5 8.08579 11.1642 7.75 10.75 7.75ZM9 8.5C9 7.5335 9.7835 6.75 10.75 6.75C11.7165 6.75 12.5 7.5335 12.5 8.5C12.5 9.4665 11.7165 10.25 10.75 10.25C9.7835 10.25 9 9.4665 9 8.5Z" fill="#4D5A65"/>
<path fill-rule="evenodd" clip-rule="evenodd" d="M10.7501 0C11.0262 2.14578e-06 11.2501 0.223862 11.2501 0.500004L11.25 7.25C11.25 7.52615 11.0261 7.75 10.75 7.75C10.4739 7.75 10.25 7.52614 10.25 7.25L10.2501 0.499996C10.2501 0.223854 10.4739 -2.14575e-06 10.7501 0Z" fill="#4D5A65"/>
<path fill-rule="evenodd" clip-rule="evenodd" d="M10.75 9.25C11.0261 9.24999 11.25 9.47384 11.25 9.74999L11.2501 11.5C11.2501 11.7761 11.0262 12 10.7501 12C10.4739 12 10.2501 11.7762 10.2501 11.5L10.25 9.75001C10.25 9.47387 10.4738 9.25001 10.75 9.25Z" fill="#4D5A65"/>
<path fill-rule="evenodd" clip-rule="evenodd" d="M6.25 2.75C5.83579 2.75 5.5 3.08579 5.5 3.5C5.5 3.91421 5.83579 4.25 6.25 4.25C6.66421 4.25 7 3.91421 7 3.5C7 3.08579 6.66421 2.75 6.25 2.75ZM4.5 3.5C4.5 2.5335 5.2835 1.75 6.25 1.75C7.2165 1.75 8 2.5335 8 3.5C8 4.4665 7.2165 5.25 6.25 5.25C5.2835 5.25 4.5 4.4665 4.5 3.5Z" fill="#4D5A65"/>
<path fill-rule="evenodd" clip-rule="evenodd" d="M6.25001 0C6.52615 1.1921e-06 6.75001 0.22386 6.75001 0.500002L6.75 2.25C6.75 2.52614 6.52614 2.75 6.25 2.75C5.97386 2.75 5.75 2.52614 5.75 2.25L5.75001 0.499998C5.75001 0.223855 5.97387 -1.19209e-06 6.25001 0Z" fill="#4D5A65"/>
<path fill-rule="evenodd" clip-rule="evenodd" d="M6.25 4.25C6.52614 4.25 6.75 4.47386 6.75 4.75L6.75001 11.5C6.75001 11.7761 6.52615 12 6.25001 12C5.97387 12 5.75001 11.7761 5.75001 11.5L5.75 4.75C5.75 4.47386 5.97386 4.25 6.25 4.25Z" fill="#4D5A65"/>
</svg>
