<svg width="11" height="12" viewBox="0 0 11 12" fill="none" xmlns="http://www.w3.org/2000/svg">
<path d="M6.00156 11.0007L6.00156 3.41473L8.29456 5.70773C8.54563 5.96769 8.91743 6.07195 9.26706 5.98043C9.61669 5.88891 9.88974 5.61587 9.98125 5.26624C10.0728 4.91661 9.96851 4.54481 9.70856 4.29373L5.70856 0.293733C5.52095 0.105649 5.26621 -5.53131e-05 5.00056 -5.53131e-05C4.7349 -5.53131e-05 4.48016 0.105649 4.29256 0.293733L0.292556 4.29373C-0.097909 4.68475 -0.0974613 5.31827 0.293556 5.70873C0.684574 6.0992 1.31809 6.09875 1.70856 5.70773L4.00156 3.41473L4.00156 11.0007C4.00156 11.553 4.44927 12.0007 5.00156 12.0007C5.55384 12.0007 6.00156 11.553 6.00156 11.0007Z" fill="#38C470"/>
</svg>
