<svg width="14" height="13" viewBox="0 0 14 13" fill="none" xmlns="http://www.w3.org/2000/svg">
<path fill-rule="evenodd" clip-rule="evenodd" d="M6.0529 0.276393C6.13759 0.107001 6.31072 0 6.50011 0C6.82841 0 7.1535 0.0646645 7.45682 0.190301C7.76013 0.315938 8.03573 0.500086 8.26788 0.732233C8.50002 0.964379 8.68417 1.23998 8.80981 1.54329C8.93545 1.84661 9.00011 2.1717 9.00011 2.5V3.5H12.3673C12.58 3.5 12.7903 3.54523 12.9842 3.63269C13.178 3.72016 13.3511 3.84785 13.4918 4.0073C13.6326 4.16675 13.7378 4.35431 13.8006 4.55753C13.8633 4.76076 13.8821 4.975 13.8557 5.18605L13.1057 11.1861C13.0604 11.5488 12.8841 11.8826 12.61 12.1245C12.3359 12.3665 11.9829 12.5 11.6173 12.5H4.00011C3.72397 12.5 3.50011 12.2761 3.50011 12C3.50011 11.7239 3.72397 11.5 4.00011 11.5H11.6173C11.7392 11.5 11.8569 11.4555 11.9482 11.3748C12.0396 11.2942 12.0983 11.1829 12.1135 11.062L12.8635 5.06202C12.8723 4.99167 12.866 4.92025 12.8451 4.85251C12.8242 4.78477 12.7891 4.72225 12.7422 4.6691C12.6952 4.61595 12.6376 4.57339 12.5729 4.54423C12.5083 4.51508 12.4382 4.5 12.3673 4.5H8.50011C8.22397 4.5 8.00011 4.27614 8.00011 4V2.5C8.00011 2.30302 7.96131 2.10796 7.88593 1.92597C7.81055 1.74399 7.70006 1.57863 7.56077 1.43934C7.42148 1.30005 7.25612 1.18956 7.07413 1.11418C6.98371 1.07672 6.89005 1.0483 6.79454 1.02918L4.44732 5.72361C4.32383 5.9706 4.02349 6.07071 3.7765 5.94721C3.52951 5.82372 3.4294 5.52338 3.5529 5.27639L6.0529 0.276393Z" fill="#868F98"/>
<path fill-rule="evenodd" clip-rule="evenodd" d="M0.292893 5.29289C0.480429 5.10536 0.734783 5 1 5H4C4.27614 5 4.5 5.22386 4.5 5.5V12C4.5 12.2761 4.27614 12.5 4 12.5H1C0.734784 12.5 0.48043 12.3946 0.292893 12.2071C0.105356 12.0196 0 11.7652 0 11.5V6C0 5.73478 0.105357 5.48043 0.292893 5.29289ZM1 6V11.5H3.5V6L1 6Z" fill="#868F98"/>
</svg>
