<svg width="17" height="13" viewBox="0 0 17 13" fill="none" xmlns="http://www.w3.org/2000/svg">
<path fill-rule="evenodd" clip-rule="evenodd" d="M0 11.9167C0 11.4104 0.399314 11 0.891892 11H15.6081C16.1007 11 16.5 11.4104 16.5 11.9167C16.5 12.4229 16.1007 12.8333 15.6081 12.8333H0.891892C0.399314 12.8333 0 12.4229 0 11.9167Z" fill="#3777B1"/>
<path fill-rule="evenodd" clip-rule="evenodd" d="M0 0.916667C0 0.410406 0.399314 0 0.891892 0H15.6081C16.1007 0 16.5 0.410406 16.5 0.916667C16.5 1.42293 16.1007 1.83333 15.6081 1.83333H0.891892C0.399314 1.83333 0 1.42293 0 0.916667Z" fill="#3777B1"/>
<path fill-rule="evenodd" clip-rule="evenodd" d="M0 6.41667C0 5.91041 0.399314 5.5 0.891892 5.5H10.1081C10.6007 5.5 11 5.91041 11 6.41667C11 6.92293 10.6007 7.33333 10.1081 7.33333H0.891892C0.399314 7.33333 0 6.92293 0 6.41667Z" fill="#3777B1"/>
</svg>
