<svg width="17" height="13" viewBox="0 0 17 13" fill="none" xmlns="http://www.w3.org/2000/svg">
<path fill-rule="evenodd" clip-rule="evenodd" d="M0 11.9166C0 11.4103 0.399314 10.9999 0.891892 10.9999H15.6081C16.1007 10.9999 16.5 11.4103 16.5 11.9166C16.5 12.4229 16.1007 12.8333 15.6081 12.8333H0.891892C0.399314 12.8333 0 12.4229 0 11.9166Z" fill="#868F98"/>
<path fill-rule="evenodd" clip-rule="evenodd" d="M0 0.916606C0 0.410345 0.399314 -6.10352e-05 0.891892 -6.10352e-05H15.6081C16.1007 -6.10352e-05 16.5 0.410345 16.5 0.916606C16.5 1.42287 16.1007 1.83327 15.6081 1.83327H0.891892C0.399314 1.83327 0 1.42287 0 0.916606Z" fill="#868F98"/>
<path fill-rule="evenodd" clip-rule="evenodd" d="M0 6.41661C0 5.91034 0.399314 5.49994 0.891892 5.49994H10.1081C10.6007 5.49994 11 5.91034 11 6.41661C11 6.92287 10.6007 7.33327 10.1081 7.33327H0.891892C0.399314 7.33327 0 6.92287 0 6.41661Z" fill="#868F98"/>
</svg>
