<svg width="18" height="21" viewBox="0 0 18 21" fill="none" xmlns="http://www.w3.org/2000/svg">
<path fill-rule="evenodd" clip-rule="evenodd" d="M9 1.5C8.30381 1.5 7.63613 1.77656 7.14385 2.26884C6.65156 2.76113 6.375 3.42881 6.375 4.125V7.5C6.375 7.91421 6.03921 8.25 5.625 8.25C5.21079 8.25 4.875 7.91421 4.875 7.5V4.125C4.875 3.03098 5.3096 1.98177 6.08318 1.20818C6.85677 0.434597 7.90598 0 9 0C10.094 0 11.1432 0.434597 11.9168 1.20818C12.6904 1.98177 13.125 3.03098 13.125 4.125V7.5C13.125 7.91421 12.7892 8.25 12.375 8.25C11.9608 8.25 11.625 7.91421 11.625 7.5V4.125C11.625 3.42881 11.3484 2.76113 10.8562 2.26884C10.3639 1.77656 9.69619 1.5 9 1.5Z" fill="#868F98"/>
<path fill-rule="evenodd" clip-rule="evenodd" d="M0 8.69444C0 7.8967 0.671573 7.25 1.5 7.25H16.5C17.3284 7.25 18 7.8967 18 8.69444V18.8056C18 19.6033 17.3284 20.25 16.5 20.25H1.5C0.671573 20.25 0 19.6033 0 18.8056V8.69444ZM16.5 8.69444H1.5V18.8056H16.5V8.69444Z" fill="#868F98"/>
<path fill-rule="evenodd" clip-rule="evenodd" d="M9 13.5C9.41421 13.5 9.75 13.8358 9.75 14.25V16.5C9.75 16.9142 9.41421 17.25 9 17.25C8.58579 17.25 8.25 16.9142 8.25 16.5V14.25C8.25 13.8358 8.58579 13.5 9 13.5Z" fill="#868F98"/>
<path fill-rule="evenodd" clip-rule="evenodd" d="M9 11.25C8.37868 11.25 7.875 11.7537 7.875 12.375C7.875 12.9963 8.37868 13.5 9 13.5C9.62132 13.5 10.125 12.9963 10.125 12.375C10.125 11.7537 9.62132 11.25 9 11.25ZM6.375 12.375C6.375 10.9253 7.55025 9.75 9 9.75C10.4497 9.75 11.625 10.9253 11.625 12.375C11.625 13.8247 10.4497 15 9 15C7.55025 15 6.375 13.8247 6.375 12.375Z" fill="#868F98"/>
</svg>
