<svg width="13" height="13" viewBox="0 0 13 13" fill="none" xmlns="http://www.w3.org/2000/svg">
<path fill-rule="evenodd" clip-rule="evenodd" d="M0.177697 7.97115C0.372959 7.77589 0.689541 7.77589 0.884804 7.97115L4.20654 11.2929H11.4994C11.7756 11.2929 11.9994 11.5168 11.9994 11.7929C11.9994 12.069 11.7756 12.2929 11.4994 12.2929H3.99944C3.86683 12.2929 3.73965 12.2402 3.64588 12.1464L0.177697 8.67826C-0.0175655 8.483 -0.0175655 8.16642 0.177697 7.97115Z" fill="#868F98"/>
<path fill-rule="evenodd" clip-rule="evenodd" d="M6.14645 1.93929C6.34171 1.74403 6.65829 1.74403 6.85355 1.93929L10.3536 5.43929C10.5488 5.63456 10.5488 5.95114 10.3536 6.1464C10.1583 6.34166 9.84171 6.34166 9.64645 6.1464L6.14645 2.6464C5.95118 2.45114 5.95118 2.13456 6.14645 1.93929Z" fill="#868F98"/>
<path fill-rule="evenodd" clip-rule="evenodd" d="M7.79289 0.292893C7.98043 0.105356 8.23478 0 8.5 0C8.76522 0 9.01957 0.105356 9.20711 0.292893L8.87284 0.627162L9.20711 0.292893L12 3.08579C12.1875 3.27332 12.2929 3.52768 12.2929 3.79289C12.2929 4.05811 12.1875 4.31246 12 4.5L4.35355 12.1464C4.25979 12.2402 4.13261 12.2929 4 12.2929H1C0.734784 12.2929 0.48043 12.1875 0.292893 12C0.105357 11.8125 0 11.5581 0 11.2929V8.5C0 8.36868 0.0258657 8.23864 0.0761205 8.11732C0.126375 7.99599 0.200034 7.88575 0.292894 7.79289L7.79289 0.292893ZM11.2929 3.79289L8.5 1L1 8.5L0.646447 8.14645L1 8.5L1 11.2929H3.79289L11.2929 3.79289Z" fill="#868F98"/>
</svg>
