<svg width="13" height="12" viewBox="0 0 13 12" fill="none" xmlns="http://www.w3.org/2000/svg">
<path fill-rule="evenodd" clip-rule="evenodd" d="M12.5 5.5C12.7761 5.5 13 5.72386 13 6C13 7.19347 12.5259 8.33807 11.682 9.18198C10.8381 10.0259 9.69347 10.5 8.5 10.5H0.5C0.223858 10.5 0 10.2761 0 10C0 9.72386 0.223858 9.5 0.5 9.5H8.5C9.42826 9.5 10.3185 9.13125 10.9749 8.47487C11.6313 7.8185 12 6.92826 12 6C12 5.72386 12.2239 5.5 12.5 5.5Z" fill="#868F98"/>
<path fill-rule="evenodd" clip-rule="evenodd" d="M2.35355 8.14645C2.54882 8.34171 2.54882 8.65829 2.35355 8.85355L1.20711 10L2.35355 11.1464C2.54882 11.3417 2.54882 11.6583 2.35355 11.8536C2.15829 12.0488 1.84171 12.0488 1.64645 11.8536L0.146447 10.3536C-0.0488155 10.1583 -0.0488155 9.84171 0.146447 9.64645L1.64645 8.14645C1.84171 7.95118 2.15829 7.95118 2.35355 8.14645Z" fill="#868F98"/>
<path fill-rule="evenodd" clip-rule="evenodd" d="M4.5 2.5C3.57174 2.5 2.6815 2.86875 2.02513 3.52513C1.36875 4.1815 1 5.07174 1 6C1 6.27614 0.776142 6.5 0.5 6.5C0.223858 6.5 0 6.27614 0 6C0 4.80653 0.474106 3.66193 1.31802 2.81802C2.16193 1.97411 3.30653 1.5 4.5 1.5H12.5C12.7761 1.5 13 1.72386 13 2C13 2.27614 12.7761 2.5 12.5 2.5H4.5Z" fill="#868F98"/>
<path fill-rule="evenodd" clip-rule="evenodd" d="M10.6464 0.146447C10.8417 -0.0488155 11.1583 -0.0488155 11.3536 0.146447L12.8536 1.64645C13.0488 1.84171 13.0488 2.15829 12.8536 2.35355L11.3536 3.85355C11.1583 4.04882 10.8417 4.04882 10.6464 3.85355C10.4512 3.65829 10.4512 3.34171 10.6464 3.14645L11.7929 2L10.6464 0.853553C10.4512 0.658291 10.4512 0.341709 10.6464 0.146447Z" fill="#868F98"/>
</svg>
