<svg width="13" height="13" viewBox="0 0 13 13" fill="none" xmlns="http://www.w3.org/2000/svg">
<path fill-rule="evenodd" clip-rule="evenodd" d="M9.10934 9.10897C9.3046 8.91371 9.62118 8.91371 9.81644 9.10897L12.854 12.1465C13.0492 12.3418 13.0492 12.6584 12.854 12.8536C12.6587 13.0489 12.3421 13.0489 12.1469 12.8536L9.10934 9.81608C8.91408 9.62082 8.91408 9.30423 9.10934 9.10897Z" fill="#868F98"/>
<path fill-rule="evenodd" clip-rule="evenodd" d="M5.75 1C3.12665 1 1 3.12665 1 5.75C1 8.37335 3.12665 10.5 5.75 10.5C8.37335 10.5 10.5 8.37335 10.5 5.75C10.5 3.12665 8.37335 1 5.75 1ZM0 5.75C0 2.57436 2.57436 0 5.75 0C8.92564 0 11.5 2.57436 11.5 5.75C11.5 8.92564 8.92564 11.5 5.75 11.5C2.57436 11.5 0 8.92564 0 5.75Z" fill="#868F98"/>
</svg>
