<svg width="12" height="16" viewBox="0 0 12 16" fill="none" xmlns="http://www.w3.org/2000/svg">
<path fill-rule="evenodd" clip-rule="evenodd" d="M0.15976 8.7052C0.372773 8.49219 0.718136 8.49219 0.931149 8.7052L6 13.7741L11.0689 8.7052C11.2819 8.49219 11.6272 8.49219 11.8402 8.7052C12.0533 8.91821 12.0533 9.26358 11.8402 9.47659L6.38569 14.9311C6.17268 15.1441 5.82732 15.1441 5.61431 14.9311L0.15976 9.47659C-0.0532533 9.26358 -0.0532533 8.91821 0.15976 8.7052Z" fill="#4D5A65"/>
<path fill-rule="evenodd" clip-rule="evenodd" d="M5.61431 0.15976C5.82732 -0.0532533 6.17268 -0.0532533 6.38569 0.15976L11.8402 5.61431C12.0533 5.82732 12.0533 6.17268 11.8402 6.38569C11.6272 6.59871 11.2819 6.59871 11.0688 6.38569L8.53443 3.85127L6 1.31684L0.931149 6.38569C0.718136 6.59871 0.372773 6.59871 0.15976 6.38569C-0.0532533 6.17268 -0.0532533 5.82732 0.15976 5.61431L5.61431 0.15976Z" fill="#4D5A65"/>
</svg>
