<svg width="19" height="9" viewBox="0 0 19 9" fill="none" xmlns="http://www.w3.org/2000/svg">
<path fill-rule="evenodd" clip-rule="evenodd" d="M18.567 0.183058C18.8111 0.427136 18.8111 0.822864 18.567 1.06694L11.692 7.94194C11.448 8.18602 11.0522 8.18602 10.8082 7.94195L8.98214 6.11601C8.73806 5.87194 8.73805 5.47621 8.98212 5.23213C9.22619 4.98805 9.62192 4.98804 9.866 5.23211L11.2501 6.61613L17.6831 0.183058C17.9272 -0.0610194 18.323 -0.0610194 18.567 0.183058Z" fill="#21B65D"/>
<path fill-rule="evenodd" clip-rule="evenodd" d="M11.3794 0.183058C11.6235 0.427136 11.6235 0.822864 11.3794 1.06694L4.50444 7.94194C4.26037 8.18602 3.86465 8.18602 3.62057 7.94195L0.183068 4.50461C-0.0610149 4.26054 -0.0610239 3.86481 0.183048 3.62072C0.42712 3.37664 0.822848 3.37663 1.06693 3.6207L4.06249 6.61613L10.4956 0.183058C10.7396 -0.0610194 11.1354 -0.0610194 11.3794 0.183058Z" fill="#21B65D"/>
</svg>
