<svg width="11" height="11" viewBox="0 0 11 11" fill="none" xmlns="http://www.w3.org/2000/svg">
<path fill-rule="evenodd" clip-rule="evenodd" d="M7.10523 3.12412C7.25168 3.27056 7.25168 3.508 7.10523 3.65445L4.98391 5.77577C4.83747 5.92221 4.60003 5.92221 4.45358 5.77577C4.30714 5.62932 4.30714 5.39188 4.45358 5.24544L6.5749 3.12412C6.72135 2.97767 6.95879 2.97767 7.10523 3.12412Z" fill="#868F98"/>
<path fill-rule="evenodd" clip-rule="evenodd" d="M9.28052 0.0281627C9.40883 -0.00802853 9.54447 -0.00936195 9.67347 0.0242988C9.80247 0.0579597 9.92017 0.125399 10.0144 0.21967C10.1087 0.31394 10.1762 0.431636 10.2098 0.560639C10.2435 0.689642 10.2421 0.825283 10.2059 0.953595L7.74248 9.68771C7.70103 9.83466 7.61571 9.96547 7.49793 10.0626C7.38016 10.1598 7.23552 10.2187 7.08337 10.2315C6.93121 10.2443 6.77878 10.2103 6.64646 10.1341C6.51413 10.0579 6.4082 9.94317 6.34284 9.80518L4.44194 5.79217L0.428936 3.89127C0.290944 3.82591 0.176191 3.71998 0.100012 3.58765C0.0238329 3.45533 -0.0101419 3.3029 0.00262812 3.15074C0.0153981 2.99859 0.0743047 2.85396 0.171475 2.73618C0.268644 2.6184 0.399448 2.53308 0.546405 2.49163L9.28052 0.0281627ZM9.48411 0.75L0.75 3.21347L4.76301 5.11437L4.60248 5.45327L4.76301 5.11437C4.91955 5.18852 5.0456 5.31456 5.11975 5.4711L4.78085 5.63164L5.11975 5.47111L7.02064 9.48411L9.48411 0.75Z" fill="#868F98"/>
</svg>
