<svg width="16" height="12" viewBox="0 0 16 12" fill="none" xmlns="http://www.w3.org/2000/svg">
<path fill-rule="evenodd" clip-rule="evenodd" d="M12.4636 1.07348C12.1929 0.985484 11.9028 0.976325 11.6271 1.04707C11.3513 1.11782 11.1014 1.26555 10.9065 1.47301C10.7116 1.68048 10.5798 1.93911 10.5264 2.21871C10.4746 2.48995 10.2127 2.66783 9.94144 2.61602C9.6702 2.56421 9.49232 2.30233 9.54413 2.03109C9.63313 1.56511 9.85288 1.13408 10.1777 0.78832C10.5025 0.442562 10.919 0.196353 11.3785 0.078448C11.838 -0.0394572 12.3216 -0.0241925 12.7728 0.122459C13.2239 0.269111 13.6241 0.541097 13.9264 0.906653C14.2288 1.27221 14.4209 1.71625 14.4804 2.18691C14.5398 2.65757 14.4641 3.13543 14.2621 3.56468C14.0601 3.99393 13.7402 4.35686 13.3396 4.61107C12.9391 4.86529 12.4745 5.0003 12.0001 5.00034C11.724 5.00036 11.5001 4.77652 11.5001 4.50038C11.5 4.22424 11.7239 4.00036 12 4.00034C12.2847 4.00031 12.5634 3.9193 12.8038 3.76677C13.0441 3.61423 13.2361 3.39647 13.3573 3.13891C13.4785 2.88134 13.5239 2.59462 13.4882 2.3122C13.4526 2.02979 13.3373 1.76336 13.1559 1.54402C12.9744 1.32467 12.7344 1.16147 12.4636 1.07348Z" fill="white"/>
<path fill-rule="evenodd" clip-rule="evenodd" d="M3.87271 1.04704C3.59703 0.976325 3.30692 0.985497 3.03625 1.07349C2.76559 1.16148 2.52554 1.32466 2.34415 1.54397C2.16275 1.76327 2.04749 2.02966 2.01183 2.31203C1.97616 2.59439 2.02156 2.88108 2.14273 3.1386C2.2639 3.39613 2.45583 3.61387 2.69611 3.7664C2.9364 3.91893 3.21511 3.99995 3.49972 4C3.77586 4.00005 3.99968 4.22395 3.99963 4.50009C3.99958 4.77624 3.77568 5.00005 3.49953 5C3.02519 4.99991 2.56066 4.86488 2.16018 4.61066C1.75971 4.35645 1.43983 3.99355 1.23788 3.56434C1.03594 3.13513 0.960266 2.65732 1.01971 2.18671C1.07915 1.71611 1.27125 1.27212 1.57358 0.906609C1.87591 0.541093 2.27598 0.269131 2.72709 0.122479C3.17819 -0.0241718 3.66171 -0.039459 4.12118 0.0784027C4.58065 0.196264 4.99711 0.442411 5.32192 0.788098C5.64673 1.13379 5.8665 1.56475 5.95555 2.03066C6.00739 2.30189 5.82954 2.56379 5.55831 2.61564C5.28708 2.66748 5.02517 2.48963 4.97333 2.2184C4.9199 1.93885 4.78804 1.68027 4.59315 1.47286C4.39827 1.26545 4.14839 1.11776 3.87271 1.04704Z" fill="white"/>
<path fill-rule="evenodd" clip-rule="evenodd" d="M7.7503 9C7.09373 9 6.45038 9.1846 5.8937 9.53273C5.33701 9.88086 4.88942 10.3785 4.60201 10.9688C4.48113 11.2171 4.18187 11.3204 3.93359 11.1995C3.68531 11.0786 3.58203 10.7794 3.70291 10.5311C4.0724 9.77216 4.64781 9.13242 5.36348 8.68487C6.07914 8.23732 6.90622 8 7.7503 8C8.59438 8 9.42146 8.23731 10.1371 8.68486C10.8528 9.1324 11.4282 9.77214 11.7977 10.5311C11.9186 10.7793 11.8153 11.0786 11.567 11.1995C11.3188 11.3204 11.0195 11.2171 10.8986 10.9688C10.6112 10.3785 10.1636 9.88084 9.60691 9.53272C9.05023 9.1846 8.40688 9 7.7503 9Z" fill="white"/>
<path fill-rule="evenodd" clip-rule="evenodd" d="M3.49979 5C2.99528 4.99958 2.49762 5.11683 2.04636 5.34243C1.59509 5.56803 1.20266 5.89576 0.900245 6.29958C0.734717 6.52062 0.421349 6.56561 0.200316 6.40009C-0.0207162 6.23456 -0.0657122 5.92119 0.0998149 5.70016C0.495448 5.17186 1.00884 4.74311 1.5992 4.44797C2.18955 4.15284 2.8406 3.99945 3.50062 4C3.77677 4.00023 4.00044 4.22428 4.00021 4.50042C3.99998 4.77656 3.77593 5.00023 3.49979 5Z" fill="white"/>
<path fill-rule="evenodd" clip-rule="evenodd" d="M13.4538 5.34239C13.0025 5.11682 12.5049 4.99958 12.0004 5C11.7243 5.00023 11.5002 4.77656 11.5 4.50042C11.4998 4.22428 11.7234 4.00023 11.9996 4C12.6596 3.99945 13.3106 4.15282 13.9009 4.44793C14.4913 4.74304 15.0046 5.17174 15.4003 5.7C15.5658 5.92102 15.5208 6.23439 15.2998 6.39993C15.0788 6.56547 14.7654 6.52049 14.5999 6.29946C14.2974 5.89567 13.905 5.56797 13.4538 5.34239Z" fill="white"/>
<path fill-rule="evenodd" clip-rule="evenodd" d="M7.75 4C6.64543 4 5.75 4.89543 5.75 6C5.75 7.10457 6.64543 8 7.75 8C8.85457 8 9.75 7.10457 9.75 6C9.75 4.89543 8.85457 4 7.75 4ZM4.75 6C4.75 4.34315 6.09315 3 7.75 3C9.40685 3 10.75 4.34315 10.75 6C10.75 7.65685 9.40685 9 7.75 9C6.09315 9 4.75 7.65685 4.75 6Z" fill="white"/>
<path opacity="0.2" d="M12 4.5C13.1046 4.5 14 3.60457 14 2.5C14 1.39543 13.1046 0.5 12 0.5C10.8954 0.5 10 1.39543 10 2.5C10 3.60457 10.8954 4.5 12 4.5Z" fill="white"/>
<path opacity="0.36" d="M3.5 4.5C4.60457 4.5 5.5 3.60457 5.5 2.5C5.5 1.39543 4.60457 0.5 3.5 0.5C2.39543 0.5 1.5 1.39543 1.5 2.5C1.5 3.60457 2.39543 4.5 3.5 4.5Z" fill="white"/>
<path opacity="0.36" d="M7.75 8.5C9.13071 8.5 10.25 7.38071 10.25 6C10.25 4.61929 9.13071 3.5 7.75 3.5C6.36929 3.5 5.25 4.61929 5.25 6C5.25 7.38071 6.36929 8.5 7.75 8.5Z" fill="white"/>
</svg>
