<svg width="72" height="56" fill="none" xmlns="http://www.w3.org/2000/svg"><path d="M1 29.752c1.256.327 4.426.588 7.063-.98 2.637-1.568 5.807-4.9 7.063-6.37 1.412-2.07 6.56-4.608 15.852 1.796 9.291 6.404 15.904-1.58 18.049-6.37l4.865-9.966C56.717 1.818 64.594-5.536 71.5 12.5" stroke="#1C6FBC" stroke-linecap="round"/><path d="M7.265 29.334c-2.713 1.6-5.974 1.333-7.265 1V56h72V12.501c-7.103-18.4-14.69-10.666-17.596-4.5l-5.005 10.167c-2.206 4.888-9.008 13.033-18.565 6.5-9.557-6.534-14.852-3.945-16.305-1.834-1.291 1.5-4.552 4.9-7.264 6.5z" fill="url(#paint0_linear_1024_31103)"/><defs><linearGradient id="paint0_linear_1024_31103" x1="29.032" y1="-39.652" x2="29.838" y2="66.362" gradientUnits="userSpaceOnUse"><stop stop-color="#1C6FBC" stop-opacity=".72"/><stop offset=".963" stop-color="#fff" stop-opacity="0"/></linearGradient></defs></svg>