<svg width="146" height="56" fill="none" xmlns="http://www.w3.org/2000/svg"><path d="M15.53 29.334c-5.425 1.6-11.947 1.333-14.53 1V56h144V12.501c-14.206-18.4-29.381-10.666-35.193-4.5L99.798 18.168c-4.412 4.888-18.016 13.033-37.13 6.5-19.114-6.534-29.704-3.945-32.61-1.834-2.583 1.5-9.105 4.9-14.529 6.5z" fill="url(#paint0_linear_747_282868)"/><path d="M1 30.742c2.565.34 9.04.611 14.426-1.018 5.386-1.629 11.862-5.091 14.426-6.618 2.885-2.15 13.4-4.786 32.379 1.866 18.978 6.653 32.485-1.64 36.866-6.618L109.035 8c5.771-6.279 21.859-13.919 35.965 4.817" stroke="#38C470" stroke-linecap="round"/><defs><linearGradient id="paint0_linear_747_282868" x1="76.5" y1="1" x2="76.5" y2="56" gradientUnits="userSpaceOnUse"><stop stop-color="#20CA11"/><stop offset=".963" stop-color="#fff" stop-opacity="0"/></linearGradient></defs></svg>