<svg width="19" height="16" fill="none" xmlns="http://www.w3.org/2000/svg"><path fill-rule="evenodd" clip-rule="evenodd" d="M9.047.093a.625.625 0 01.656 0l8.125 5A.625.625 0 0117.5 6.25H1.25a.625.625 0 01-.328-1.157l8.125-5zM3.458 5h11.834L9.375 1.359 3.458 5z" fill="#1C6FBC"/><path fill-rule="evenodd" clip-rule="evenodd" d="M3.75 5c.345 0 .625.28.625.625v7.083a.625.625 0 11-1.25 0V5.625c0-.345.28-.625.625-.625zM7.5 5c.345 0 .625.28.625.625v7.083a.625.625 0 11-1.25 0V5.625c0-.345.28-.625.625-.625zm3.75 0c.345 0 .625.28.625.625v7.083a.625.625 0 11-1.25 0V5.625c0-.345.28-.625.625-.625zM15 5c.345 0 .625.28.625.625v7.083a.625.625 0 11-1.25 0V5.625c0-.345.28-.625.625-.625z" fill="#1C6FBC"/><path fill-rule="evenodd" clip-rule="evenodd" d="M1.25 12.708c0-.345.28-.625.625-.625h15a.625.625 0 010 1.25h-15a.625.625 0 01-.625-.625zM0 15.208c0-.345.28-.625.625-.625h17.5a.625.625 0 010 1.25H.625A.625.625 0 010 15.208z" fill="#1C6FBC"/></svg>