<svg width="20" height="14" fill="none" xmlns="http://www.w3.org/2000/svg"><path fill-rule="evenodd" clip-rule="evenodd" d="M9.28.05a1.25 1.25 0 01.866.061l2.578 1.167h1.28l1.819-.91a1.25 1.25 0 011.667.54l1.921 3.68-.554.289.554-.29a1.25 1.25 0 01-.549 1.697l-1.818.909-1.167 1.366a.64.64 0 01-.034.036l-2.874 2.874a1.251 1.251 0 01-1.187.33l-4.528-1.133a1.248 1.248 0 01-.467-.228l-4.221-3.3L.691 6.2a1.25 1.25 0 01-.549-1.697L2.063.824A1.25 1.25 0 013.73.284l-.28.56.28-.56 1.748.875L9.281.05l.175.6-.175-.6zM5.825 2.36L3.696 6.435l3.861 3.019 4.528 1.131 2.357-2.357L11.97 6.43l-.63.473a3.125 3.125 0 01-3.75 0l-.424-.318a1.25 1.25 0 01-.134-1.884l3.057-3.057c.044-.045.092-.085.142-.122l-.6-.272-3.807 1.11zm-1.27-.267l-1.383-.69L1.25 5.082l1.382.69 1.921-3.679zm8.025.435h-1.606L7.916 5.585l.423.318a1.875 1.875 0 002.25 0l1-.75a.625.625 0 01.743-.006l2.97 2.16.6-.702-2.13-4.077H12.58zm2.42-.35l1.921 3.679 1.382-.691-1.921-3.68L15 2.177zM3.68 10.174a.625.625 0 01.882-.061l1.762 1.531 2.354.589a.625.625 0 11-.303 1.213l-2.355-.59a1.25 1.25 0 01-.517-.268l-1.761-1.532a.625.625 0 01-.062-.882z" fill="#868F98"/></svg>