<svg width="12" height="13" viewBox="0 0 12 13" fill="none" xmlns="http://www.w3.org/2000/svg">
<path fill-rule="evenodd" clip-rule="evenodd" d="M8.04292 0.190301C8.34624 0.0646644 8.67133 2.98024e-08 8.99963 0C9.32794 -5.96046e-08 9.65303 0.0646645 9.95634 0.190301C10.2597 0.315938 10.5353 0.500087 10.7674 0.732233C10.9995 0.964379 11.1837 1.23998 11.3093 1.54329C11.435 1.84661 11.4996 2.1717 11.4996 2.5C11.4996 2.8283 11.435 3.15339 11.3093 3.45671C11.1839 3.75947 11.0002 4.03461 10.7687 4.2665C10.7682 4.26692 10.7678 4.26734 10.7674 4.26777L4.56067 10.561C4.27937 10.8423 3.89783 11.0003 3.5 11.0003C3.10218 11.0003 2.72064 10.8423 2.43934 10.561C2.15804 10.2797 2 9.89813 2 9.50031C2 9.10324 2.15744 8.7224 2.43774 8.44125L7.64318 3.14937C7.83683 2.95251 8.1534 2.9499 8.35026 3.14355C8.54713 3.3372 8.54973 3.65377 8.35609 3.85063L3.14646 9.14676C3.05269 9.24053 3 9.3677 3 9.50031C3 9.63291 3.05268 9.76009 3.14645 9.85386C3.24022 9.94763 3.36739 10.0003 3.5 10.0003C3.63213 10.0003 3.75887 9.94801 3.85254 9.85487C3.85288 9.85453 3.85322 9.8542 3.85355 9.85386L10.0603 3.56065C10.1996 3.42136 10.3101 3.25601 10.3855 3.07403C10.4608 2.89204 10.4996 2.69698 10.4996 2.5C10.4996 2.30302 10.4608 2.10796 10.3855 1.92597C10.3101 1.74399 10.1996 1.57863 10.0603 1.43934C9.92101 1.30005 9.75565 1.18956 9.57366 1.11418C9.39167 1.0388 9.19662 1 8.99963 1C8.80265 1 8.6076 1.0388 8.42561 1.11418C8.24412 1.18936 8.07917 1.29944 7.94012 1.43819L1.73224 7.73255C1.2634 8.20139 1 8.83726 1 9.50031C1 10.1633 1.26339 10.7992 1.73223 11.2681C2.20107 11.7369 2.83696 12.0003 3.5 12.0003C4.16304 12.0003 4.79893 11.7369 5.26777 11.2681L10.3963 6.14622C10.5917 5.95108 10.9083 5.95129 11.1034 6.14668C11.2986 6.34207 11.2983 6.65865 11.103 6.85379L5.97487 11.9752C5.3185 12.6316 4.42826 13.0003 3.5 13.0003C2.57174 13.0003 1.6815 12.6316 1.02513 11.9752C0.368749 11.3188 0 10.4286 0 9.50031C0 8.57265 0.368274 7.68296 1.02386 7.0267L7.23186 0.732225C7.464 0.500078 7.73961 0.315938 8.04292 0.190301Z" fill="#1C6FBC"/>
</svg>
