<svg width="12" height="15" viewBox="0 0 12 15" fill="none" xmlns="http://www.w3.org/2000/svg">
<path fill-rule="evenodd" clip-rule="evenodd" d="M3.5 10C3.5 9.72386 3.72386 9.5 4 9.5H8C8.27614 9.5 8.5 9.72386 8.5 10C8.5 10.2761 8.27614 10.5 8 10.5H4C3.72386 10.5 3.5 10.2761 3.5 10Z" fill="#1C6FBC"/>
<path fill-rule="evenodd" clip-rule="evenodd" d="M3.5 8C3.5 7.72386 3.72386 7.5 4 7.5H8C8.27614 7.5 8.5 7.72386 8.5 8C8.5 8.27614 8.27614 8.5 8 8.5H4C3.72386 8.5 3.5 8.27614 3.5 8Z" fill="#1C6FBC"/>
<path fill-rule="evenodd" clip-rule="evenodd" d="M7.5 1C7.77614 1 8 1.22386 8 1.5V4.5H11.0005C11.2766 4.5 11.5005 4.72386 11.5005 5C11.5005 5.27614 11.2766 5.5 11.0005 5.5H7.5C7.22386 5.5 7 5.27614 7 5V1.5C7 1.22386 7.22386 1 7.5 1Z" fill="#1C6FBC"/>
<path d="M10.5 13.5H1.49998C1.36737 13.5 1.2402 13.4473 1.14643 13.3535C1.05267 13.2598 0.999997 13.1326 1 13V2C0.999997 1.8674 1.05267 1.74022 1.14643 1.64645C1.2402 1.55268 1.36737 1.5 1.49998 1.5H7.50017L11 5V13C11 13.1326 10.9473 13.2598 10.8536 13.3535C10.7598 13.4473 10.6326 13.5 10.5 13.5V13.5Z" stroke="#1C6FBC" stroke-width="1.25" stroke-linecap="round" stroke-linejoin="round"/>
</svg>
