<svg width="13" height="13" viewBox="0 0 13 13" fill="none" xmlns="http://www.w3.org/2000/svg">
<path d="M7.0625 3.75C7.0625 4.1297 6.7547 4.4375 6.375 4.4375C5.9953 4.4375 5.6875 4.1297 5.6875 3.75C5.6875 3.3703 5.9953 3.0625 6.375 3.0625C6.7547 3.0625 7.0625 3.3703 7.0625 3.75Z" fill="#1C6FBC" stroke="#868F98" stroke-width="0.125"/>
<path fill-rule="evenodd" clip-rule="evenodd" d="M5.5 6C5.5 5.72386 5.72386 5.5 6 5.5H6.5C6.77614 5.5 7 5.72386 7 6V9C7.27614 9 7.5 9.22386 7.5 9.5C7.5 9.77614 7.27614 10 7 10H6.5C6.22386 10 6 9.77614 6 9.5V6.5C5.72386 6.5 5.5 6.27614 5.5 6Z" fill="#1C6FBC"/>
<path fill-rule="evenodd" clip-rule="evenodd" d="M6.5 1C3.46243 1 1 3.46243 1 6.5C1 9.53757 3.46243 12 6.5 12C9.53757 12 12 9.53757 12 6.5C12 3.46243 9.53757 1 6.5 1ZM0 6.5C0 2.91015 2.91015 0 6.5 0C10.0899 0 13 2.91015 13 6.5C13 10.0899 10.0899 13 6.5 13C2.91015 13 0 10.0899 0 6.5Z" fill="#1C6FBC"/>
</svg>
