<svg width="15" height="9" viewBox="0 0 15 9" fill="none" xmlns="http://www.w3.org/2000/svg">
<path fill-rule="evenodd" clip-rule="evenodd" d="M0.123719 4.67075C0.30556 4.46294 0.621441 4.44188 0.829259 4.62372L4.82926 8.12372C5.03708 8.30556 5.05814 8.62144 4.8763 8.82926C4.69445 9.03708 4.37857 9.05814 4.17075 8.8763L0.170755 5.3763C-0.0370638 5.19445 -0.0581225 4.87857 0.123719 4.67075Z" fill="#1C6FBC"/>
<path fill-rule="evenodd" clip-rule="evenodd" d="M4.8763 0.170755C5.05814 0.378573 5.03708 0.694454 4.82926 0.876295L0.829259 4.3763C0.621441 4.55814 0.30556 4.53708 0.123719 4.32926C-0.0581225 4.12144 -0.0370638 3.80556 0.170755 3.62372L4.17075 0.123719C4.37857 -0.0581225 4.69445 -0.0370638 4.8763 0.170755Z" fill="#1C6FBC"/>
<path fill-rule="evenodd" clip-rule="evenodd" d="M14.8763 4.67075C15.0581 4.87857 15.0371 5.19445 14.8293 5.3763L10.8293 8.8763C10.6214 9.05814 10.3056 9.03708 10.1237 8.82926C9.94188 8.62144 9.96294 8.30556 10.1708 8.12372L14.1708 4.62372C14.3786 4.44188 14.6945 4.46294 14.8763 4.67075Z" fill="#1C6FBC"/>
<path fill-rule="evenodd" clip-rule="evenodd" d="M10.1237 0.170755C10.3056 -0.0370638 10.6214 -0.0581225 10.8293 0.123719L14.8293 3.62372C15.0371 3.80556 15.0581 4.12144 14.8763 4.32926C14.6945 4.53708 14.3786 4.55814 14.1708 4.3763L10.1708 0.876295C9.96294 0.694454 9.94188 0.378573 10.1237 0.170755Z" fill="#1C6FBC"/>
<path fill-rule="evenodd" clip-rule="evenodd" d="M7.5 3C6.67157 3 6 3.67157 6 4.5C6 5.32843 6.67157 6 7.5 6C8.32843 6 9 5.32843 9 4.5C9 3.67157 8.32843 3 7.5 3ZM5 4.5C5 3.11929 6.11929 2 7.5 2C8.88071 2 10 3.11929 10 4.5C10 5.88071 8.88071 7 7.5 7C6.11929 7 5 5.88071 5 4.5Z" fill="#1C6FBC"/>
<path fill-rule="evenodd" clip-rule="evenodd" d="M0 1C0 0.447715 0.447715 0 1 0H14C14.5523 0 15 0.447715 15 1V8C15 8.55229 14.5523 9 14 9H1C0.447715 9 0 8.55229 0 8V1ZM14 1H1V8H14V1Z" fill="#1C6FBC"/>
</svg>
