<svg width="15" height="15" viewBox="0 0 15 15" fill="none" xmlns="http://www.w3.org/2000/svg">
<path fill-rule="evenodd" clip-rule="evenodd" d="M7.25 5.75C6.42157 5.75 5.75 6.42157 5.75 7.25C5.75 8.07843 6.42157 8.75 7.25 8.75C8.07843 8.75 8.75 8.07843 8.75 7.25C8.75 6.42157 8.07843 5.75 7.25 5.75ZM4.75 7.25C4.75 5.86929 5.86929 4.75 7.25 4.75C8.63071 4.75 9.75 5.86929 9.75 7.25C9.75 8.63071 8.63071 9.75 7.25 9.75C5.86929 9.75 4.75 8.63071 4.75 7.25Z" fill="#1C6FBC"/>
<path fill-rule="evenodd" clip-rule="evenodd" d="M11 7.25C11 6.97386 11.2239 6.75 11.5 6.75H14C14.2761 6.75 14.5 6.97386 14.5 7.25C14.5 7.52614 14.2761 7.75 14 7.75H11.5C11.2239 7.75 11 7.52614 11 7.25Z" fill="#1C6FBC"/>
<path fill-rule="evenodd" clip-rule="evenodd" d="M7.25 11C7.52614 11 7.75 11.2239 7.75 11.5V14C7.75 14.2761 7.52614 14.5 7.25 14.5C6.97386 14.5 6.75 14.2761 6.75 14V11.5C6.75 11.2239 6.97386 11 7.25 11Z" fill="#1C6FBC"/>
<path fill-rule="evenodd" clip-rule="evenodd" d="M0 7.25C0 6.97386 0.223858 6.75 0.5 6.75H3C3.27614 6.75 3.5 6.97386 3.5 7.25C3.5 7.52614 3.27614 7.75 3 7.75H0.5C0.223858 7.75 0 7.52614 0 7.25Z" fill="#1C6FBC"/>
<path fill-rule="evenodd" clip-rule="evenodd" d="M7.25 0C7.52614 0 7.75 0.223858 7.75 0.5V3C7.75 3.27614 7.52614 3.5 7.25 3.5C6.97386 3.5 6.75 3.27614 6.75 3V0.5C6.75 0.223858 6.97386 0 7.25 0Z" fill="#1C6FBC"/>
<path fill-rule="evenodd" clip-rule="evenodd" d="M7.25 2.25C4.48858 2.25 2.25 4.48858 2.25 7.25C2.25 10.0114 4.48858 12.25 7.25 12.25C10.0114 12.25 12.25 10.0114 12.25 7.25C12.25 4.48858 10.0114 2.25 7.25 2.25ZM1.25 7.25C1.25 3.93629 3.93629 1.25 7.25 1.25C10.5637 1.25 13.25 3.93629 13.25 7.25C13.25 10.5637 10.5637 13.25 7.25 13.25C3.93629 13.25 1.25 10.5637 1.25 7.25Z" fill="#1C6FBC"/>
</svg>
