<svg width="19" height="16" viewBox="0 0 19 16" fill="none" xmlns="http://www.w3.org/2000/svg">
<path fill-rule="evenodd" clip-rule="evenodd" d="M9.04738 0.0927135C9.24826 -0.0309045 9.50163 -0.0309045 9.70251 0.0927135L17.8275 5.09271C18.0656 5.23926 18.1775 5.52616 18.1013 5.79522C18.0252 6.06427 17.7796 6.25 17.4999 6.25H1.24994C0.970321 6.25 0.724722 6.06427 0.648569 5.79522C0.572416 5.52616 0.68424 5.23926 0.922383 5.09271L9.04738 0.0927135ZM3.4581 5H15.2918L9.37494 1.35886L3.4581 5Z" fill="#1C6FBC"/>
<path fill-rule="evenodd" clip-rule="evenodd" d="M3.74999 5C4.09517 5 4.37499 5.27982 4.37499 5.625V12.7083C4.37499 13.0535 4.09517 13.3333 3.74999 13.3333C3.40481 13.3333 3.12499 13.0535 3.12499 12.7083V5.625C3.12499 5.27982 3.40481 5 3.74999 5Z" fill="#1C6FBC"/>
<path fill-rule="evenodd" clip-rule="evenodd" d="M7.49999 5C7.84517 5 8.12499 5.27982 8.12499 5.625V12.7083C8.12499 13.0535 7.84517 13.3333 7.49999 13.3333C7.15481 13.3333 6.87499 13.0535 6.87499 12.7083V5.625C6.87499 5.27982 7.15481 5 7.49999 5Z" fill="#1C6FBC"/>
<path fill-rule="evenodd" clip-rule="evenodd" d="M11.25 5C11.5952 5 11.875 5.27982 11.875 5.625V12.7083C11.875 13.0535 11.5952 13.3333 11.25 13.3333C10.9048 13.3333 10.625 13.0535 10.625 12.7083V5.625C10.625 5.27982 10.9048 5 11.25 5Z" fill="#1C6FBC"/>
<path fill-rule="evenodd" clip-rule="evenodd" d="M15 5C15.3452 5 15.625 5.27982 15.625 5.625V12.7083C15.625 13.0535 15.3452 13.3333 15 13.3333C14.6548 13.3333 14.375 13.0535 14.375 12.7083V5.625C14.375 5.27982 14.6548 5 15 5Z" fill="#1C6FBC"/>
<path fill-rule="evenodd" clip-rule="evenodd" d="M1.25 12.7083C1.25 12.3632 1.52982 12.0833 1.875 12.0833H16.875C17.2202 12.0833 17.5 12.3632 17.5 12.7083C17.5 13.0535 17.2202 13.3333 16.875 13.3333H1.875C1.52982 13.3333 1.25 13.0535 1.25 12.7083Z" fill="#1C6FBC"/>
<path fill-rule="evenodd" clip-rule="evenodd" d="M0 15.2083C0 14.8632 0.279822 14.5833 0.625 14.5833H18.125C18.4702 14.5833 18.75 14.8632 18.75 15.2083C18.75 15.5535 18.4702 15.8333 18.125 15.8333H0.625C0.279822 15.8333 0 15.5535 0 15.2083Z" fill="#1C6FBC"/>
</svg>
