<svg width="17" height="14" viewBox="0 0 17 14" fill="none" xmlns="http://www.w3.org/2000/svg">
<path fill-rule="evenodd" clip-rule="evenodd" d="M2.5 0.625C2.5 0.279822 2.77982 0 3.125 0H15C15.3315 0 15.6495 0.131697 15.8839 0.366117C16.1183 0.600536 16.25 0.918477 16.25 1.25V10.625C16.25 10.9702 15.9702 11.25 15.625 11.25C15.2798 11.25 15 10.9702 15 10.625V1.25H3.125C2.77982 1.25 2.5 0.970178 2.5 0.625Z" fill="#1C6FBC"/>
<path fill-rule="evenodd" clip-rule="evenodd" d="M0 3.75C0 3.05964 0.559644 2.5 1.25 2.5H12.5C13.1904 2.5 13.75 3.05964 13.75 3.75V12.5C13.75 13.1904 13.1904 13.75 12.5 13.75H1.25C0.559644 13.75 0 13.1904 0 12.5V3.75ZM12.5 3.75H1.25V12.5H12.5V3.75Z" fill="#1C6FBC"/>
</svg>
