<svg width="17" height="15" viewBox="0 0 17 15" fill="none" xmlns="http://www.w3.org/2000/svg">
<path fill-rule="evenodd" clip-rule="evenodd" d="M6.5625 6.875C6.5625 6.52982 6.84232 6.25 7.1875 6.25H9.0625C9.40768 6.25 9.6875 6.52982 9.6875 6.875C9.6875 7.22018 9.40768 7.5 9.0625 7.5H7.1875C6.84232 7.5 6.5625 7.22018 6.5625 6.875Z" fill="#1C6FBC"/>
<path fill-rule="evenodd" clip-rule="evenodd" d="M16.1662 7.05491C16.3391 7.35369 16.237 7.73603 15.9382 7.90888C13.5636 9.28272 10.8679 10.0041 8.12459 10C5.3817 10.0041 2.68647 9.28296 0.312163 7.90957C0.013371 7.73674 -0.0887397 7.35441 0.0840926 7.05562C0.256925 6.75683 0.639252 6.65472 0.938044 6.82755C3.12183 8.09073 5.60081 8.75397 8.12361 8.75H8.12557C10.6488 8.75397 13.1282 8.09051 15.3122 6.82692C15.611 6.65406 15.9933 6.75614 16.1662 7.05491Z" fill="#1C6FBC"/>
<path fill-rule="evenodd" clip-rule="evenodd" d="M4.92418 0.549175C5.27581 0.197544 5.75272 0 6.25 0H10C10.4973 0 10.9742 0.197544 11.3258 0.549175C11.6775 0.900805 11.875 1.37772 11.875 1.875V3.125C11.875 3.47018 11.5952 3.75 11.25 3.75C10.9048 3.75 10.625 3.47018 10.625 3.125V1.875C10.625 1.70924 10.5592 1.55027 10.4419 1.43306C10.3247 1.31585 10.1658 1.25 10 1.25H6.25C6.08424 1.25 5.92527 1.31585 5.80806 1.43306C5.69085 1.55027 5.625 1.70924 5.625 1.875V3.125C5.625 3.47018 5.34518 3.75 5 3.75C4.65482 3.75 4.375 3.47018 4.375 3.125V1.875C4.375 1.37772 4.57254 0.900805 4.92418 0.549175Z" fill="#1C6FBC"/>
<path fill-rule="evenodd" clip-rule="evenodd" d="M0.000976562 3.75C0.000976562 3.05964 0.560621 2.5 1.25098 2.5H15.001C15.6913 2.5 16.251 3.05964 16.251 3.75V13.75C16.251 14.4404 15.6913 15 15.001 15H1.25098C0.560621 15 0.000976562 14.4404 0.000976562 13.75V3.75ZM15.001 3.75H1.25098V13.75H15.001V3.75Z" fill="#1C6FBC"/>
</svg>
