<svg width="17" height="17" viewBox="0 0 17 17" fill="none" xmlns="http://www.w3.org/2000/svg">
<path fill-rule="evenodd" clip-rule="evenodd" d="M7.49978 0.624884C7.49984 0.279706 7.77971 -6.38405e-05 8.12489 1.09274e-08C9.54841 0.000263314 10.9469 0.374518 12.1802 1.08528C13.4136 1.79605 14.4386 2.81839 15.1526 4.04991C15.8665 5.28143 16.2444 6.67892 16.2484 8.10243C16.2523 9.52594 15.8822 10.9255 15.1751 12.161C14.468 13.3964 13.4487 14.4245 12.2193 15.1421C10.9899 15.8597 9.59352 16.2417 8.17003 16.2499C6.74654 16.258 5.34589 15.8921 4.10832 15.1886C2.87076 14.4852 1.83974 13.4689 1.11849 12.2417C0.943597 11.9441 1.04307 11.5611 1.34066 11.3862C1.63825 11.2113 2.02127 11.3107 2.19617 11.6083C2.80645 12.6468 3.67886 13.5067 4.72603 14.1019C5.77319 14.6971 6.95836 15.0068 8.16286 14.9999C9.36735 14.993 10.5489 14.6697 11.5892 14.0625C12.6294 13.4553 13.4919 12.5855 14.0902 11.5401C14.6885 10.4947 15.0017 9.31041 14.9984 8.1059C14.995 6.90139 14.6753 5.7189 14.0712 4.67685C13.467 3.63479 12.5997 2.76974 11.5561 2.16832C10.5125 1.5669 9.32917 1.25022 8.12466 1.25C7.77948 1.24994 7.49971 0.970062 7.49978 0.624884Z" fill="#1C6FBC"/>
<path fill-rule="evenodd" clip-rule="evenodd" d="M5.98545 0.541248C6.15129 0.658368 6.2499 0.84874 6.2499 1.05176V6.68161C6.2499 6.9049 6.13077 7.11123 5.9374 7.22288L1.06257 10.0374C0.886754 10.1389 0.672592 10.1487 0.488252 10.0636C0.303911 9.97857 0.17236 9.80929 0.135472 9.60966C-0.21627 7.70611 0.122152 5.73952 1.08996 4.06305C2.05777 2.38658 3.59157 1.11006 5.4159 0.462742C5.60723 0.394852 5.81962 0.424127 5.98545 0.541248ZM4.9999 2.00023C3.8238 2.60198 2.8394 3.53281 2.17252 4.688C1.50562 5.84322 1.19182 7.16121 1.25888 8.48065L4.9999 6.32077V2.00023Z" fill="#1C6FBC"/>
<path fill-rule="evenodd" clip-rule="evenodd" d="M15.1616 4.06248C15.3342 4.36142 15.2318 4.74366 14.9329 4.91625L1.94249 12.4162C1.64355 12.5888 1.26131 12.4864 1.08872 12.1875C0.916132 11.8885 1.01855 11.5063 1.31749 11.3337L14.3079 3.83372C14.6068 3.66113 14.989 3.76355 15.1616 4.06248Z" fill="#1C6FBC"/>
<path fill-rule="evenodd" clip-rule="evenodd" d="M8.125 0C8.47018 0 8.75 0.279822 8.75 0.625V8.125C8.75 8.47018 8.47018 8.75 8.125 8.75C7.77982 8.75 7.5 8.47018 7.5 8.125V0.625C7.5 0.279822 7.77982 0 8.125 0Z" fill="#1C6FBC"/>
</svg>
