<svg width="16" height="15" viewBox="0 0 16 15" fill="none" xmlns="http://www.w3.org/2000/svg">
<path fill-rule="evenodd" clip-rule="evenodd" d="M11.0669 6.12056C11.311 6.36464 11.311 6.76036 11.0669 7.00444L3.56694 14.5044C3.32286 14.7485 2.92714 14.7485 2.68306 14.5044L0.183058 12.0044C-0.0610194 11.7604 -0.0610194 11.3646 0.183058 11.1206C0.427136 10.8765 0.822864 10.8765 1.06694 11.1206L3.125 13.1786L10.1831 6.12056C10.4271 5.87648 10.8229 5.87648 11.0669 6.12056Z" fill="#1C6FBC"/>
<path fill-rule="evenodd" clip-rule="evenodd" d="M1.30362 0.366117C1.53804 0.131696 1.85598 0 2.1875 0H14.0625C14.394 0 14.712 0.131697 14.9464 0.366117C15.1808 0.600536 15.3125 0.918477 15.3125 1.25V13.125C15.3125 13.4565 15.1808 13.7745 14.9464 14.0089C14.712 14.2433 14.394 14.375 14.0625 14.375H8.72155C8.37638 14.375 8.09655 14.0952 8.09655 13.75C8.09655 13.4048 8.37638 13.125 8.72155 13.125H14.0625V1.25L2.1875 1.25L2.1875 8.38068C2.1875 8.72586 1.90768 9.00568 1.5625 9.00568C1.21732 9.00568 0.9375 8.72586 0.9375 8.38068V1.25C0.9375 0.91848 1.0692 0.600537 1.30362 0.366117Z" fill="#1C6FBC"/>
</svg>
