<svg width="14" height="17" viewBox="0 0 14 17" fill="none" xmlns="http://www.w3.org/2000/svg">
<path fill-rule="evenodd" clip-rule="evenodd" d="M3.125 12.5C3.125 12.1548 3.40482 11.875 3.75 11.875H7.5C7.84518 11.875 8.125 12.1548 8.125 12.5C8.125 12.8452 7.84518 13.125 7.5 13.125H3.75C3.40482 13.125 3.125 12.8452 3.125 12.5Z" fill="#1C6FBC"/>
<path fill-rule="evenodd" clip-rule="evenodd" d="M3.125 10C3.125 9.65482 3.40482 9.375 3.75 9.375H7.5C7.84518 9.375 8.125 9.65482 8.125 10C8.125 10.3452 7.84518 10.625 7.5 10.625H3.75C3.40482 10.625 3.125 10.3452 3.125 10Z" fill="#1C6FBC"/>
<path fill-rule="evenodd" clip-rule="evenodd" d="M2.86612 0.366117C3.10054 0.131696 3.41848 0 3.75 0H10C10.1658 0 10.3247 0.065848 10.4419 0.183058L13.5669 3.30806C13.6842 3.42527 13.75 3.58424 13.75 3.75V12.5C13.75 12.8315 13.6183 13.1495 13.3839 13.3839C13.1495 13.6183 12.8315 13.75 12.5 13.75H10.625C10.2798 13.75 10 13.4702 10 13.125C10 12.7798 10.2798 12.5 10.625 12.5H12.5V4.00888L9.74112 1.25L3.75 1.25L3.75 3.125C3.75 3.47018 3.47018 3.75 3.125 3.75C2.77982 3.75 2.5 3.47018 2.5 3.125V1.25C2.5 0.918479 2.6317 0.600537 2.86612 0.366117Z" fill="#1C6FBC"/>
<path fill-rule="evenodd" clip-rule="evenodd" d="M0.366117 2.86612C0.600537 2.6317 0.918479 2.5 1.25 2.5H7.5C7.66576 2.5 7.82473 2.56585 7.94194 2.68306L11.0669 5.80806C11.1842 5.92527 11.25 6.08424 11.25 6.25V15C11.25 15.3315 11.1183 15.6495 10.8839 15.8839C10.6495 16.1183 10.3315 16.25 10 16.25H1.25C0.91848 16.25 0.600538 16.1183 0.366117 15.8839C0.131696 15.6495 0 15.3315 0 15V3.75C0 3.41848 0.131696 3.10054 0.366117 2.86612ZM7.24112 3.75L1.25 3.75L1.25 15H10V6.50888L7.24112 3.75Z" fill="#1C6FBC"/>
</svg>
