<svg width="20" height="14" viewBox="0 0 20 14" fill="none" xmlns="http://www.w3.org/2000/svg">
<path fill-rule="evenodd" clip-rule="evenodd" d="M9.28088 0.0499573C9.56733 -0.0335512 9.8742 -0.0118432 10.146 0.111159L12.7241 1.27767L14.004 1.2777L15.8228 0.368326C16.1159 0.221768 16.4549 0.196181 16.7667 0.297076C17.0785 0.397972 17.3382 0.617278 17.4898 0.907772L19.4112 4.58722L18.8571 4.87652L19.4112 4.58723C19.488 4.73438 19.5348 4.89536 19.5487 5.06077C19.5627 5.22618 19.5435 5.39271 19.4924 5.55066C19.4413 5.7086 19.3593 5.85477 19.251 5.98066C19.1428 6.10654 19.0106 6.20961 18.8622 6.28385L17.0444 7.19274L15.8767 8.55878C15.8661 8.57115 15.855 8.58311 15.8435 8.59462L12.9687 11.4694C12.8161 11.622 12.6265 11.7325 12.4185 11.7902C12.2105 11.8478 11.9911 11.8505 11.7817 11.7982L7.2538 10.6662C7.08395 10.6238 6.92491 10.5461 6.78698 10.4382L2.56596 7.13757L0.690984 6.20008C0.542507 6.12584 0.410305 6.02277 0.302092 5.89689C0.193879 5.771 0.111824 5.62483 0.0607167 5.46689C0.00960885 5.30895 -0.00952849 5.14241 0.00442175 4.977C0.018372 4.81159 0.0651302 4.65061 0.141968 4.50346L2.06329 0.824008C2.06329 0.824007 2.06329 0.824006 2.06329 0.824004C2.21498 0.53351 2.47468 0.314204 2.78648 0.213307C3.09827 0.11241 3.43722 0.137995 3.73034 0.284553L3.45083 0.843571L3.73034 0.284554L5.47831 1.15854L9.28088 0.0499576L9.45581 0.649979L9.28088 0.0499573ZM5.82425 2.35972L3.69639 6.43472L7.55697 9.45354L12.0849 10.5855L14.4424 8.22793L11.9698 6.42959L11.3391 6.90262C10.7981 7.30831 10.1402 7.52762 9.46407 7.52762C8.78791 7.52762 8.13 7.30831 7.58907 6.90262L7.16557 6.585C7.0223 6.47754 6.90379 6.34055 6.81807 6.18332C6.73235 6.02607 6.68141 5.85225 6.66872 5.67361C6.65602 5.49497 6.68186 5.31569 6.74449 5.1479C6.80711 4.98012 6.90505 4.82775 7.03169 4.70111L10.0891 1.64374C10.1334 1.59944 10.1808 1.55863 10.231 1.52162L9.63074 1.25L5.82425 2.35972ZM4.55312 2.09348L3.17132 1.40259L1.25 5.08205L2.63179 5.77294L4.55312 2.09348ZM12.5791 2.52766L10.973 2.52762L7.91557 5.585L8.33907 5.90262C8.66362 6.14604 9.05838 6.27762 9.46407 6.27762C9.86976 6.27762 10.2645 6.14604 10.5891 5.90262L11.5891 5.15262C11.8086 4.98799 12.1098 4.98578 12.3317 5.14716L15.3019 7.30738L15.9021 6.60529L13.7729 2.5277L12.5982 2.52766C12.5919 2.52776 12.5855 2.52776 12.5791 2.52766ZM15 2.17726L16.9213 5.85671L18.3031 5.16581L16.3818 1.48636L15 2.17726ZM3.67987 10.1753C3.90632 9.91479 4.30108 9.88717 4.5616 10.1136L6.32351 11.6451L8.67816 12.2338C9.01303 12.3175 9.21663 12.6568 9.13291 12.9917C9.0492 13.3266 8.70986 13.5302 8.37499 13.4465L6.02035 12.8578C5.82924 12.81 5.65214 12.7178 5.50347 12.5885L3.74155 11.057C3.48104 10.8306 3.45342 10.4358 3.67987 10.1753Z" fill="#868F98"/>
</svg>
