<svg width="15" height="17" viewBox="0 0 15 17" fill="none" xmlns="http://www.w3.org/2000/svg">
<path d="M5.75521 0.208374C3.67187 0.625041 1.17188 3.95837 1.17188 6.45837L2.00521 6.04171L2.83854 3.95837L4.08854 2.29171C4.50521 2.01393 5.42187 1.20837 5.75521 0.208374Z" fill="#1C6FBC"/>
<path fill-rule="evenodd" clip-rule="evenodd" d="M7.46005 1.25009C6.80143 1.24606 6.14851 1.37239 5.53893 1.62182C4.92923 1.87129 4.37493 2.23897 3.90799 2.70367C3.44105 3.16837 3.0707 3.72089 2.8183 4.32938C2.56589 4.93788 2.43642 5.59031 2.43734 6.24908L2.43734 6.24996L2.43733 6.87496C2.43733 9.7611 1.8326 11.4978 1.25111 12.4981L1.25006 12.5H13.5929L13.5918 12.4982C13.0107 11.4979 12.4062 9.76119 12.4062 6.87495V6.32057C12.4062 3.55053 10.1977 1.27065 7.46005 1.25009ZM5.06555 0.464916C5.82792 0.152973 6.64449 -0.00499412 7.4682 0.000120332L7.46896 0.0001251C10.9171 0.0257597 13.6562 2.88752 13.6562 6.32057V6.87495C13.6562 9.58491 14.2226 11.0956 14.6727 11.8702L14.1322 12.1842L14.6715 11.8683C14.7826 12.058 14.8417 12.2736 14.8429 12.4934C14.8441 12.7131 14.7873 12.9294 14.6782 13.1202C14.5692 13.311 14.4117 13.4697 14.2218 13.5803C14.0318 13.6909 13.816 13.7494 13.5962 13.7499L13.5946 13.75H10.5465C10.5465 14.5788 10.2172 15.3737 9.63116 15.9597C9.04511 16.5458 8.25026 16.875 7.42146 16.875C6.59265 16.875 5.7978 16.5458 5.21175 15.9597C4.6257 15.3737 4.29646 14.5788 4.29646 13.75L1.24832 13.75L1.24671 13.7499C1.02689 13.7494 0.811098 13.6909 0.621118 13.5803C0.431137 13.4697 0.27368 13.3109 0.164632 13.1201C0.0555848 12.9292 -0.00119522 12.7129 1.90754e-05 12.4931C0.00123091 12.2738 0.0601576 12.0586 0.170865 11.8692C0.621065 11.0944 1.18733 9.58384 1.18733 6.87495C1.18733 6.87495 1.17601 6.49403 1.18734 6.25039M5.54646 13.75C5.54646 14.2473 5.744 14.7242 6.09563 15.0758C6.44726 15.4275 6.92418 15.625 7.42146 15.625C7.91874 15.625 8.39565 15.4275 8.74728 15.0758C9.09891 14.7242 9.29646 14.2473 9.29646 13.75H5.54646Z" fill="#1C6FBC"/>
</svg>
