<svg width="16" height="16" fill="none" xmlns="http://www.w3.org/2000/svg"><g clip-path="url(#clip0_754_42062)"><path d="M15.844 8.184c0-.544-.044-1.09-.138-1.625H8.16v3.08h4.321a3.703 3.703 0 01-1.599 2.431v2h2.578c1.514-1.394 2.384-3.452 2.384-5.886z" fill="#4285F4"/><path d="M8.16 16.002c2.158 0 3.977-.708 5.303-1.931l-2.578-1.999c-.717.488-1.643.764-2.722.764-2.087 0-3.857-1.408-4.492-3.3h-2.66v2.06a8.001 8.001 0 007.149 4.406z" fill="#34A853"/><path d="M3.668 9.534a4.792 4.792 0 010-3.063V4.41H1.011a8.007 8.007 0 000 7.183l2.657-2.06z" fill="#FBBC04"/><path d="M8.16 3.166a4.347 4.347 0 013.069 1.2l2.284-2.284A7.689 7.689 0 008.16 0a7.998 7.998 0 00-7.149 4.41l2.657 2.06C4.3 4.575 6.073 3.167 8.16 3.167z" fill="#EA4335"/></g><defs><clipPath id="clip0_754_42062"><path fill="#fff" d="M0 0h16v16H0z"/></clipPath></defs></svg>