<svg width="48" height="42" fill="none" xmlns="http://www.w3.org/2000/svg"><path d="M23.933 37.113c.866-10.154 1.359-19.714 0-26.32 0 0-10.665-5.367-21.647-.385a1.385 1.385 0 00-.806 1.263v25.442h22.453z" fill="#868F98"/><path d="M23.933 37.113c.678-11.034 1.328-22.584 2.357-27.255 3.774-1.276 11.549-3.02 19.424.55a1.385 1.385 0 01.807 1.264v25.441H23.933z" fill="#fff"/><path d="M26.29 9.857c-.804.264-1.591.576-2.357.935v26.32h2.357V9.858z" fill="#868F98"/><path d="M22.686 36.575c-3.219-1.26-12.191-3.972-21.207.538v4.169c10.288-2.92 18.342-1.224 21.265-.384a4.332 4.332 0 002.38.003c2.947-.838 11.094-2.544 21.397.381v-4.17c-9.026-4.514-18.096-1.79-21.34-.532a3.434 3.434 0 01-2.495-.005z" fill="url(#paint0_linear_747_297676)"/><path d="M22.363 34.953c-2.2-2.58-6.836-6.685-14.688-7.797a1.57 1.57 0 01-1.357-1.551V2.003a1.167 1.167 0 011.3-1.16c12.141 1.429 16.314 9.95 16.314 9.95V34.37a.892.892 0 01-1.57.582z" fill="#fff"/><path d="M11.435 20.5c1.145.352 2.23.877 3.218 1.557v-3.833a11.467 11.467 0 00-3.218-1.576V20.5z" fill="#868F98"/><path d="M37.185 13.6l1.646-1.42 4.89 5.67a1.087 1.087 0 01-1.645 1.419l-4.89-5.67z" fill="#E89040"/><path d="M30.18 12.945l9.033-7.79 3.882 4.5-9.032 7.79-3.882-4.5z" fill="url(#paint1_linear_747_297676)"/><path d="M42.28 10.398a1.124 1.124 0 101.702-1.468l-3.905-4.526a1.124 1.124 0 10-1.701 1.468l3.904 4.526zm-11.26 1.799a1.124 1.124 0 10-1.702 1.468l3.905 4.527a1.124 1.124 0 001.701-1.468l-3.904-4.527z" fill="#E89040"/><path d="M37.443 23.318H31.52a1.197 1.197 0 00-1.198 1.198v.82a26.17 26.17 0 008.32 0v-.82a1.198 1.198 0 00-1.198-1.198z" fill="url(#paint2_linear_747_297676)"/><path d="M29.783 25.338h9.395a1.341 1.341 0 011.34 1.341v.941H28.442v-.94a1.341 1.341 0 011.342-1.342z" fill="#E89040"/><path d="M14.947 17.826c-1.517-1.115-3.303-1.629-3.377-1.653a.473.473 0 00-.63.476v3.85a.494.494 0 00.353.474c1.091.34 2.126.839 3.07 1.483.424.22.784-.073.784-.4v-3.832a.495.495 0 00-.2-.398zm-.787 3.332a12.408 12.408 0 00-2.23-1.02V17.34c.784.292 1.533.675 2.23 1.14v2.68zM11.325 6.531c.154.035.542.129.584.129.563.007.68-.832.125-.972-.385-.116-.948-.285-1.081.252a.496.496 0 00.372.591zm3.391 1.223c3.18 1.411 5.449 3.862 5.471 3.886.402.373 1.19-.08.729-.667-.097-.106-2.424-2.625-5.8-4.122-.589-.258-.991.638-.4.903zm-3.391 2.428c4.974 1.126 8.83 5.08 8.87 5.117.584.485 1.093-.274.712-.685-.165-.171-4.095-4.202-9.364-5.396-.633-.132-.851.808-.218.964zm0 3.65c4.974 1.126 8.832 5.078 8.87 5.117a.563.563 0 00.7.013.483.483 0 00.012-.698c-.164-.171-4.095-4.203-9.363-5.396a.493.493 0 00-.527.745.494.494 0 00.308.219zm6.002 5.225c-.564-.31-1.044.546-.48.864 1.76.978 3.328 2.656 3.343 2.673.098.104.46.236.698.025a.489.489 0 00.027-.698c-.069-.073-1.688-1.808-3.588-2.864zm3.561 7.213a.493.493 0 00.026-.699c-.068-.073-1.688-1.808-3.587-2.864a.494.494 0 00-.48.864c1.759.978 3.327 2.655 3.343 2.672.098.105.467.237.698.026z" fill="#112E49"/><path d="M46.027 36.33c-8.008-3.556-15.67-2.32-21.6.02V11.11a27.487 27.487 0 014.97-1.61.495.495 0 10-.199-.97 28.21 28.21 0 00-5.055 1.622C20.701 4.937 15.666 1.108 6.354.228a.492.492 0 00-.53.493v7.906c-.836.231-2.905.85-4.58 1.731a.49.49 0 00-.259.435v30.472a.506.506 0 00.63.493c12.222-3.421 20.502-.441 22.32-.014 1.813-.41 10.237-3.417 22.45.014.405.075.63-.131.63-.49V10.973a.494.494 0 00-.989 0V36.33zM1.974 11.096a24.666 24.666 0 013.85-1.44v17.342a.494.494 0 00.459.493c8.654.886 12.839 3.92 16.443 8.57-6.136-2.155-12.76-3.166-20.753.27V11.096zm21.465 29.496c-6.215-1.734-12.508-2.186-21.465.043v-1.057c9.597-4.186 19.92-.594 21.465-.01v1.024zm0-2.08c-5.78-1.977-13.767-3.13-21.465-.01v-1.08c7.719-3.735 16.015-2.36 21.465.007v1.083zm0-3.162c-.642-.897-5.14-7.975-16.626-8.808V1.257c8.442.803 13.847 4.987 16.626 9.658v24.434zm22.588 5.285c-6.959-2.167-17.054-1.6-21.6-.04v-1.016c1.454-.548 11.94-4.214 21.6-.001v1.057zm0-2.132c-7.685-3.131-15.84-1.954-21.6.021V37.43c1.765-.784 11.73-4.782 21.6-.009v1.08z" fill="#112E49"/><path d="M30.298 11.318c-1.391-.145-2.294 1.634-1.344 2.67l3.905 4.528a1.62 1.62 0 002.802-.698 1.62 1.62 0 00-.095-1.007l2.15-1.854 3.999 4.637a1.581 1.581 0 102.395-2.066l-4-4.636 2.15-1.854c.975.657 2.426-.07 2.473-1.252a1.608 1.608 0 00-.388-1.176l-3.906-4.528c-1.206-1.392-3.441.038-2.707 1.705l-6.693 5.773a1.61 1.61 0 00-.74-.242zm11.262-.982l-6.584 5.68-3.238-3.755 6.585-5.678 3.237 3.753zm-7.064 7.6a.631.631 0 01-.888-.065l-3.906-4.528a.63.63 0 01.954-.823l3.906 4.528a.631.631 0 01-.066.889zm8.866.238c.504.588-.39 1.36-.898.774l-4-4.637.898-.774 4 4.637zM38.803 4.662a.632.632 0 01.888.065l3.905 4.529a.628.628 0 01-.276 1.017.633.633 0 01-.678-.195L38.737 5.55a.633.633 0 01.066-.888zM27.947 26.68v.94a.494.494 0 00.494.495H40.52a.495.495 0 00.494-.494v-.941a1.838 1.838 0 00-1.879-1.836c.124-1.036-.61-2.027-1.692-2.018h-5.924c-1.08-.008-1.816.982-1.692 2.018a1.841 1.841 0 00-1.879 1.836zm2.868-2.163a.704.704 0 01.703-.703h5.925c.582.016.758.524.703 1.03h-7.331v-.327zm-1.88 2.163a.848.848 0 01.848-.847h9.395c.746.032.904.659.847 1.294h-11.09v-.447z" fill="#112E49"/><defs><linearGradient id="paint0_linear_747_297676" x1="24" y1="34.609" x2="24" y2="41.282" gradientUnits="userSpaceOnUse"><stop stop-color="#4396D2"/><stop offset="1" stop-color="#1E6CB4"/></linearGradient><linearGradient id="paint1_linear_747_297676" x1="34.697" y1="9.05" x2="38.579" y2="13.55" gradientUnits="userSpaceOnUse"><stop stop-color="#D86161"/><stop offset="1" stop-color="#C94646"/></linearGradient><linearGradient id="paint2_linear_747_297676" x1="34.481" y1="23.318" x2="34.481" y2="25.669" gradientUnits="userSpaceOnUse"><stop stop-color="#D86161"/><stop offset="1" stop-color="#C94646"/></linearGradient></defs></svg>