<svg width="48" height="46" fill="none" xmlns="http://www.w3.org/2000/svg"><path d="M36.396.506a234.154 234.154 0 00-29.25 7.39 47.538 47.538 0 004.333 17.146 234.182 234.182 0 0029.249-7.39A47.538 47.538 0 0036.396.506z" fill="url(#paint0_linear_747_297646)"/><path d="M37.665 12.6a3.347 3.347 0 00-2.735 4.292 232.78 232.78 0 01-18.712 4.727 3.347 3.347 0 00-4.444-2.478 44.88 44.88 0 01-1.564-6.19 3.347 3.347 0 002.734-4.291 232.583 232.583 0 0118.712-4.728c.01.053.023.106.036.159a3.347 3.347 0 004.41 2.318 44.889 44.889 0 011.563 6.19zm-2.727-8.597c-.636 0-.975-.801-.52-1.252a.743.743 0 01.902-.106.74.74 0 01.337.76.74.74 0 01-.72.598zM12.936 23.012c-.672 0-.987-.874-.465-1.3.522-.424 1.316.049 1.184.71a.739.739 0 01-.719.59zM9.742 10.37c-.654 0-.98-.837-.493-1.277a.74.74 0 01.822-.111c.284.143.45.465.393.78a.741.741 0 01-.722.608z" fill="#14A84F"/><path d="M25.076 17.246c2.143-.541 3.375-2.98 2.752-5.445-.623-2.467-2.865-4.027-5.007-3.486-2.143.541-3.375 2.98-2.752 5.445.623 2.466 2.865 4.027 5.007 3.486z" fill="#14A84F"/><path d="M24.197 18.078c-.909 0-1.813-.29-2.623-.854-1.09-.759-1.88-1.928-2.225-3.291-.345-1.364-.204-2.768.395-3.953.616-1.22 1.641-2.066 2.886-2.38 1.244-.315 2.548-.058 3.67.723 1.09.759 1.88 1.928 2.225 3.291.345 1.364.205 2.768-.394 3.953-.617 1.22-1.642 2.066-2.887 2.38a4.243 4.243 0 01-1.047.131zm-.525-9.142c-.23 0-.458.028-.683.085-.827.21-1.514.785-1.937 1.62-.44.87-.54 1.912-.282 2.933.258 1.02.841 1.89 1.642 2.447.768.534 1.646.714 2.473.505.827-.209 1.515-.784 1.937-1.62.44-.87.54-1.912.282-2.932-.258-1.021-.841-1.89-1.641-2.447-.56-.39-1.177-.59-1.79-.59z" fill="url(#paint1_linear_747_297646)"/><path d="M44.357 10.322a234.16 234.16 0 00-30.168 0 47.536 47.536 0 000 17.685c10.056.649 20.112.649 30.168 0a47.536 47.536 0 000-17.685z" fill="url(#paint2_linear_747_297646)"/><path d="M42.626 22.356a3.348 3.348 0 00-3.703 3.491 232.517 232.517 0 01-19.3 0 3.347 3.347 0 00-3.702-3.491 44.871 44.871 0 010-6.384 3.347 3.347 0 003.702-3.491c3.222-.134 6.45-.202 9.65-.202s6.43.068 9.65.202a3.348 3.348 0 003.703 3.491 44.9 44.9 0 010 6.384zm-.359 4.062c-.673 0-.986-.87-.466-1.3a.74.74 0 01.848-.059.74.74 0 01.33.791.739.739 0 01-.712.568zm0-13.04a.74.74 0 01-.69-.486.74.74 0 01.235-.823c.517-.405 1.29.05 1.176.701a.74.74 0 01-.721.608zm-25.987-.001c-.663 0-.978-.841-.488-1.282a.74.74 0 01.894-.062.741.741 0 01.31.761.74.74 0 01-.716.582z" fill="#14A84F"/><path d="M29.273 23.767c2.209 0 4-2.06 4-4.603 0-2.542-1.792-4.604-4-4.604-2.209 0-4 2.062-4 4.604 0 2.542 1.791 4.603 4 4.603z" fill="#14A84F"/><path d="M29.273 24.501c-2.61 0-4.733-2.394-4.733-5.336 0-2.943 2.123-5.337 4.733-5.337 2.609 0 4.732 2.394 4.732 5.337 0 2.942-2.123 5.336-4.733 5.336zm0-9.207c-1.802 0-3.267 1.737-3.267 3.87 0 2.135 1.465 3.87 3.267 3.87 1.8 0 3.266-1.735 3.266-3.87 0-2.133-1.466-3.87-3.267-3.87z" fill="url(#paint3_linear_747_297646)"/><path d="M39.464 19.898h-3.12a.733.733 0 110-1.466h3.12a.733.733 0 110 1.466z" fill="url(#paint4_linear_747_297646)"/><path d="M22.202 19.898H19.08a.733.733 0 110-1.466h3.12a.733.733 0 110 1.466z" fill="url(#paint5_linear_747_297646)"/><path d="M46.832 31.907L34.22 42.023a4.936 4.936 0 01-3.686 1.049L13.54 41.003l-4.53 1.675c-2.432-2.502-1.433-10.551-1.433-10.551l1.079-.296a4.09 4.09 0 012.286-3.94l7.288-3.558 3.748-1.831a3.563 3.563 0 013.393 6.256l-6.058 3.63 10.195 1.777a4.938 4.938 0 003.535-.724l10.14-6.582a3.118 3.118 0 013.65 5.048z" fill="#F1D0A5"/><path d="M30.508 40.355c-6.983.907-11.796-3.188-14.708-7.04a4.105 4.105 0 011.058-5.934c7.031-4.507 8.85-4.341 9.814-3.377a3.563 3.563 0 00-4.694-1.502l-3.748 1.83-5.907 2.885v.002l-1.381.673a4.088 4.088 0 00-2.286 3.94l-4.499 1.042s2.42 7.303 4.854 9.804l4.528-1.675 16.996 2.069a4.936 4.936 0 003.686-1.05l12.61-10.114c-4.357-1.183-11.62 7.727-16.324 8.447z" fill="#F1B986"/><path d="M22.704 28.564c-.6 0-1.183-.291-1.539-.823-.772-1.153-1.203-2.868-1.221-2.94a.733.733 0 011.423-.354c.008.033.392 1.546 1.016 2.478.11.164.335.218.512.123l.909-.484a.733.733 0 01.69 1.293l-.909.485c-.28.15-.583.222-.881.222z" fill="#F1B986"/><path d="M6.069 31.113A14.69 14.69 0 000 33.258a118.99 118.99 0 004.323 12.235 14.69 14.69 0 006.07-2.145 118.978 118.978 0 00-4.324-12.235z" fill="url(#paint6_linear_747_297646)"/><path d="M10.393 43.348a14.672 14.672 0 01-6.07 2.145c-.432-1.042-.85-2.09-1.253-3.141a15.616 15.616 0 006.332-2.215c.345 1.065.676 2.136.99 3.211z" fill="#5B8EB8"/><path d="M6.398 42.983a.989.989 0 01-.915-.634.986.986 0 01.27-1.08.987.987 0 011.134-.11.986.986 0 01.47 1.037.988.988 0 01-.959.787z" fill="#EEEBEE"/><defs><linearGradient id="paint0_linear_747_297646" x1="23.937" y1=".506" x2="23.937" y2="25.042" gradientUnits="userSpaceOnUse"><stop stop-color="#43D26B"/><stop offset="1" stop-color="#1EB463"/></linearGradient><linearGradient id="paint1_linear_747_297646" x1="23.937" y1="7.469" x2="23.937" y2="18.078" gradientUnits="userSpaceOnUse"><stop stop-color="#43D26B"/><stop offset="1" stop-color="#1EB463"/></linearGradient><linearGradient id="paint2_linear_747_297646" x1="29.273" y1="9.836" x2="29.273" y2="28.493" gradientUnits="userSpaceOnUse"><stop stop-color="#43D26B"/><stop offset="1" stop-color="#1EB463"/></linearGradient><linearGradient id="paint3_linear_747_297646" x1="29.273" y1="13.828" x2="29.273" y2="24.501" gradientUnits="userSpaceOnUse"><stop stop-color="#43D26B"/><stop offset="1" stop-color="#1EB463"/></linearGradient><linearGradient id="paint4_linear_747_297646" x1="37.904" y1="18.432" x2="37.904" y2="19.898" gradientUnits="userSpaceOnUse"><stop stop-color="#43D26B"/><stop offset="1" stop-color="#1EB463"/></linearGradient><linearGradient id="paint5_linear_747_297646" x1="20.641" y1="18.432" x2="20.641" y2="19.898" gradientUnits="userSpaceOnUse"><stop stop-color="#43D26B"/><stop offset="1" stop-color="#1EB463"/></linearGradient><linearGradient id="paint6_linear_747_297646" x1="5.196" y1="31.113" x2="5.196" y2="45.493" gradientUnits="userSpaceOnUse"><stop stop-color="#4396D2"/><stop offset="1" stop-color="#1E6CB4"/></linearGradient></defs></svg>