<svg width="660" height="382" fill="none" xmlns="http://www.w3.org/2000/svg"><path d="M76.908 341.459v.432h.433l504.432.09h.433v-.433l-.056-316.094v-.433h-.433l-504.432-.09h-.433v.433l.056 316.095zm518.083 14.286c.001 7.902-6.404 14.306-14.305 14.305l-501.702-.089c-7.902-.002-14.309-6.408-14.31-14.311l-.06-337.931c-.002-7.902 6.403-14.307 14.305-14.305l501.702.089c7.901.001 14.309 6.408 14.31 14.31l.06 337.932z" fill="#112E49" stroke="#112E49" stroke-width=".865"/><path d="M63.749 17.719c-.002-8.367 6.803-15.172 15.17-15.17l501.702.089c8.368.001 15.174 6.808 15.175 15.175l.06 337.932c.002 8.367-6.802 15.172-15.17 15.17l-501.702-.089c-8.367-.001-15.174-6.809-15.175-15.175l-.06-337.932zm15.235 354.426l501.703.089c9.091.001 16.489-7.395 16.488-16.489l-.06-337.932c-.002-9.092-7.403-16.492-16.494-16.494L78.918 1.23c-9.092 0-16.49 7.396-16.488 16.49l.06 337.931c.002 9.094 7.401 16.493 16.494 16.495z" fill="#fff" stroke="#030E17" stroke-width=".865"/><path d="M659.846 373.426L.372 373.309.37 361.85l659.474.117.002 11.459z" fill="url(#paint0_linear_747_297050)"/><g filter="url(#filter0_i_747_297050)"><path d="M625.658 380.159a55.333 55.333 0 01-10.71 1.044l-570.758-.101a55.4 55.4 0 01-11.047-1.116L.37 373.309l659.474.117-34.187 6.733z" fill="#112E49"/></g><g filter="url(#filter1_ii_747_297050)"><path d="M285.333 370.429l89.753.016a9.047 9.047 0 009.049-9.05l-107.854-.019a9.055 9.055 0 009.052 9.053z" fill="url(#paint1_linear_747_297050)"/></g><defs><linearGradient id="paint0_linear_747_297050" x1=".372" y1="367.58" x2="659.845" y2="367.463" gradientUnits="userSpaceOnUse"><stop stop-color="#E0E0E0"/><stop offset=".011" stop-color="#F2F2F2"/><stop offset=".269" stop-color="#fff"/><stop offset=".817" stop-color="#fff"/><stop offset=".989" stop-color="#F2F2F2"/><stop offset="1" stop-color="#E0E0E0"/></linearGradient><linearGradient id="paint1_linear_747_297050" x1="273.74" y1="370.984" x2="387.525" y2="370.964" gradientUnits="userSpaceOnUse"><stop stop-color="#F2F2F2"/><stop offset=".132" stop-color="#fff"/><stop offset=".868" stop-color="#fff"/><stop offset="1" stop-color="#F2F2F2"/></linearGradient><filter id="filter0_i_747_297050" x=".371" y="369.848" width="659.474" height="11.355" filterUnits="userSpaceOnUse" color-interpolation-filters="sRGB"><feFlood flood-opacity="0" result="BackgroundImageFix"/><feBlend in="SourceGraphic" in2="BackgroundImageFix" result="shape"/><feColorMatrix in="SourceAlpha" values="0 0 0 0 0 0 0 0 0 0 0 0 0 0 0 0 0 0 127 0" result="hardAlpha"/><feOffset dy="-3.461"/><feGaussianBlur stdDeviation="3.461"/><feComposite in2="hardAlpha" operator="arithmetic" k2="-1" k3="1"/><feColorMatrix values="0 0 0 0 0.768627 0 0 0 0 0.768627 0 0 0 0 0.768627 0 0 0 1 0"/><feBlend in2="shape" result="effect1_innerShadow_747_297050"/></filter><filter id="filter1_ii_747_297050" x="276.28" y="359.646" width="107.854" height="12.529" filterUnits="userSpaceOnUse" color-interpolation-filters="sRGB"><feFlood flood-opacity="0" result="BackgroundImageFix"/><feBlend in="SourceGraphic" in2="BackgroundImageFix" result="shape"/><feColorMatrix in="SourceAlpha" values="0 0 0 0 0 0 0 0 0 0 0 0 0 0 0 0 0 0 127 0" result="hardAlpha"/><feOffset dy="1.73"/><feGaussianBlur stdDeviation=".865"/><feComposite in2="hardAlpha" operator="arithmetic" k2="-1" k3="1"/><feColorMatrix values="0 0 0 0 0.95 0 0 0 0 0.95 0 0 0 0 0.95 0 0 0 1 0"/><feBlend in2="shape" result="effect1_innerShadow_747_297050"/><feColorMatrix in="SourceAlpha" values="0 0 0 0 0 0 0 0 0 0 0 0 0 0 0 0 0 0 127 0" result="hardAlpha"/><feOffset dy="-1.73"/><feGaussianBlur stdDeviation="3.461"/><feComposite in2="hardAlpha" operator="arithmetic" k2="-1" k3="1"/><feColorMatrix values="0 0 0 0 0.88 0 0 0 0 0.88 0 0 0 0 0.88 0 0 0 1 0"/><feBlend in2="effect1_innerShadow_747_297050" result="effect2_innerShadow_747_297050"/></filter></defs></svg>