<svg width="133" height="170" fill="none" xmlns="http://www.w3.org/2000/svg"><path d="M118.779 161.5c.183.362.469.573.856.634.389.065.817-.02 1.283-.256.418-.212.713-.493.885-.844a1.07 1.07 0 00.004-1.012l1.96-.993c.261.513.351 1.048.272 1.603-.082.561-.33 1.092-.744 1.592a4.898 4.898 0 01-1.575 1.234c-1.097.556-2.077.757-2.938.603-.862-.154-1.512-.663-1.95-1.525a2.225 2.225 0 01-.211-1.37c.069-.49.283-.962.643-1.419-.616.083-1.158.007-1.627-.226-.466-.229-.84-.619-1.121-1.172-.434-.854-.443-1.703-.029-2.548.412-.838 1.171-1.538 2.277-2.099.692-.351 1.375-.549 2.047-.594.675-.041 1.26.07 1.756.333.493.27.878.677 1.154 1.222l-1.973 1c-.172-.34-.465-.55-.879-.63-.411-.076-.847.002-1.309.236-.522.265-.874.592-1.055.979-.186.39-.187.765-.003 1.127.252.496.567.782.946.859.38.08.83-.011 1.348-.273l1.169-.593.78 1.534-1.209.613c-.929.488-1.182 1.15-.757 1.985zm1.376-11.003l-8.251 4.183-.331-.653 8.25-4.183.332.653zm-17.788 8.896c.147.155.281.363.403.623.332-.691.893-1.15 1.681-1.378.746-.215 1.428-.179 2.046.11a2.177 2.177 0 011.207 1.42c.235.807.118 1.512-.352 2.115-.475.605-1.277 1.073-2.406 1.404l-.936.27.127.436c.103.352.276.607.52.765.24.159.555.183.944.07.343-.099.588-.259.738-.48.144-.219.175-.472.091-.758l2.034-.587c.128.44.111.887-.052 1.341-.162.454-.462.858-.897 1.212-.435.36-.962.629-1.581.808-.938.271-1.751.249-2.437-.066-.691-.309-1.16-.89-1.409-1.743l-.961-3.298c-.215-.721-.475-1.238-.78-1.551l-.035-.12 2.055-.593zm2.094.927a1.85 1.85 0 00-.773.437 1.383 1.383 0 00-.405.704l.381 1.308.76-.22c1.018-.294 1.457-.802 1.318-1.524l-.028-.121a.85.85 0 00-.45-.549c-.226-.113-.494-.124-.803-.035zm2.689-3.834l-7.726 2.232-.205-.703 7.726-2.232.205.703zm-20.511 9.318c-.118-1.215.064-2.215.547-3.001.478-.78 1.187-1.215 2.125-1.302.797-.075 1.468.142 2.013.65l-.361-3.718 2.108-.197 1.061 10.92-1.954.183-.148-.766c-.451.66-1.088 1.029-1.91 1.106-.972.091-1.763-.198-2.372-.867-.61-.669-.976-1.635-1.099-2.899l-.01-.109zm2.122-.044c.072.734.258 1.288.559 1.662.296.374.693.538 1.189.492.66-.062 1.09-.358 1.29-.886l-.315-3.23c-.308-.496-.792-.713-1.453-.651-1.007.095-1.43.965-1.27 2.613z" fill="#002554"/><path d="M94.033 159.735l-8.408.787-.07-.729 8.407-.787.071.729zm-17.715 1.703c1.158.096 2.074.531 2.748 1.302.668.772.956 1.749.862 2.931l-.016.205c-.063.793-.273 1.489-.629 2.086-.356.602-.827 1.048-1.413 1.337-.592.294-1.248.41-1.968.35-1.08-.09-1.902-.502-2.466-1.235-.569-.734-.804-1.726-.704-2.977l.068-.861 5.029.42c-.027-.522-.199-.952-.515-1.292-.32-.341-.744-.533-1.27-.577-.812-.068-1.47.174-1.974.724l-.945-1.247a3.18 3.18 0 011.368-.944 4.254 4.254 0 011.825-.222zm-.273 6.502c.418.035.77-.077 1.055-.337.28-.261.478-.651.593-1.17l-2.934-.246-.014.168c-.027.468.071.839.294 1.113.223.278.558.435 1.006.472zm4.822-7.446l-8.08-.676.058-.73 8.08.676-.058.73zm-20.179 4.508l3.187.78 1.45-6.04 2.055.503-1.849 7.706-5.243-1.283.4-1.666zm7.824-5.987l-6.104-1.494.171-.712 6.104 1.494-.17.712zm-19.59 3.431l-1.943-.838 3.11-7.29 1.943.839-1.92 4.5 4.354-3.45 1.95.842-3.109 7.289-1.95-.841 1.917-4.494-4.352 3.443zm8.815-6.422l-7.814-3.371.287-.674 7.815 3.372-.288.673zm-17.166-5.467c-.326-.215-.65-.3-.97-.255-.322.045-.585.214-.789.506l-1.656-1.094a2.724 2.724 0 011.179-.995 2.913 2.913 0 011.56-.215 3.69 3.69 0 011.582.606c.945.625 1.494 1.418 1.646 2.378.15.965-.124 1.979-.82 3.04l-.077.116c-.67 1.021-1.475 1.656-2.416 1.907-.94.25-1.884.063-2.829-.562-.827-.546-1.334-1.221-1.52-2.023-.193-.8-.036-1.595.47-2.384l1.656 1.094c-.217.348-.293.696-.229 1.043.062.351.26.637.594.857.411.272.822.327 1.232.165.403-.161.826-.578 1.268-1.251l.12-.184c.448-.682.665-1.24.653-1.676-.012-.435-.23-.793-.654-1.073zm5.088-.264l-6.526-4.313.402-.613 6.525 4.313-.401.613zm-20.711-6.542l1.861 1.73 4.228-4.569 1.556 1.446-4.228 4.569 1.83 1.7-1.155 1.248-5.246-4.877 1.154-1.247zm10.636-.613l-5.596-5.2.498-.538 5.595 5.201-.497.537zm-17.986-12.064c.977-.732 1.927-1.097 2.85-1.094.917.002 1.658.38 2.223 1.135.48.641.645 1.326.495 2.054l2.988-2.241 1.27 1.694-8.777 6.584-1.177-1.571.577-.525c-.8-.041-1.447-.392-1.941-1.052-.586-.782-.752-1.607-.499-2.474.253-.867.888-1.682 1.903-2.444l.088-.066zm1.146 1.787c-.59.442-.966.889-1.128 1.34-.165.448-.098.871.2 1.269.398.532.875.745 1.43.639l2.596-1.946c.263-.521.195-1.047-.203-1.579-.606-.809-1.57-.717-2.895.277z" fill="#002554"/><path d="M26.645 134.222l-5.062-6.759.586-.44 5.062 6.76-.586.439zm-18.9-12.487l-.93-1.902 7.123-3.474.93 1.902-4.398 2.144 5.562.238.933 1.908-7.122 3.474-.933-1.908 4.39-2.142-5.555-.24zm10.895.904l-3.74-7.646.66-.321 3.737 7.646-.658.321zm-12.885-18.89c1.178-.321 2.196-.31 3.055.032.853.34 1.405.964 1.655 1.873.212.772.115 1.469-.291 2.09l3.604-.982.561 2.041-10.585 2.885-.52-1.893.729-.274c-.73-.333-1.204-.897-1.423-1.693-.26-.941-.112-1.768.441-2.481.554-.713 1.443-1.236 2.668-1.569l.106-.029zm.413 2.081c-.711.194-1.225.47-1.541.83-.318.355-.41.772-.279 1.252.176.641.543 1.014 1.099 1.121l3.13-.853c.435-.387.565-.901.389-1.541-.268-.975-1.2-1.244-2.798-.809z" fill="#002554"/><path d="M13.029 110.001l-2.24-8.142.706-.193 2.24 8.142-.706.193zM4.346 96.527c-.784.058-1.495-.04-2.132-.296a3.35 3.35 0 01-1.526-1.193c-.381-.544-.601-1.191-.66-1.941-.084-1.066.174-1.96.774-2.68.6-.726 1.456-1.17 2.57-1.331l.539-.055c1.212-.09 2.213.174 3.001.796.784.622 1.22 1.502 1.31 2.642.09 1.139-.204 2.076-.881 2.813-.677.73-1.644 1.144-2.9 1.238l-.095.007zm-.013-2.122c.75-.056 1.314-.24 1.69-.553.373-.312.538-.73.497-1.256-.04-.511-.266-.896-.678-1.154-.417-.257-1.057-.354-1.919-.29-.735.056-1.293.242-1.675.56-.381.317-.552.736-.51 1.257.04.516.273.9.7 1.152.421.252 1.053.347 1.895.284zm5.536 2.193l-.665-8.455.73-.055.665 8.455-.73.055zm-1.95-14.881l-7.875-.89.358-3.292c.117-1.073.395-1.874.836-2.404.44-.53 1.015-.755 1.724-.675.364.041.678.2.943.475.26.27.443.645.548 1.124.168-.551.427-.97.777-1.254a1.53 1.53 0 011.203-.358c.733.083 1.26.423 1.584 1.02.324.592.428 1.412.314 2.46l-.412 3.794zM4.88 79.243l1.587.18.184-1.697c.08-.743-.138-1.144-.658-1.202-.528-.06-.836.264-.923.972l-.19 1.747zm-1.412-.16l.142-1.303c.07-.739-.127-1.135-.593-1.188-.286-.032-.501.047-.645.237-.143.186-.236.485-.281.897l-.13 1.187 1.507.17zm5.803 3.747l.918-8.44.728.083-.918 8.439-.728-.082zm2.195-19.45a2.34 2.34 0 01-.74-.005c.397.659.477 1.38.24 2.166-.225.743-.626 1.294-1.204 1.653a2.162 2.162 0 01-1.845.23c-.802-.247-1.329-.733-1.579-1.459-.248-.73-.204-1.659.132-2.787l.282-.932-.435-.133c-.35-.108-.657-.103-.922.015-.264.113-.455.364-.572.752-.103.34-.103.634.001.881.106.242.3.407.585.494l-.612 2.026a2.134 2.134 0 01-1.096-.78c-.29-.387-.467-.86-.527-1.42-.065-.56-.004-1.15.183-1.767.282-.935.742-1.603 1.379-2.005.633-.408 1.375-.482 2.224-.22l3.284 1.008c.72.216 1.294.283 1.722.2l.12.036-.62 2.047zm-1.914 1.244c.09-.3.109-.595.054-.888a1.402 1.402 0 00-.369-.726l-1.302-.4-.23.757c-.306 1.014-.12 1.661.561 1.942l.117.043a.844.844 0 00.704-.075c.217-.127.372-.345.465-.653zm1.75 4.361l2.328-7.698.7.215-2.328 7.698-.7-.215zm6.628-20.282l-.982 1.884-2.696-1.419-1.216 2.332 2.697 1.419-.978 1.877-7.014-3.69.979-1.877 2.813 1.48 1.215-2.332-2.813-1.48.981-1.883 7.014 3.69zm-2.255 7.495l3.934-7.548.648.341-3.934 7.548-.648-.341zm2.827-15.824c-.614-.49-1.068-1.046-1.36-1.667a3.344 3.344 0 01-.306-1.912c.091-.658.371-1.28.838-1.87.665-.838 1.463-1.316 2.393-1.436.933-.124 1.863.134 2.79.774l.432.326c.95.759 1.503 1.634 1.657 2.625.15.989-.13 1.93-.84 2.825-.71.895-1.563 1.382-2.56 1.461-.995.075-1.985-.28-2.97-1.066l-.074-.06zm1.436-1.562c.588.469 1.126.718 1.615.745.486.025.892-.169 1.22-.582.319-.402.415-.837.288-1.306-.13-.473-.532-.978-1.208-1.518-.576-.46-1.112-.703-1.608-.73-.496-.027-.906.164-1.231.573-.322.406-.412.846-.271 1.32.137.472.535.971 1.195 1.498zm2.564 5.373l5.271-6.644.573.457-5.272 6.644-.573-.457zm7.935-9.34l2.763-2.642.506.53-2.764 2.643-.505-.53zm5.423-6.888l-4.654-6.415 2.68-1.946c.872-.634 1.654-.966 2.344-.996.69-.03 1.244.243 1.662.82.215.297.31.635.284 1.016-.024.374-.178.76-.462 1.159.522-.246 1.006-.335 1.453-.267.448.06.807.276 1.077.648.433.597.537 1.215.313 1.854-.22.637-.757 1.265-1.61 1.885l-3.088 2.242zm-.219-3.906l.938 1.293 1.38-1.003c.605-.44.754-.87.447-1.293-.312-.431-.76-.44-1.342-.03l-1.423 1.033zm-.834-1.15l1.06-.77c.596-.445.756-.856.48-1.236-.169-.233-.372-.339-.61-.317-.233.019-.518.15-.854.394l-.966.701.89 1.228zm1.143 6.802l6.868-4.988.43.593-6.869 4.988-.43-.593zm10.25-6.925l3.37-1.807.346.645-3.369 1.808-.346-.646zm8.377-17.08l4.92 6.573.299-8.189 2.757-.853 3.176 10.18-2.106.651-.868-2.782-1.289-4.868-.382 8.437-1.442.446-5.107-6.73 1.706 4.732.869 2.782-2.1.65-3.176-10.18 2.743-.849zm-.04 12.708L67.09 14.52l.218.699-12.552 3.886-.218-.7zM80.694 2.065l.132-.004c.834-.026 1.595.137 2.281.487.69.346 1.236.852 1.635 1.519.399.667.613 1.432.643 2.296.044 1.278-.33 2.335-1.123 3.17-.787.835-1.876 1.273-3.267 1.316l.047 1.361-2.116.064-.047-1.361-.139.004c-.844.026-1.612-.132-2.302-.472a3.955 3.955 0 01-1.635-1.49c-.393-.647-.604-1.393-.633-2.237-.03-.854.13-1.623.478-2.308a3.945 3.945 0 011.505-1.621 4.542 4.542 0 012.22-.654l.205-.006-.047-1.39 2.115-.065.048 1.39zm-2.192 1.89c-.728.023-1.293.27-1.697.741-.4.471-.585 1.124-.556 1.959.027.78.255 1.39.686 1.825.43.432 1.02.636 1.772.613l.11-.003-.176-5.138-.14.004zm2.254-.068l.177 5.139.146-.005c.717-.021 1.273-.263 1.668-.724.4-.467.585-1.09.559-1.871-.028-.815-.253-1.448-.674-1.9-.42-.45-1.01-.665-1.766-.642l-.11.003zm-6.89 9.567l12.24-.372.025.732-12.24.372-.025-.732zM95.473 1.988l2.148.46-1.823 8.71 4.175.894 1.824-8.71 2.156.461-1.824 8.71 1.425.306-1.032 4.213-2.005-.43.527-2.516-7.757-1.66 2.186-10.438z" fill="#002554"/><path d="M92.149 13.682l11.13 2.382-.15.717-11.13-2.382.15-.717zm24.17 3.754l-3.503-1.604-1.572 1.697-2.125-.973 8.009-8.062 1.851.848-.769 11.376-2.125-.973.234-2.31zm-2.229-2.978l2.424 1.11.428-4.195-2.852 3.085zm-5.621 3.412l9.176 4.2-.302.667-9.177-4.2.303-.668z" fill="#002554"/><path fill-rule="evenodd" clip-rule="evenodd" d="M73.455 20.203c-.42.088-1.955.398-3.461.674-1.476.274-4.264 1.008-6.147 1.627-13.573 4.323-25.047 12.558-33.28 23.869C22.615 57.28 18.32 69.438 17.437 83.34c-.974 16.13 4.434 33.293 14.526 45.978 11.593 14.568 27.548 23.226 45.925 24.985 4.432.4 13.05.022 17.143-.783 11.887-2.33 22.555-7.492 31.235-15.09 2.467-2.166 6.531-6.287 6.513-6.609-.012-.225-16.501-15.328-18.954-17.352l-1.147-.968-2.575 2.429c-6.854 6.499-14.39 9.974-23.527 10.864-7.323.694-13.188-.304-19.8-3.323-17.906-8.163-27.297-28.072-22.356-47.32C47.107 65.76 53.244 57.27 62.1 51.756c5.884-3.642 11.476-5.4 18.544-5.757 10.735-.59 19.573 2.499 28.246 9.818l3.062 2.602 8.559-9.815c4.693-5.413 8.582-9.944 8.635-10.076.102-.36-5.348-4.924-8.667-7.222-9.043-6.3-18.86-10.044-30.009-11.46-2.755-.332-15.153-.1-17.014.357zm12.838 7.83c6.805.399 13.863 2.104 19.942 4.798 3.273 1.463 10.848 5.943 11.347 6.72.134.219-1.113 1.898-3.086 4.198l-3.318 3.855-1.929-1.343c-9.455-6.6-22.022-9.484-33.27-7.705-2.083.308-3.892.601-4.042.642-.33.083-3.145-8.59-2.993-9.146.103-.328 1.754-.741 6.03-1.524 2.047-.403 8.542-.664 11.319-.494zm-23.424 8.861c.777 2.535 1.355 4.758 1.27 4.892-.081.165-.642.486-1.266.746-.596.226-2.485 1.297-4.192 2.325-12.658 7.72-20.715 20.052-22.709 34.788-.267 1.787-.434 3.729-.405 4.275l.055.996-5.004.275c-3.487.192-5.009.18-5.023-.077-.079-1.446.676-7.673 1.278-10.574 3.18-15.284 12.274-28.672 25.454-37.42 1.702-1.124 8.498-4.784 9.012-4.845.091-.005.783 2.083 1.53 4.62zM36.27 95.125c.839 5.334 3.569 12.432 6.602 17.291 5.662 8.999 14.926 16.543 24.004 19.587.806.278 1.459.532 1.462.596.004.064-.351 1.92-.808 4.136a347.632 347.632 0 00-1.077 5.343l-.262 1.335-1.954-.698c-4.902-1.759-10.042-4.537-14.79-7.916-2.722-1.944-8.34-7.369-10.659-10.27-6.627-8.301-11.255-18.968-12.523-28.82l-.323-2.56 4.979-.178 4.979-.177.37 2.331zm80.597 32.708c2.21 2.037 4.04 3.804 4.047 3.933.026.482-5.591 4.561-9.159 6.625-4.421 2.596-8.614 4.34-13.735 5.815-3.626 1.005-4.41 1.112-11.171 1.517-5.853.322-7.862.304-10.282-.014-2.485-.379-2.98-.545-2.882-.969.073-.326.58-2.738 1.102-5.441.554-2.672 1.01-4.92 1.038-4.954.059-.035.703.058 1.443.243.861.178 4.022.133 8.207-.097 5.914-.326 7.212-.494 9.756-1.247 5.808-1.705 12.176-4.858 15.757-7.794.816-.657 1.546-1.213 1.665-1.251.089-.037 2.004 1.597 4.214 3.634z" fill="#007680"/><path fill-rule="evenodd" clip-rule="evenodd" d="M93.637 63.228c-9.557-3.876-20.933-1.107-28.239 6.904-2.018 2.19-4.614 6.857-5.453 9.74-4.078 13.89 3.775 28.263 17.309 31.735 15.43 3.938 30.573-7.226 31.831-23.418.656-8.615-3.173-16.852-10.31-22.142-2.27-1.666-2.322-1.696-5.138-2.819zm2.768 10.518c4.534 4.47 6.403 11.544 4.708 17.778-.606 2.276-2.64 5.93-4.18 7.576-4.389 4.701-11.36 6.863-17.361 5.405-2.262-.558-6.457-2.889-8.15-4.529-4.342-4.253-6.183-11.128-4.672-17.28.717-2.913 3.599-7.532 5.915-9.446 4.401-3.664 10.39-5.12 15.892-3.828 2.252.514 6.18 2.698 7.848 4.324z" fill="#002554"/></svg>