<svg width="48" height="48" fill="none" xmlns="http://www.w3.org/2000/svg"><path d="M11.25 32.344h2.813V48H11.25V32.344z" fill="url(#paint0_linear_747_297778)"/><path d="M12.656 32.344h1.406V48h-1.406V32.344z" fill="#000" fill-opacity=".2"/><path opacity=".2" d="M48 9.844v32.343H16.875V0h21.281l2.461 7.383L48 9.843z" fill="url(#paint1_linear_747_297778)"/><path d="M48 9.844v32.343H32.437V0h5.72l2.46 7.383L48 9.843z" fill="#000" fill-opacity=".2"/><path d="M48 9.844L38.156 0v9.844H48z" fill="#1C6FBC"/><path d="M12.656 8.438C5.677 8.438 0 14.114 0 21.093c0 6.98 5.678 12.657 12.656 12.657 6.979 0 12.656-5.677 12.656-12.656 0-6.979-5.677-12.657-12.656-12.657z" fill="url(#paint2_linear_747_297778)"/><path d="M25.313 21.094c0 6.979-5.678 12.656-12.657 12.656V8.437c6.979 0 12.656 5.678 12.656 12.657z" fill="#000" fill-opacity=".2"/><path d="M12.656 30.938c5.437 0 9.844-4.408 9.844-9.844 0-5.437-4.407-9.844-9.844-9.844-5.436 0-9.844 4.407-9.844 9.844 0 5.436 4.408 9.843 9.844 9.843z" fill="#E6F1FF"/><path d="M22.5 21.094c0 5.428-4.416 9.843-9.844 9.843V11.25c5.428 0 9.844 4.416 9.844 9.844z" fill="#D5E8FE"/><path d="M5.625 19.688h2.813v5.625H5.624v-5.625z" fill="#FED843"/><path d="M11.25 14.063h2.813v11.25H11.25v-11.25z" fill="#7ED8F6"/><path d="M12.656 14.063h1.406v11.25h-1.406v-11.25z" fill="#6AA9FF"/><path d="M16.875 16.875h2.813v8.438h-2.813v-8.438z" fill="#F03800"/><path d="M29.719 16.875h11.25v2.813h-11.25v-2.813zM28.313 22.5h12.656v2.813H28.312V22.5zm-1.407 5.625H40.97v2.813H26.906v-2.813z" fill="#61729B"/><path d="M32.438 16.875h8.53v2.813h-8.53v-2.813zm0 5.625h8.53v2.813h-8.53V22.5zm0 5.625h8.53v2.813h-8.53v-2.813z" fill="#47568C"/><defs><linearGradient id="paint0_linear_747_297778" x1="12.656" y1="32.344" x2="12.656" y2="48" gradientUnits="userSpaceOnUse"><stop stop-color="#4396D2"/><stop offset="1" stop-color="#1E6CB4"/></linearGradient><linearGradient id="paint1_linear_747_297778" x1="32.438" y1="0" x2="32.438" y2="42.188" gradientUnits="userSpaceOnUse"><stop stop-color="#4396D2"/><stop offset="1" stop-color="#1E6CB4"/></linearGradient><linearGradient id="paint2_linear_747_297778" x1="12.656" y1="8.438" x2="12.656" y2="33.75" gradientUnits="userSpaceOnUse"><stop stop-color="#4396D2"/><stop offset="1" stop-color="#1E6CB4"/></linearGradient></defs></svg>