<svg width="17" height="17" fill="none" xmlns="http://www.w3.org/2000/svg"><path fill-rule="evenodd" clip-rule="evenodd" d="M13.125 11.25a1.875 1.875 0 100 3.75 1.875 1.875 0 000-3.75zM9.75 13.125a3.375 3.375 0 116.75 0 3.375 3.375 0 01-6.75 0zM3.375 1.5a1.875 1.875 0 100 3.75 1.875 1.875 0 000-3.75zM0 3.375a3.375 3.375 0 116.75 0 3.375 3.375 0 01-6.75 0zM15.53.97a.75.75 0 010 1.06l-13.5 13.5a.75.75 0 01-1.06-1.06L14.47.97a.75.75 0 011.06 0z" fill="#000"/><path opacity=".5" d="M13.125 15.75a2.625 2.625 0 100-5.25 2.625 2.625 0 000 5.25z" fill="url(#paint0_linear_955_12047)"/><path opacity=".5" d="M3.375 6a2.625 2.625 0 100-5.25 2.625 2.625 0 000 5.25z" fill="url(#paint1_linear_955_12047)"/><defs><linearGradient id="paint0_linear_955_12047" x1="13.125" y1="10.5" x2="13.125" y2="15.75" gradientUnits="userSpaceOnUse"><stop stop-color="#4396D2"/><stop offset="1" stop-color="#1E6CB4"/></linearGradient><linearGradient id="paint1_linear_955_12047" x1="3.375" y1=".75" x2="3.375" y2="6" gradientUnits="userSpaceOnUse"><stop stop-color="#4396D2"/><stop offset="1" stop-color="#1E6CB4"/></linearGradient></defs></svg>