<svg width="17" height="20" fill="none" xmlns="http://www.w3.org/2000/svg"><path d="M12 16.5a1.125 1.125 0 100-2.25 1.125 1.125 0 000 2.25zm-3.75 0a1.125 1.125 0 100-2.25 1.125 1.125 0 000 2.25zm-3.75 0a1.125 1.125 0 100-2.25 1.125 1.125 0 000 2.25zm7.5-3.75a1.125 1.125 0 100-2.25 1.125 1.125 0 000 2.25zm-3.75 0a1.125 1.125 0 100-2.25 1.125 1.125 0 000 2.25zm-3.75 0a1.125 1.125 0 100-2.25 1.125 1.125 0 000 2.25z" fill="#112E49"/><path fill-rule="evenodd" clip-rule="evenodd" d="M15 0a1.5 1.5 0 011.5 1.5V18a1.5 1.5 0 01-1.5 1.5H1.5A1.5 1.5 0 010 18V1.5A1.5 1.5 0 011.5 0H15zm0 18V1.5H1.5V18H15z" fill="#112E49"/><path fill-rule="evenodd" clip-rule="evenodd" d="M3 3.75A.75.75 0 013.75 3h9a.75.75 0 01.75.75v4.5a.75.75 0 01-.75.75h-9A.75.75 0 013 8.25v-4.5zm1.5.75v3H12v-3H4.5z" fill="#112E49"/><path opacity=".36" d="M12.75 3.75h-9v4.5h9v-4.5z" fill="url(#paint0_linear_955_12057)"/><defs><linearGradient id="paint0_linear_955_12057" x1="8.25" y1="3.75" x2="8.25" y2="8.25" gradientUnits="userSpaceOnUse"><stop stop-color="#4396D2"/><stop offset="1" stop-color="#1E6CB4"/></linearGradient></defs></svg>